BD-Regular.ufo
<glyph name="exclam" format="2">
  <advance width="346.0"/>
  <unicode hex="0021"/>
  <outline>
    <contour>
      <point x="173.0" y="162.0" type="curve" smooth="yes"/>
      <point x="224.0" y="162.0"/>
      <point x="266.0" y="121.0"/>
      <point x="266.0" y="69.0" type="curve" smooth="yes"/>
      <point x="266.0" y="18.0"/>
      <point x="224.0" y="-24.0"/>
      <point x="173.0" y="-24.0" type="curve" smooth="yes"/>
      <point x="122.0" y="-24.0"/>
      <point x="80.0" y="18.0"/>
      <point x="80.0" y="69.0" type="curve" smooth="yes"/>
      <point x="80.0" y="121.0"/>
      <point x="122.0" y="162.0"/>
    </contour>
    <contour>
      <point x="174.0" y="1378.0" type="curve" smooth="yes"/>
      <point x="130.0" y="1378.0"/>
      <point x="81.83277362240898" y="1345.995231049817"/>
      <point x="83.0" y="1308.0" type="curve" smooth="yes"/>
      <point x="112.0" y="364.0" type="line" smooth="yes"/>
      <point x="113.10583710474882" y="328.0030956246593"/>
      <point x="143.0" y="318.0"/>
      <point x="172.0" y="318.0" type="curve" smooth="yes"/>
      <point x="203.0" y="317.0"/>
      <point x="232.8634685617584" y="327.0039421477496"/>
      <point x="234.0" y="364.0" type="curve" smooth="yes"/>
      <point x="263.0" y="1308.0" type="line" smooth="yes"/>
      <point x="264.1979218764586" y="1346.9944224616856"/>
      <point x="217.0" y="1378.0"/>
    </contour>
  </outline>
</glyph>
<glyph name="numbersign" format="2">
  <advance width="1342.0"/>
  <unicode hex="0023"/>
  <outline>
    <contour>
      <point x="248.0" y="871.0" type="line" smooth="yes"/>
      <point x="204.0" y="871.0"/>
      <point x="168.0" y="889.0"/>
      <point x="168.0" y="911.0" type="curve" smooth="yes"/>
      <point x="168.0" y="933.0"/>
      <point x="204.0" y="951.0"/>
      <point x="248.0" y="951.0" type="curve" smooth="yes"/>
      <point x="443.0" y="951.0" type="line"/>
      <point x="518.0" y="1347.0" type="line" smooth="yes"/>
      <point x="521.5794334990704" y="1365.8994088751574"/>
      <point x="555.0" y="1381.0"/>
      <point x="593.0" y="1379.0" type="curve" smooth="yes"/>
      <point x="631.0" y="1377.0"/>
      <point x="659.5723266774628" y="1360.0850329343712"/>
      <point x="656.0" y="1341.0" type="curve" smooth="yes"/>
      <point x="583.0" y="951.0" type="line"/>
      <point x="847.0" y="951.0" type="line"/>
      <point x="922.0" y="1347.0" type="line" smooth="yes"/>
      <point x="925.5794334991003" y="1365.8994088751886"/>
      <point x="959.0" y="1381.0"/>
      <point x="997.0" y="1379.0" type="curve" smooth="yes"/>
      <point x="1036.0" y="1377.0"/>
      <point x="1063.5723266774335" y="1360.085032934341"/>
      <point x="1060.0" y="1341.0" type="curve" smooth="yes"/>
      <point x="987.0" y="951.0" type="line"/>
      <point x="1162.0" y="951.0" type="line" smooth="yes"/>
      <point x="1206.0" y="951.0"/>
      <point x="1242.0" y="933.0"/>
      <point x="1242.0" y="911.0" type="curve" smooth="yes"/>
      <point x="1242.0" y="889.0"/>
      <point x="1206.0" y="871.0"/>
      <point x="1162.0" y="871.0" type="curve" smooth="yes"/>
      <point x="972.0" y="871.0" type="line"/>
      <point x="898.0" y="475.0" type="line"/>
      <point x="1094.0" y="475.0" type="line" smooth="yes"/>
      <point x="1138.0" y="475.0"/>
      <point x="1174.0" y="457.0"/>
      <point x="1174.0" y="435.0" type="curve" smooth="yes"/>
      <point x="1174.0" y="413.0"/>
      <point x="1138.0" y="395.0"/>
      <point x="1094.0" y="395.0" type="curve" smooth="yes"/>
      <point x="883.0" y="395.0" type="line"/>
      <point x="810.0" y="9.0" type="line" smooth="yes"/>
      <point x="806.4255800175" y="-9.900357715782832"/>
      <point x="773.0" y="-24.0"/>
      <point x="735.0" y="-22.0" type="curve" smooth="yes"/>
      <point x="696.0" y="-21.0"/>
      <point x="668.4338948771397" y="-4.086196432216241"/>
      <point x="672.0" y="15.0" type="curve" smooth="yes"/>
      <point x="743.0" y="395.0" type="line"/>
      <point x="478.0" y="395.0" type="line"/>
      <point x="406.0" y="9.0" type="line" smooth="yes"/>
      <point x="402.4396790413" y="-10.087276250769207"/>
      <point x="369.0" y="-24.0"/>
      <point x="330.0" y="-22.0" type="curve" smooth="yes"/>
      <point x="292.0" y="-21.0"/>
      <point x="264.43389487713966" y="-4.086196432216241"/>
      <point x="268.0" y="15.0" type="curve" smooth="yes"/>
      <point x="339.0" y="395.0" type="line"/>
      <point x="180.0" y="395.0" type="line" smooth="yes"/>
      <point x="136.0" y="395.0"/>
      <point x="100.0" y="413.0"/>
      <point x="100.0" y="435.0" type="curve" smooth="yes"/>
      <point x="100.0" y="457.0"/>
      <point x="136.0" y="475.0"/>
      <point x="180.0" y="475.0" type="curve" smooth="yes"/>
      <point x="354.0" y="475.0" type="line"/>
      <point x="428.0" y="871.0" type="line"/>
    </contour>
    <contour>
      <point x="493.0" y="475.0" type="line"/>
      <point x="758.0" y="475.0" type="line"/>
      <point x="832.0" y="871.0" type="line"/>
      <point x="568.0" y="871.0" type="line"/>
    </contour>
  </outline>
</glyph>
<glyph name="dollar" format="2">
  <advance width="1134.3657849666477"/>
  <unicode hex="0024"/>
  <outline>
    <contour>
      <point x="1003.3474722842259" y="1041.0" type="curve" smooth="yes"/>
      <point x="1007.3474722842259" y="1019.0"/>
      <point x="976.3474722842259" y="1001.0"/>
      <point x="933.3474722842259" y="999.0" type="curve" smooth="yes"/>
      <point x="891.3474722842259" y="997.0"/>
      <point x="853.3474722842259" y="1013.0"/>
      <point x="849.3474722842259" y="1034.0" type="curve" smooth="yes"/>
      <point x="832.3474722842259" y="1128.0"/>
      <point x="791.3474722842259" y="1196.0"/>
      <point x="738.3474722842259" y="1241.0" type="curve" smooth="yes"/>
      <point x="707.3474722842259" y="1268.0"/>
      <point x="672.3474722842259" y="1286.0"/>
      <point x="636.3474722842259" y="1295.0" type="curve"/>
      <point x="636.3474722842259" y="762.0" type="line"/>
      <point x="759.3474722842259" y="741.0"/>
      <point x="848.3474722842259" y="699.0"/>
      <point x="910.3474722842259" y="644.0" type="curve" smooth="yes"/>
      <point x="955.3474722842259" y="605.0"/>
      <point x="985.3474722842259" y="560.0"/>
      <point x="1004.3474722842259" y="512.0" type="curve"/>
      <point x="1025.347472284226" y="470.0"/>
      <point x="1034.347472284226" y="425.0"/>
      <point x="1034.347472284226" y="380.0" type="curve" smooth="yes"/>
      <point x="1035.347472284226" y="285.0"/>
      <point x="995.3474722842259" y="189.0"/>
      <point x="925.3474722842259" y="115.0" type="curve" smooth="yes"/>
      <point x="857.3474722842259" y="43.0"/>
      <point x="758.3474722842259" y="-9.0"/>
      <point x="636.3474722842259" y="-21.0" type="curve"/>
      <point x="636.3474722842259" y="-187.0" type="line" smooth="yes"/>
      <point x="636.3474722842259" y="-200.0"/>
      <point x="614.3474722842259" y="-211.0"/>
      <point x="586.3474722842259" y="-211.0" type="curve" smooth="yes"/>
      <point x="559.3474722842259" y="-211.0"/>
      <point x="536.3474722842259" y="-200.0"/>
      <point x="536.3474722842259" y="-187.0" type="curve" smooth="yes"/>
      <point x="536.3474722842259" y="-23.0" type="line"/>
      <point x="437.34747228422583" y="-17.0"/>
      <point x="341.34747228422583" y="15.0"/>
      <point x="262.34747228422583" y="78.0" type="curve" smooth="yes"/>
      <point x="187.34747228422583" y="139.0"/>
      <point x="127.34747228422583" y="231.0"/>
      <point x="100.34747228422583" y="360.0" type="curve" smooth="yes"/>
      <point x="96.34747228422583" y="381.0"/>
      <point x="127.34747228422583" y="400.0"/>
      <point x="169.34747228422583" y="403.0" type="curve" smooth="yes"/>
      <point x="212.34747228422583" y="405.0"/>
      <point x="250.34747228422583" y="389.0"/>
      <point x="254.34747228422583" y="368.0" type="curve" smooth="yes"/>
      <point x="278.34747228422583" y="251.0"/>
      <point x="329.34747228422583" y="170.0"/>
      <point x="394.34747228422583" y="118.0" type="curve" smooth="yes"/>
      <point x="438.34747228422583" y="83.0"/>
      <point x="487.34747228422583" y="63.0"/>
      <point x="536.3474722842259" y="56.0" type="curve"/>
      <point x="536.3474722842259" y="632.0" type="line"/>
      <point x="415.34747228422583" y="656.0"/>
      <point x="326.34747228422583" y="699.0"/>
      <point x="263.34747228422583" y="753.0" type="curve" smooth="yes"/>
      <point x="217.34747228422583" y="794.0"/>
      <point x="186.34747228422583" y="840.0"/>
      <point x="167.34747228422583" y="888.0" type="curve"/>
      <point x="145.34747228422583" y="934.0"/>
      <point x="136.34747228422583" y="983.0"/>
      <point x="140.34747228422583" y="1031.0" type="curve" smooth="yes"/>
      <point x="146.34747228422583" y="1128.0"/>
      <point x="191.34747228422583" y="1208.0"/>
      <point x="257.34747228422583" y="1266.0" type="curve" smooth="yes"/>
      <point x="330.34747228422583" y="1330.0"/>
      <point x="431.34747228422583" y="1369.0"/>
      <point x="536.3474722842259" y="1377.0" type="curve"/>
      <point x="536.3474722842259" y="1443.0" type="line" smooth="yes"/>
      <point x="536.3474722842259" y="1457.0"/>
      <point x="559.3474722842259" y="1468.0"/>
      <point x="586.3474722842259" y="1468.0" type="curve" smooth="yes"/>
      <point x="614.3474722842259" y="1468.0"/>
      <point x="636.3474722842259" y="1457.0"/>
      <point x="636.3474722842259" y="1443.0" type="curve" smooth="yes"/>
      <point x="636.3474722842259" y="1376.0" type="line"/>
      <point x="724.3474722842259" y="1367.0"/>
      <point x="806.3474722842259" y="1336.0"/>
      <point x="872.3474722842259" y="1280.0" type="curve" smooth="yes"/>
      <point x="935.3474722842259" y="1226.0"/>
      <point x="983.3474722842259" y="1147.0"/>
    </contour>
    <contour>
      <point x="536.3474722842259" y="1298.0" type="line"/>
      <point x="485.34747228422583" y="1290.0"/>
      <point x="434.34747228422583" y="1265.0"/>
      <point x="392.34747228422583" y="1228.0" type="curve" smooth="yes"/>
      <point x="337.34747228422583" y="1180.0"/>
      <point x="299.34747228422583" y="1112.0"/>
      <point x="294.34747228422583" y="1028.0" type="curve" smooth="yes"/>
      <point x="292.34747228422583" y="993.0"/>
      <point x="296.34747228422583" y="958.0"/>
      <point x="309.34747228422583" y="925.0" type="curve"/>
      <point x="320.34747228422583" y="902.0"/>
      <point x="336.34747228422583" y="881.0"/>
      <point x="358.34747228422583" y="861.0" type="curve" smooth="yes"/>
      <point x="398.34747228422583" y="827.0"/>
      <point x="456.34747228422583" y="798.0"/>
      <point x="536.3474722842259" y="779.0" type="curve"/>
    </contour>
    <contour>
      <point x="636.3474722842259" y="59.0" type="line"/>
      <point x="693.3474722842259" y="72.0"/>
      <point x="744.3474722842259" y="105.0"/>
      <point x="785.3474722842259" y="148.0" type="curve" smooth="yes"/>
      <point x="845.3474722842259" y="212.0"/>
      <point x="880.3474722842259" y="296.0"/>
      <point x="880.3474722842259" y="380.0" type="curve"/>
      <point x="879.3474722842259" y="412.0"/>
      <point x="874.3474722842259" y="445.0"/>
      <point x="863.3474722842259" y="475.0" type="curve"/>
      <point x="852.3474722842259" y="497.0"/>
      <point x="836.3474722842259" y="518.0"/>
      <point x="815.3474722842259" y="537.0" type="curve" smooth="yes"/>
      <point x="775.3474722842259" y="571.0"/>
      <point x="717.3474722842259" y="599.0"/>
      <point x="636.3474722842259" y="615.0" type="curve"/>
    </contour>
  </outline>
</glyph>
<glyph name="percent" format="2">
  <advance width="1598.0"/>
  <unicode hex="0025"/>
  <outline>
    <contour>
      <point x="601.0" y="1032.3844189016602" type="curve" smooth="yes"/>
      <point x="601.0" y="1215.3844189016602"/>
      <point x="514.0" y="1308.3844189016602"/>
      <point x="426.0" y="1311.3844189016602" type="curve" smooth="yes"/>
      <point x="336.0" y="1313.3844189016602"/>
      <point x="245.0" y="1220.3844189016602"/>
      <point x="245.0" y="1032.3844189016602" type="curve" smooth="yes"/>
      <point x="245.0" y="844.3844189016603"/>
      <point x="336.0" y="751.3844189016603"/>
      <point x="426.0" y="753.3844189016603" type="curve" smooth="yes"/>
      <point x="514.0" y="756.3844189016603"/>
      <point x="601.0" y="848.3844189016603"/>
    </contour>
    <contour>
      <point x="1358.0" y="337.3844189016603" type="curve" smooth="yes"/>
      <point x="1358.0" y="521.3844189016603"/>
      <point x="1271.0" y="614.3844189016603"/>
      <point x="1184.0" y="616.3844189016603" type="curve" smooth="yes"/>
      <point x="1094.0" y="618.3844189016603"/>
      <point x="1002.0" y="525.3844189016603"/>
      <point x="1002.0" y="337.3844189016603" type="curve" smooth="yes"/>
      <point x="1002.0" y="149.38441890166027"/>
      <point x="1094.0" y="56.38441890166027"/>
      <point x="1184.0" y="59.38441890166027" type="curve" smooth="yes"/>
      <point x="1271.0" y="61.38441890166027"/>
      <point x="1358.0" y="154.38441890166027"/>
    </contour>
    <contour>
      <point x="490.0" y="5.384418901660268" type="line" smooth="yes"/>
      <point x="481.9039020221591" y="-9.563932096985809"/>
      <point x="452.0" y="-18.61558109833973"/>
      <point x="423.0" y="-14.615581098339732" type="curve" smooth="yes"/>
      <point x="394.0" y="-10.615581098339732"/>
      <point x="377.0" y="4.384418901660268"/>
      <point x="384.0" y="19.38441890166027" type="curve"/>
      <point x="1113.0" y="1365.3844189016602" type="line" smooth="yes"/>
      <point x="1120.6791563115858" y="1379.562943449479"/>
      <point x="1151.0" y="1388.3844189016602"/>
      <point x="1180.0" y="1384.3844189016602" type="curve" smooth="yes"/>
      <point x="1209.0" y="1380.3844189016602"/>
      <point x="1226.0" y="1365.3844189016602"/>
      <point x="1219.0" y="1351.3844189016602" type="curve" smooth="yes"/>
    </contour>
    <contour>
      <point x="1498.0" y="337.3844189016603" type="curve" smooth="yes"/>
      <point x="1498.0" y="104.38441890166027"/>
      <point x="1341.0" y="-13.615581098339732"/>
      <point x="1183.0" y="-15.615581098339732" type="curve" smooth="yes"/>
      <point x="1024.0" y="-16.61558109833973"/>
      <point x="863.0" y="100.38441890166027"/>
      <point x="863.0" y="337.3844189016603" type="curve" smooth="yes"/>
      <point x="863.0" y="572.3844189016603"/>
      <point x="1021.0" y="690.3844189016603"/>
      <point x="1180.0" y="690.3844189016603" type="curve" smooth="yes"/>
      <point x="1339.0" y="690.3844189016603"/>
      <point x="1498.0" y="572.3844189016603"/>
    </contour>
    <contour>
      <point x="740.0" y="1032.3844189016602" type="curve" smooth="yes"/>
      <point x="740.0" y="798.3844189016603"/>
      <point x="584.0" y="681.3844189016603"/>
      <point x="426.0" y="679.3844189016603" type="curve" smooth="yes"/>
      <point x="266.0" y="678.3844189016603"/>
      <point x="105.0" y="795.3844189016603"/>
      <point x="105.0" y="1032.3844189016602" type="curve" smooth="yes"/>
      <point x="105.0" y="1267.3844189016602"/>
      <point x="264.0" y="1385.3844189016602"/>
      <point x="423.0" y="1385.3844189016602" type="curve" smooth="yes"/>
      <point x="582.0" y="1385.3844189016602"/>
      <point x="740.0" y="1267.3844189016602"/>
    </contour>
  </outline>
</glyph>
<glyph name="ampersand" format="2">
  <advance width="1315.4986001384577"/>
  <unicode hex="0026"/>
  <outline>
    <contour>
      <point x="954.105666746129" y="651.4904214559386" type="curve" smooth="yes"/>
      <point x="954.105666746129" y="672.4904214559386"/>
      <point x="989.105666746129" y="690.4904214559386"/>
      <point x="1032.1056667461291" y="689.4904214559386" type="curve" smooth="yes"/>
      <point x="1075.1056667461291" y="689.4904214559386"/>
      <point x="1109.1056667461291" y="672.4904214559386"/>
      <point x="1109.1056667461291" y="650.4904214559386" type="curve" smooth="yes"/>
      <point x="1107.1056667461291" y="520.4904214559386"/>
      <point x="1071.1056667461291" y="390.49042145593864"/>
      <point x="1004.105666746129" y="278.49042145593864" type="curve"/>
      <point x="1122.1056667461291" y="138.49042145593867"/>
      <point x="1209.1056667461291" y="36.49042145593867"/>
      <point x="1209.1056667461291" y="35.49042145593867" type="curve"/>
      <point x="1226.1056667461291" y="15.490421455938673"/>
      <point x="1208.1056667461291" y="-7.509578544061327"/>
      <point x="1168.1056667461291" y="-15.509578544061327" type="curve" smooth="yes"/>
      <point x="1129.1056667461291" y="-24.509578544061327"/>
      <point x="1083.1056667461291" y="-14.509578544061327"/>
      <point x="1066.1056667461291" y="4.490421455938673" type="curve"/>
      <point x="1066.1056667461291" y="5.490421455938673"/>
      <point x="1009.105666746129" y="72.49042145593867"/>
      <point x="925.105666746129" y="171.49042145593867" type="curve"/>
      <point x="821.105666746129" y="55.49042145593867"/>
      <point x="660.105666746129" y="-19.509578544061327"/>
      <point x="501.10566674612903" y="-19.509578544061327" type="curve" smooth="yes"/>
      <point x="278.10566674612903" y="-21.509578544061327"/>
      <point x="72.10566674612903" y="132.49042145593867"/>
      <point x="103.10566674612903" y="374.49042145593864" type="curve" smooth="yes"/>
      <point x="128.10566674612903" y="568.4904214559386"/>
      <point x="278.10566674612903" y="672.4904214559386"/>
      <point x="433.10566674612903" y="766.4904214559386" type="curve"/>
      <point x="382.10566674612903" y="831.4904214559386"/>
      <point x="336.10566674612903" y="889.4904214559386"/>
      <point x="301.10566674612903" y="936.4904214559386" type="curve" smooth="yes"/>
      <point x="255.10566674612903" y="996.4904214559386"/>
      <point x="220.10566674612903" y="1069.4904214559388"/>
      <point x="219.10566674612903" y="1142.4904214559388" type="curve" smooth="yes"/>
      <point x="218.10566674612903" y="1319.4904214559388"/>
      <point x="408.10566674612903" y="1403.4904214559388"/>
      <point x="562.105666746129" y="1403.4904214559388" type="curve" smooth="yes"/>
      <point x="733.105666746129" y="1403.4904214559388"/>
      <point x="898.105666746129" y="1314.4904214559388"/>
      <point x="898.105666746129" y="1127.4904214559388" type="curve" smooth="yes"/>
      <point x="898.105666746129" y="948.4904214559386"/>
      <point x="750.105666746129" y="836.4904214559386"/>
      <point x="613.105666746129" y="752.4904214559386" type="curve"/>
      <point x="703.105666746129" y="640.4904214559386"/>
      <point x="808.105666746129" y="514.4904214559386"/>
      <point x="903.105666746129" y="399.49042145593864" type="curve"/>
      <point x="935.105666746129" y="479.49042145593864"/>
      <point x="952.105666746129" y="565.4904214559386"/>
    </contour>
    <contour>
      <point x="839.105666746129" y="274.49042145593864" type="curve"/>
      <point x="734.105666746129" y="399.49042145593864"/>
      <point x="610.105666746129" y="549.4904214559386"/>
      <point x="500.10566674612903" y="683.4904214559386" type="curve"/>
      <point x="380.10566674612903" y="607.4904214559386"/>
      <point x="278.10566674612903" y="518.4904214559386"/>
      <point x="259.10566674612903" y="369.49042145593864" type="curve" smooth="yes"/>
      <point x="239.10566674612903" y="216.49042145593867"/>
      <point x="339.10566674612903" y="61.49042145593867"/>
      <point x="500.10566674612903" y="58.49042145593867" type="curve" smooth="yes"/>
      <point x="637.105666746129" y="55.49042145593867"/>
      <point x="766.105666746129" y="164.49042145593867"/>
    </contour>
    <contour>
      <point x="546.105666746129" y="835.4904214559386" type="curve"/>
      <point x="648.105666746129" y="901.4904214559386"/>
      <point x="741.105666746129" y="998.4904214559386"/>
      <point x="741.105666746129" y="1127.4904214559388" type="curve" smooth="yes"/>
      <point x="741.105666746129" y="1232.4904214559388"/>
      <point x="674.105666746129" y="1325.4904214559388"/>
      <point x="562.105666746129" y="1325.4904214559388" type="curve" smooth="yes"/>
      <point x="462.10566674612903" y="1325.4904214559388"/>
      <point x="374.10566674612903" y="1243.4904214559388"/>
      <point x="375.10566674612903" y="1142.4904214559388" type="curve" smooth="yes"/>
      <point x="376.10566674612903" y="1078.4904214559388"/>
      <point x="408.10566674612903" y="1015.4904214559388"/>
      <point x="447.10566674612903" y="963.4904214559386" type="curve" smooth="yes"/>
      <point x="474.10566674612903" y="927.4904214559386"/>
      <point x="508.10566674612903" y="883.4904214559386"/>
    </contour>
  </outline>
</glyph>
<glyph name="quotesingle" format="2">
  <advance width="380.2216692477346"/>
  <unicode hex="0027"/>
  <outline>
    <contour>
      <point x="191.10703536878165" y="1404.0" type="curve" smooth="yes"/>
      <point x="147.10703536878165" y="1404.0"/>
      <point x="97.38455188041394" y="1372.020890096157"/>
      <point x="100.10703536878165" y="1334.0" type="curve" smooth="yes"/>
      <point x="129.10703536878165" y="929.0" type="line" smooth="yes"/>
      <point x="131.61597393446604" y="893.9613752033356"/>
      <point x="160.10703536878165" y="883.0"/>
      <point x="189.10703536878165" y="883.0" type="curve" smooth="yes"/>
      <point x="219.10703536878165" y="883.0"/>
      <point x="248.52692845078596" y="892.9674723522671"/>
      <point x="251.10703536878165" y="929.0" type="curve" smooth="yes"/>
      <point x="280.1070353687817" y="1334.0" type="line" smooth="yes"/>
      <point x="282.900725043889" y="1373.0153213245858"/>
      <point x="234.10703536878165" y="1404.0"/>
    </contour>
  </outline>
</glyph>
<glyph name="parenleft" format="2">
  <advance height="2048" width="679.0"/>
  <unicode hex="0028"/>
  <outline>
    <contour>
      <point x="569.0" y="-401.0" type="curve" smooth="yes"/>
      <point x="590.0" y="-423.0"/>
      <point x="575.0" y="-451.0"/>
      <point x="536.0" y="-463.0" type="curve" smooth="yes"/>
      <point x="496.0" y="-474.0"/>
      <point x="447.0" y="-466.0"/>
      <point x="426.0" y="-444.0" type="curve" smooth="yes"/>
      <point x="214.0" y="-221.0"/>
      <point x="100.0" y="101.0"/>
      <point x="100.0" y="425.0" type="curve" smooth="yes"/>
      <point x="100.0" y="736.0"/>
      <point x="204.0" y="1051.0"/>
      <point x="426.0" y="1286.0" type="curve" smooth="yes"/>
      <point x="447.0" y="1308.0"/>
      <point x="496.0" y="1316.0"/>
      <point x="535.0" y="1305.0" type="curve" smooth="yes"/>
      <point x="575.0" y="1293.0"/>
      <point x="590.0" y="1266.0"/>
      <point x="569.0" y="1243.0" type="curve" smooth="yes"/>
      <point x="361.0" y="1022.0"/>
      <point x="263.0" y="723.0"/>
      <point x="263.0" y="425.0" type="curve" smooth="yes"/>
      <point x="263.0" y="115.0"/>
      <point x="370.0" y="-191.0"/>
    </contour>
  </outline>
</glyph>
<glyph name="asterisk" format="2">
	<unicode hex="002A"/>
	<advance height="2048" width="639"/>
	<outline>
		<contour>
			<point x="274" y="798" type="line"/>
			<point x="287" y="992" type="line" smooth="yes"/>
			<point x="288" y="1010"/>
			<point x="303" y="1016"/>
			<point x="319" y="1016" type="curve" smooth="yes"/>
			<point x="335" y="1016"/>
			<point x="350" y="1011"/>
			<point x="351" y="992" type="curve" smooth="yes"/>
			<point x="365" y="799" type="line"/>
			<point x="553" y="845" type="line" smooth="yes"/>
			<point x="571" y="850"/>
			<point x="581" y="838"/>
			<point x="586" y="823" type="curve" smooth="yes"/>
			<point x="591" y="808"/>
			<point x="591" y="792"/>
			<point x="573" y="784" type="curve" smooth="yes"/>
			<point x="394" y="712" type="line"/>
			<point x="496" y="547" type="line" smooth="yes"/>
			<point x="506" y="531"/>
			<point x="498" y="518"/>
			<point x="485" y="509" type="curve"/>
			<point x="472" y="499"/>
			<point x="457" y="495"/>
			<point x="444" y="509" type="curve"/>
			<point x="320" y="658" type="line"/>
			<point x="195" y="509" type="line" smooth="yes"/>
			<point x="183" y="495"/>
			<point x="168" y="499"/>
			<point x="155" y="508" type="curve" smooth="yes"/>
			<point x="142" y="517"/>
			<point x="133" y="531"/>
			<point x="143" y="547" type="curve" smooth="yes"/>
			<point x="246" y="711" type="line"/>
			<point x="66" y="784" type="line" smooth="yes"/>
			<point x="48" y="791"/>
			<point x="48" y="807"/>
			<point x="53" y="822" type="curve"/>
			<point x="57" y="837"/>
			<point x="67" y="850"/>
			<point x="86" y="845" type="curve" smooth="yes"/>
		</contour>
	</outline>
</glyph>
<glyph name="plus" format="2">
  <advance width="1165.0"/>
  <unicode hex="002B"/>
  <outline>
    <contour>
      <point x="190.0" y="432.0" type="line" smooth="yes"/>
      <point x="140.0" y="432.0"/>
      <point x="100.0" y="452.0"/>
      <point x="100.0" y="477.0" type="curve" smooth="yes"/>
      <point x="100.0" y="502.0"/>
      <point x="140.0" y="522.0"/>
      <point x="190.0" y="522.0" type="curve" smooth="yes"/>
      <point x="532.0" y="522.0" type="line"/>
      <point x="532.0" y="927.0" type="line" smooth="yes"/>
      <point x="532.0" y="941.0"/>
      <point x="555.0" y="952.0"/>
      <point x="583.0" y="952.0" type="curve" smooth="yes"/>
      <point x="610.0" y="952.0"/>
      <point x="633.0" y="941.0"/>
      <point x="633.0" y="927.0" type="curve" smooth="yes"/>
      <point x="633.0" y="522.0" type="line"/>
      <point x="975.0" y="522.0" type="line" smooth="yes"/>
      <point x="1025.0" y="522.0"/>
      <point x="1065.0" y="502.0"/>
      <point x="1065.0" y="477.0" type="curve" smooth="yes"/>
      <point x="1065.0" y="452.0"/>
      <point x="1025.0" y="432.0"/>
      <point x="975.0" y="432.0" type="curve" smooth="yes"/>
      <point x="633.0" y="432.0" type="line"/>
      <point x="633.0" y="27.0" type="line" smooth="yes"/>
      <point x="633.0" y="14.0"/>
      <point x="610.0" y="2.0"/>
      <point x="583.0" y="2.0" type="curve" smooth="yes"/>
      <point x="555.0" y="2.0"/>
      <point x="532.0" y="14.0"/>
      <point x="532.0" y="27.0" type="curve" smooth="yes"/>
      <point x="532.0" y="432.0" type="line"/>
    </contour>
  </outline>
</glyph>
<glyph name="comma" format="2">
  <advance width="459.2344705900709"/>
  <unicode hex="002C"/>
  <outline>
    <contour>
      <point x="252.0612244897959" y="191.10294015214902" type="curve" smooth="yes"/>
      <point x="305.06122448979596" y="191.10294015214902"/>
      <point x="342.06122448979596" y="147.10294015214902"/>
      <point x="354.06122448979596" y="99.10294015214902" type="curve" smooth="yes"/>
      <point x="363.06122448979596" y="62.10294015214902"/>
      <point x="360.06122448979596" y="18.102940152149017"/>
      <point x="347.06122448979596" y="-25.897059847850983" type="curve" smooth="yes"/>
      <point x="334.06122448979596" y="-68.89705984785098"/>
      <point x="309.06122448979596" y="-111.89705984785098"/>
      <point x="273.06122448979596" y="-143.89705984785098" type="curve" smooth="yes"/>
      <point x="246.0612244897959" y="-167.89705984785098"/>
      <point x="213.0612244897959" y="-185.89705984785098"/>
      <point x="172.0612244897959" y="-195.89705984785098" type="curve" smooth="yes"/>
      <point x="147.0612244897959" y="-201.89705984785098"/>
      <point x="117.06122448979592" y="-196.89705984785098"/>
      <point x="105.06122448979592" y="-184.89705984785098" type="curve" smooth="yes"/>
      <point x="93.06122448979592" y="-171.89705984785098"/>
      <point x="103.06122448979592" y="-156.89705984785098"/>
      <point x="128.0612244897959" y="-150.89705984785098" type="curve" smooth="yes"/>
      <point x="194.0612244897959" y="-134.89705984785098"/>
      <point x="240.0612244897959" y="-64.89705984785098"/>
      <point x="254.0612244897959" y="5.102940152149017" type="curve"/>
      <point x="253.0612244897959" y="5.102940152149017"/>
      <point x="253.0612244897959" y="5.102940152149017"/>
      <point x="252.0612244897959" y="5.102940152149017" type="curve" smooth="yes"/>
      <point x="201.0612244897959" y="5.102940152149017"/>
      <point x="159.0612244897959" y="47.10294015214902"/>
      <point x="159.0612244897959" y="98.10294015214902" type="curve" smooth="yes"/>
      <point x="159.0612244897959" y="149.10294015214902"/>
      <point x="201.0612244897959" y="191.10294015214902"/>
    </contour>
  </outline>
</glyph>
<glyph name="period" format="2">
  <advance width="386.0"/>
  <unicode hex="002E"/>
  <outline>
    <contour>
      <point x="193.0" y="181.0" type="curve" smooth="yes"/>
      <point x="244.0" y="181.0"/>
      <point x="286.0" y="139.0"/>
      <point x="286.0" y="88.0" type="curve" smooth="yes"/>
      <point x="286.0" y="37.0"/>
      <point x="244.0" y="-5.0"/>
      <point x="193.0" y="-5.0" type="curve" smooth="yes"/>
      <point x="142.0" y="-5.0"/>
      <point x="100.0" y="37.0"/>
      <point x="100.0" y="88.0" type="curve" smooth="yes"/>
      <point x="100.0" y="139.0"/>
      <point x="142.0" y="181.0"/>
    </contour>
  </outline>
</glyph>
<glyph name="slash" format="2">
  <advance width="817.0498848308549"/>
  <unicode hex="002F"/>
  <outline>
    <contour>
      <point x="218.06223050986733" y="5.0" type="line"/>
      <point x="213.06223050986733" y="-11.0"/>
      <point x="182.06223050986733" y="-22.0"/>
      <point x="149.06223050986733" y="-19.0" type="curve" smooth="yes"/>
      <point x="117.06223050986733" y="-16.0"/>
      <point x="94.78204241672586" y="-0.8984980816826464"/>
      <point x="101.06223050986733" y="16.0" type="curve" smooth="yes"/>
      <point x="599.0622305098673" y="1356.0" type="line"/>
      <point x="604.0622305098673" y="1373.0"/>
      <point x="635.0622305098673" y="1383.0"/>
      <point x="668.0622305098673" y="1381.0" type="curve" smooth="yes"/>
      <point x="700.0622305098673" y="1378.0"/>
      <point x="722.0622305098673" y="1362.0"/>
      <point x="716.0622305098673" y="1346.0" type="curve" smooth="yes"/>
    </contour>
  </outline>
</glyph>
<glyph name="zero" format="2">
  <advance width="1042.0"/>
  <unicode hex="0030"/>
  <outline>
    <contour>
      <point x="1002.0" y="677.0" type="curve" smooth="yes"/>
      <point x="1002.0" y="350.0"/>
      <point x="890.0" y="138.0"/>
      <point x="747.0" y="43.0" type="curve" smooth="yes"/>
      <point x="680.0" y="-2.0"/>
      <point x="602.0" y="-24.0"/>
      <point x="521.0" y="-24.0" type="curve" smooth="yes"/>
      <point x="440.0" y="-24.0"/>
      <point x="362.0" y="-2.0"/>
      <point x="295.0" y="43.0" type="curve" smooth="yes"/>
      <point x="152.0" y="138.0"/>
      <point x="40.0" y="350.0"/>
      <point x="40.0" y="677.0" type="curve" smooth="yes"/>
      <point x="40.0" y="1003.0"/>
      <point x="152.0" y="1215.0"/>
      <point x="295.0" y="1310.0" type="curve" smooth="yes"/>
      <point x="362.0" y="1355.0"/>
      <point x="440.0" y="1377.0"/>
      <point x="521.0" y="1377.0" type="curve" smooth="yes"/>
      <point x="602.0" y="1377.0"/>
      <point x="680.0" y="1355.0"/>
      <point x="747.0" y="1310.0" type="curve" smooth="yes"/>
      <point x="890.0" y="1215.0"/>
      <point x="1002.0" y="1003.0"/>
    </contour>
    <contour>
      <point x="626.0" y="88.0" type="curve" smooth="yes"/>
      <point x="752.0" y="172.0"/>
      <point x="850.0" y="367.0"/>
      <point x="850.0" y="677.0" type="curve" smooth="yes"/>
      <point x="850.0" y="986.0"/>
      <point x="752.0" y="1181.0"/>
      <point x="626.0" y="1265.0" type="curve" smooth="yes"/>
      <point x="589.0" y="1289.0"/>
      <point x="553.0" y="1301.0"/>
      <point x="521.0" y="1301.0" type="curve" smooth="yes"/>
      <point x="489.0" y="1301.0"/>
      <point x="453.0" y="1289.0"/>
      <point x="416.0" y="1265.0" type="curve" smooth="yes"/>
      <point x="290.0" y="1181.0"/>
      <point x="192.0" y="986.0"/>
      <point x="192.0" y="677.0" type="curve" smooth="yes"/>
      <point x="192.0" y="367.0"/>
      <point x="290.0" y="172.0"/>
      <point x="416.0" y="88.0" type="curve" smooth="yes"/>
      <point x="453.0" y="64.0"/>
      <point x="489.0" y="52.0"/>
      <point x="521.0" y="52.0" type="curve" smooth="yes"/>
      <point x="553.0" y="52.0"/>
      <point x="589.0" y="64.0"/>
    </contour>
  </outline>
</glyph>
<glyph name="one" format="2">
  <advance width="616.0943356651217"/>
  <unicode hex="0031"/>
  <outline>
    <contour>
      <point x="149.09433566512166" y="963.0" type="curve" smooth="yes"/>
      <point x="108.09433566512165" y="957.0"/>
      <point x="65.09433566512165" y="969.0"/>
      <point x="53.09433566512165" y="989.0" type="curve" smooth="yes"/>
      <point x="41.09433566512165" y="1010.0"/>
      <point x="65.09433566512165" y="1031.0"/>
      <point x="106.09433566512165" y="1037.0" type="curve" smooth="yes"/>
      <point x="158.09433566512166" y="1044.0"/>
      <point x="215.09433566512166" y="1073.0"/>
      <point x="265.09433566512166" y="1126.0" type="curve" smooth="yes"/>
      <point x="311.09433566512166" y="1177.0"/>
      <point x="346.09433566512166" y="1247.0"/>
      <point x="359.09433566512166" y="1338.0" type="curve"/>
      <point x="360.09433566512166" y="1341.0"/>
      <point x="361.09433566512166" y="1343.0"/>
      <point x="362.09433566512166" y="1346.0" type="curve" smooth="yes"/>
      <point x="369.09433566512166" y="1364.0"/>
      <point x="400.09433566512166" y="1378.0"/>
      <point x="439.09433566512166" y="1378.0" type="curve" smooth="yes"/>
      <point x="481.09433566512166" y="1378.0"/>
      <point x="516.0943356651217" y="1360.0"/>
      <point x="516.0943356651217" y="1339.0" type="curve" smooth="yes"/>
      <point x="516.0943356651217" y="16.0" type="line" smooth="yes"/>
      <point x="516.0943356651217" y="-5.0"/>
      <point x="481.09433566512166" y="-23.0"/>
      <point x="439.09433566512166" y="-23.0" type="curve" smooth="yes"/>
      <point x="396.09433566512166" y="-23.0"/>
      <point x="361.09433566512166" y="-5.0"/>
      <point x="361.09433566512166" y="16.0" type="curve" smooth="yes"/>
      <point x="361.09433566512166" y="1054.0" type="line"/>
      <point x="298.09433566512166" y="1003.0"/>
      <point x="222.09433566512166" y="973.0"/>
    </contour>
  </outline>
</glyph>
<glyph name="two" format="2">
  <advance width="1128.1037668717693"/>
  <unicode hex="0032"/>
  <outline>
    <contour>
      <point x="264.0" y="975.4260594634277" type="curve" smooth="yes"/>
      <point x="267.0" y="954.4260594634277"/>
      <point x="235.0" y="935.4260594634277"/>
      <point x="193.0" y="933.4260594634277" type="curve" smooth="yes"/>
      <point x="150.0" y="932.4260594634277"/>
      <point x="113.0" y="948.4260594634277"/>
      <point x="110.0" y="969.4260594634277" type="curve" smooth="yes"/>
      <point x="99.0" y="1033.4260594634277"/>
      <point x="140.0" y="1139.4260594634277"/>
      <point x="173.0" y="1192.4260594634277" type="curve" smooth="yes"/>
      <point x="261.0" y="1334.4260594634277"/>
      <point x="413.0" y="1389.4260594634277"/>
      <point x="574.0" y="1389.4260594634277" type="curve" smooth="yes"/>
      <point x="706.0" y="1389.4260594634277"/>
      <point x="811.0" y="1349.4260594634277"/>
      <point x="887.0" y="1287.4260594634277" type="curve" smooth="yes"/>
      <point x="964.0" y="1224.4260594634277"/>
      <point x="1010.0" y="1137.4260594634277"/>
      <point x="1024.0" y="1047.4260594634277" type="curve" smooth="yes"/>
      <point x="1066.0" y="757.4260594634277"/>
      <point x="777.0" y="614.4260594634277"/>
      <point x="551.0" y="502.4260594634277" type="curve" smooth="yes"/>
      <point x="520.0" y="487.4260594634277"/>
      <point x="490.0" y="473.4260594634277"/>
      <point x="463.0" y="458.4260594634277" type="curve" smooth="yes"/>
      <point x="402.0" y="426.4260594634277"/>
      <point x="351.0" y="390.4260594634277"/>
      <point x="315.0" y="330.4260594634277" type="curve" smooth="yes"/>
      <point x="281.0" y="272.4260594634277"/>
      <point x="260.0" y="193.4260594634277"/>
      <point x="256.0" y="77.42605946342769" type="curve"/>
      <point x="943.0" y="77.42605946342769" type="line" smooth="yes"/>
      <point x="985.0" y="77.42605946342769"/>
      <point x="1021.0" y="60.42605946342769"/>
      <point x="1021.0" y="39.42605946342769" type="curve" smooth="yes"/>
      <point x="1021.0" y="17.42605946342769"/>
      <point x="985.0" y="0.4260594634276913"/>
      <point x="943.0" y="0.4260594634276913" type="curve" smooth="yes"/>
      <point x="178.0" y="0.4260594634276913" type="line" smooth="yes"/>
      <point x="135.0" y="0.4260594634276913"/>
      <point x="100.0" y="17.42605946342769"/>
      <point x="100.0" y="39.42605946342769" type="curve" smooth="yes"/>
      <point x="100.0" y="184.4260594634277"/>
      <point x="125.0" y="281.4260594634277"/>
      <point x="167.0" y="352.4260594634277" type="curve" smooth="yes"/>
      <point x="212.0" y="426.4260594634277"/>
      <point x="275.0" y="471.4260594634277"/>
      <point x="350.0" y="511.4260594634277" type="curve" smooth="yes"/>
      <point x="378.0" y="526.4260594634277"/>
      <point x="409.0" y="541.4260594634277"/>
      <point x="442.0" y="557.4260594634277" type="curve" smooth="yes"/>
      <point x="646.0" y="658.4260594634277"/>
      <point x="907.0" y="787.4260594634277"/>
      <point x="869.0" y="1042.4260594634277" type="curve" smooth="yes"/>
      <point x="858.0" y="1120.4260594634277"/>
      <point x="818.0" y="1195.4260594634277"/>
      <point x="755.0" y="1247.4260594634277" type="curve" smooth="yes"/>
      <point x="707.0" y="1287.4260594634277"/>
      <point x="645.0" y="1312.4260594634277"/>
      <point x="574.0" y="1312.4260594634277" type="curve" smooth="yes"/>
      <point x="464.0" y="1312.4260594634277"/>
      <point x="379.0" y="1263.4260594634277"/>
      <point x="320.0" y="1169.4260594634277" type="curve" smooth="yes"/>
      <point x="293.0" y="1125.4260594634277"/>
      <point x="255.0" y="1028.4260594634277"/>
    </contour>
  </outline>
</glyph>
<glyph name="three" format="2">
  <advance width="1117.9304920061863"/>
  <unicode hex="0033"/>
  <outline>
    <contour>
      <point x="256.0" y="978.0014936641937" type="curve" smooth="yes"/>
      <point x="257.0" y="957.0014936641937"/>
      <point x="223.0" y="939.0014936641937"/>
      <point x="181.0" y="938.0014936641937" type="curve" smooth="yes"/>
      <point x="138.0" y="938.0014936641937"/>
      <point x="103.0" y="954.0014936641937"/>
      <point x="101.0" y="976.0014936641937" type="curve" smooth="yes"/>
      <point x="95.0" y="1087.0014936641937"/>
      <point x="125.0" y="1192.0014936641937"/>
      <point x="210.0" y="1269.0014936641937" type="curve" smooth="yes"/>
      <point x="296.0" y="1347.0014936641937"/>
      <point x="417.0" y="1378.0014936641937"/>
      <point x="531.0" y="1377.0014936641937" type="curve" smooth="yes"/>
      <point x="745.0" y="1375.0014936641937"/>
      <point x="887.0" y="1277.0014936641937"/>
      <point x="947.0" y="1154.0014936641937" type="curve" smooth="yes"/>
      <point x="968.0" y="1110.0014936641937"/>
      <point x="979.0" y="1062.0014936641937"/>
      <point x="979.0" y="1014.0014936641937" type="curve" smooth="yes"/>
      <point x="980.0" y="966.0014936641937"/>
      <point x="969.0" y="919.0014936641937"/>
      <point x="947.0" y="875.0014936641937" type="curve" smooth="yes"/>
      <point x="913.0" y="809.0014936641937"/>
      <point x="853.0" y="751.0014936641937"/>
      <point x="765.0" y="713.0014936641937" type="curve"/>
      <point x="863.0" y="678.0014936641937"/>
      <point x="931.0" y="618.0014936641937"/>
      <point x="972.0" y="545.0014936641937" type="curve" smooth="yes"/>
      <point x="999.0" y="497.00149366419373"/>
      <point x="1014.0" y="443.00149366419373"/>
      <point x="1017.0" y="388.00149366419373" type="curve" smooth="yes"/>
      <point x="1021.0" y="334.0014936641936"/>
      <point x="1012.0" y="279.0014936641936"/>
      <point x="992.0" y="228.00149366419362" type="curve" smooth="yes"/>
      <point x="924.0" y="53.00149366419362"/>
      <point x="753.0" y="-23.998506335806383"/>
      <point x="574.0" y="-23.998506335806383" type="curve" smooth="yes"/>
      <point x="454.0" y="-23.998506335806383"/>
      <point x="334.0" y="5.001493664193617"/>
      <point x="244.0" y="71.00149366419362" type="curve" smooth="yes"/>
      <point x="146.0" y="142.00149366419362"/>
      <point x="100.0" y="247.00149366419362"/>
      <point x="100.0" y="366.00149366419373" type="curve" smooth="yes"/>
      <point x="100.0" y="387.00149366419373"/>
      <point x="135.0" y="405.00149366419373"/>
      <point x="177.0" y="405.00149366419373" type="curve" smooth="yes"/>
      <point x="220.0" y="405.00149366419373"/>
      <point x="255.0" y="387.00149366419373"/>
      <point x="255.0" y="366.00149366419373" type="curve" smooth="yes"/>
      <point x="255.0" y="266.0014936641936"/>
      <point x="288.0" y="175.00149366419362"/>
      <point x="371.0" y="114.00149366419362" type="curve" smooth="yes"/>
      <point x="430.0" y="72.00149366419362"/>
      <point x="503.0" y="53.00149366419362"/>
      <point x="574.0" y="53.00149366419362" type="curve" smooth="yes"/>
      <point x="700.0" y="53.00149366419362"/>
      <point x="795.0" y="126.00149366419362"/>
      <point x="840.0" y="242.00149366419362" type="curve" smooth="yes"/>
      <point x="858.0" y="288.0014936641936"/>
      <point x="866.0" y="338.0014936641936"/>
      <point x="863.0" y="386.00149366419373" type="curve" smooth="yes"/>
      <point x="860.0" y="434.00149366419373"/>
      <point x="847.0" y="482.00149366419373"/>
      <point x="823.0" y="524.0014936641937" type="curve" smooth="yes"/>
      <point x="778.0" y="604.0014936641937"/>
      <point x="693.0" y="665.0014936641937"/>
      <point x="567.0" y="668.0014936641937" type="curve"/>
      <point x="547.0" y="666.0014936641937"/>
      <point x="527.0" y="665.0014936641937"/>
      <point x="506.0" y="665.0014936641937" type="curve" smooth="yes"/>
      <point x="463.0" y="665.0014936641937"/>
      <point x="428.0" y="683.0014936641937"/>
      <point x="428.0" y="704.0014936641937" type="curve" smooth="yes"/>
      <point x="428.0" y="724.0014936641937"/>
      <point x="459.0" y="740.0014936641937"/>
      <point x="498.0" y="742.0014936641937" type="curve" smooth="yes"/>
      <point x="518.0" y="744.0014936641937"/>
      <point x="537.0" y="745.0014936641937"/>
      <point x="555.0" y="745.0014936641937" type="curve"/>
      <point x="678.0" y="758.0014936641937"/>
      <point x="758.0" y="818.0014936641937"/>
      <point x="797.0" y="894.0014936641937" type="curve" smooth="yes"/>
      <point x="816.0" y="932.0014936641937"/>
      <point x="825.0" y="973.0014936641937"/>
      <point x="825.0" y="1014.0014936641937" type="curve" smooth="yes"/>
      <point x="825.0" y="1056.0014936641937"/>
      <point x="815.0" y="1097.0014936641937"/>
      <point x="797.0" y="1136.0014936641937" type="curve" smooth="yes"/>
      <point x="752.0" y="1227.0014936641937"/>
      <point x="660.0" y="1299.0014936641937"/>
      <point x="528.0" y="1300.0014936641937" type="curve" smooth="yes"/>
      <point x="461.0" y="1301.0014936641937"/>
      <point x="395.0" y="1277.0014936641937"/>
      <point x="346.0" y="1232.0014936641937" type="curve" smooth="yes"/>
      <point x="273.0" y="1166.0014936641937"/>
      <point x="250.0" y="1072.0014936641937"/>
    </contour>
  </outline>
</glyph>
<glyph name="four" format="2">
  <advance width="1167.160139826538"/>
  <unicode hex="0034"/>
  <outline>
    <contour>
      <point x="864.1601398265379" y="15.0" type="line" smooth="yes"/>
      <point x="864.1601398265379" y="-6.0"/>
      <point x="830.1601398265379" y="-24.0"/>
      <point x="787.1601398265379" y="-24.0" type="curve" smooth="yes"/>
      <point x="744.1601398265379" y="-24.0"/>
      <point x="709.1601398265379" y="-6.0"/>
      <point x="709.1601398265379" y="15.0" type="curve" smooth="yes"/>
      <point x="709.1601398265379" y="342.0" type="line"/>
      <point x="134.160139826538" y="342.0" type="line" smooth="yes"/>
      <point x="124.160139826538" y="342.0"/>
      <point x="113.160139826538" y="342.0"/>
      <point x="103.160139826538" y="344.0" type="curve" smooth="yes"/>
      <point x="62.16013982653799" y="351.0"/>
      <point x="40.30886784130626" y="372.8967101125463"/>
      <point x="54.16013982653799" y="393.0" type="curve" smooth="yes"/>
      <point x="712.1601398265379" y="1348.0" type="line" smooth="yes"/>
      <point x="726.9553447131628" y="1369.47328368801"/>
      <point x="762.1601398265379" y="1377.0"/>
      <point x="787.1601398265379" y="1377.0" type="curve" smooth="yes"/>
      <point x="830.1601398265379" y="1377.0"/>
      <point x="864.1601398265379" y="1359.0"/>
      <point x="864.1601398265379" y="1338.0" type="curve" smooth="yes"/>
      <point x="864.1601398265379" y="419.0" type="line"/>
      <point x="1039.160139826538" y="419.0" type="line" smooth="yes"/>
      <point x="1081.160139826538" y="419.0"/>
      <point x="1117.160139826538" y="402.0"/>
      <point x="1117.160139826538" y="381.0" type="curve" smooth="yes"/>
      <point x="1117.160139826538" y="359.0"/>
      <point x="1081.160139826538" y="342.0"/>
      <point x="1039.160139826538" y="342.0" type="curve" smooth="yes"/>
      <point x="864.1601398265379" y="342.0" type="line"/>
    </contour>
    <contour>
      <point x="236.160139826538" y="419.0" type="line"/>
      <point x="709.1601398265379" y="419.0" type="line"/>
      <point x="709.1601398265379" y="1107.0" type="line"/>
    </contour>
  </outline>
</glyph>
<glyph name="five" format="2">
  <advance width="1142.5440145506311"/>
  <unicode hex="0035"/>
  <outline>
    <contour>
      <point x="144.54401455063106" y="644.0" type="curve"/>
      <point x="235.54401455063106" y="1328.0" type="line"/>
      <point x="235.54401455063106" y="1349.0"/>
      <point x="270.54401455063106" y="1366.0"/>
      <point x="312.54401455063106" y="1366.0" type="curve" smooth="yes"/>
      <point x="918.5440145506311" y="1366.0" type="line" smooth="yes"/>
      <point x="960.5440145506311" y="1366.0"/>
      <point x="996.5440145506311" y="1349.0"/>
      <point x="996.5440145506311" y="1327.0" type="curve" smooth="yes"/>
      <point x="996.5440145506311" y="1306.0"/>
      <point x="960.5440145506311" y="1289.0"/>
      <point x="918.5440145506311" y="1289.0" type="curve" smooth="yes"/>
      <point x="385.54401455063106" y="1289.0" type="line"/>
      <point x="321.54401455063106" y="807.0" type="line"/>
      <point x="402.54401455063106" y="847.0"/>
      <point x="497.54401455063106" y="865.0"/>
      <point x="592.5440145506311" y="860.0" type="curve" smooth="yes"/>
      <point x="722.5440145506311" y="854.0"/>
      <point x="847.5440145506311" y="806.0"/>
      <point x="931.5440145506311" y="717.0" type="curve" smooth="yes"/>
      <point x="998.5440145506311" y="645.0"/>
      <point x="1042.5440145506311" y="546.0"/>
      <point x="1042.5440145506311" y="419.0" type="curve" smooth="yes"/>
      <point x="1042.5440145506311" y="288.0"/>
      <point x="996.5440145506311" y="187.0"/>
      <point x="926.5440145506311" y="115.0" type="curve" smooth="yes"/>
      <point x="836.5440145506311" y="24.0"/>
      <point x="705.5440145506311" y="-22.0"/>
      <point x="570.5440145506311" y="-23.0" type="curve" smooth="yes"/>
      <point x="453.54401455063106" y="-24.0"/>
      <point x="338.54401455063106" y="8.0"/>
      <point x="250.54401455063106" y="75.0" type="curve" smooth="yes"/>
      <point x="178.54401455063106" y="128.0"/>
      <point x="123.54401455063108" y="205.0"/>
      <point x="100.54401455063108" y="305.0" type="curve" smooth="yes"/>
      <point x="95.54401455063108" y="326.0"/>
      <point x="125.54401455063108" y="345.0"/>
      <point x="168.54401455063106" y="348.0" type="curve" smooth="yes"/>
      <point x="210.54401455063106" y="350.0"/>
      <point x="249.54401455063106" y="335.0"/>
      <point x="253.54401455063106" y="314.0" type="curve" smooth="yes"/>
      <point x="274.54401455063106" y="227.0"/>
      <point x="320.54401455063106" y="161.0"/>
      <point x="379.54401455063106" y="117.0" type="curve" smooth="yes"/>
      <point x="436.54401455063106" y="74.0"/>
      <point x="503.54401455063106" y="53.0"/>
      <point x="567.5440145506311" y="54.0" type="curve" smooth="yes"/>
      <point x="644.5440145506311" y="55.0"/>
      <point x="725.5440145506311" y="86.0"/>
      <point x="786.5440145506311" y="149.0" type="curve" smooth="yes"/>
      <point x="847.5440145506311" y="211.0"/>
      <point x="887.5440145506311" y="301.0"/>
      <point x="887.5440145506311" y="419.0" type="curve" smooth="yes"/>
      <point x="887.5440145506311" y="534.0"/>
      <point x="849.5440145506311" y="622.0"/>
      <point x="791.5440145506311" y="684.0" type="curve" smooth="yes"/>
      <point x="732.5440145506311" y="747.0"/>
      <point x="654.5440145506311" y="780.0"/>
      <point x="578.5440145506311" y="784.0" type="curve" smooth="yes"/>
      <point x="528.5440145506311" y="786.0"/>
      <point x="475.54401455063106" y="775.0"/>
      <point x="427.54401455063106" y="751.0" type="curve" smooth="yes"/>
      <point x="380.54401455063106" y="727.0"/>
      <point x="339.54401455063106" y="692.0"/>
      <point x="307.54401455063106" y="646.0" type="curve" smooth="yes"/>
      <point x="280.54401455063106" y="608.0"/>
      <point x="273.54401455063106" y="595.0"/>
      <point x="216.54401455063106" y="597.0" type="curve" smooth="yes"/>
      <point x="185.54401455063106" y="598.0"/>
      <point x="142.54401455063106" y="606.0"/>
    </contour>
  </outline>
</glyph>
<glyph name="six" format="2">
  <advance width="1157.9524068965939"/>
  <unicode hex="0036"/>
  <outline>
    <contour>
      <point x="1057.9524068965939" y="419.0" type="curve" smooth="yes"/>
      <point x="1057.9524068965939" y="212.0"/>
      <point x="946.9524068965937" y="78.0"/>
      <point x="804.9524068965937" y="17.0" type="curve" smooth="yes"/>
      <point x="740.9524068965937" y="-10.0"/>
      <point x="669.9524068965937" y="-24.0"/>
      <point x="597.9524068965937" y="-24.0" type="curve" smooth="yes"/>
      <point x="525.9524068965937" y="-24.0"/>
      <point x="455.95240689659374" y="-11.0"/>
      <point x="392.95240689659374" y="16.0" type="curve" smooth="yes"/>
      <point x="316.95240689659374" y="49.0"/>
      <point x="250.95240689659374" y="101.0"/>
      <point x="203.95240689659374" y="174.0" type="curve" smooth="yes"/>
      <point x="140.95240689659374" y="271.0"/>
      <point x="116.95240689659374" y="393.0"/>
      <point x="105.95240689659374" y="517.0" type="curve" smooth="yes"/>
      <point x="95.95240689659374" y="635.0"/>
      <point x="98.95240689659374" y="756.0"/>
      <point x="111.95240689659374" y="845.0" type="curve" smooth="yes"/>
      <point x="139.95240689659374" y="1039.0"/>
      <point x="214.95240689659374" y="1228.0"/>
      <point x="391.95240689659374" y="1321.0" type="curve" smooth="yes"/>
      <point x="461.95240689659374" y="1358.0"/>
      <point x="541.9524068965937" y="1377.0"/>
      <point x="627.9524068965937" y="1377.0" type="curve" smooth="yes"/>
      <point x="727.9524068965937" y="1376.0"/>
      <point x="826.9524068965937" y="1347.0"/>
      <point x="902.9524068965937" y="1285.0" type="curve" smooth="yes"/>
      <point x="961.9524068965937" y="1237.0"/>
      <point x="1008.9524068965937" y="1169.0"/>
      <point x="1030.9524068965939" y="1080.0" type="curve" smooth="yes"/>
      <point x="1035.9524068965939" y="1059.0"/>
      <point x="1004.9524068965937" y="1039.0"/>
      <point x="962.9524068965937" y="1037.0" type="curve" smooth="yes"/>
      <point x="919.9524068965937" y="1034.0"/>
      <point x="881.9524068965937" y="1050.0"/>
      <point x="876.9524068965937" y="1071.0" type="curve" smooth="yes"/>
      <point x="857.9524068965937" y="1148.0"/>
      <point x="819.9524068965937" y="1206.0"/>
      <point x="771.9524068965937" y="1245.0" type="curve" smooth="yes"/>
      <point x="724.9524068965937" y="1282.0"/>
      <point x="673.9524068965937" y="1300.0"/>
      <point x="621.9524068965937" y="1300.0" type="curve" smooth="yes"/>
      <point x="570.9524068965937" y="1300.0"/>
      <point x="517.9524068965937" y="1284.0"/>
      <point x="472.95240689659374" y="1255.0" type="curve" smooth="yes"/>
      <point x="429.95240689659374" y="1228.0"/>
      <point x="394.95240689659374" y="1190.0"/>
      <point x="365.95240689659374" y="1147.0" type="curve" smooth="yes"/>
      <point x="281.95240689659374" y="1021.0"/>
      <point x="252.95240689659374" y="843.0"/>
      <point x="255.95240689659374" y="706.0" type="curve"/>
      <point x="287.95240689659374" y="750.0"/>
      <point x="329.95240689659374" y="784.0"/>
      <point x="375.95240689659374" y="809.0" type="curve" smooth="yes"/>
      <point x="440.95240689659374" y="844.0"/>
      <point x="516.9524068965937" y="861.0"/>
      <point x="592.9524068965937" y="862.0" type="curve" smooth="yes"/>
      <point x="665.9524068965937" y="862.0"/>
      <point x="739.9524068965937" y="848.0"/>
      <point x="804.9524068965937" y="820.0" type="curve" smooth="yes"/>
      <point x="946.9524068965937" y="759.0"/>
      <point x="1057.9524068965939" y="625.0"/>
    </contour>
    <contour>
      <point x="703.9524068965937" y="75.0" type="curve" smooth="yes"/>
      <point x="815.9524068965937" y="123.0"/>
      <point x="902.9524068965937" y="237.0"/>
      <point x="902.9524068965937" y="419.0" type="curve" smooth="yes"/>
      <point x="902.9524068965937" y="600.0"/>
      <point x="815.9524068965937" y="714.0"/>
      <point x="703.9524068965937" y="762.0" type="curve" smooth="yes"/>
      <point x="669.9524068965937" y="776.0"/>
      <point x="634.9524068965937" y="784.0"/>
      <point x="598.9524068965937" y="784.0" type="curve" smooth="yes"/>
      <point x="562.9524068965937" y="784.0"/>
      <point x="526.9524068965937" y="777.0"/>
      <point x="491.95240689659374" y="762.0" type="curve" smooth="yes"/>
      <point x="379.95240689659374" y="714.0"/>
      <point x="292.95240689659374" y="600.0"/>
      <point x="292.95240689659374" y="419.0" type="curve" smooth="yes"/>
      <point x="292.95240689659374" y="237.0"/>
      <point x="379.95240689659374" y="123.0"/>
      <point x="491.95240689659374" y="75.0" type="curve" smooth="yes"/>
      <point x="526.9524068965937" y="61.0"/>
      <point x="562.9524068965937" y="53.0"/>
      <point x="597.9524068965937" y="53.0" type="curve" smooth="yes"/>
      <point x="632.9524068965937" y="53.0"/>
      <point x="669.9524068965937" y="61.0"/>
    </contour>
  </outline>
</glyph>
<glyph name="seven" format="2">
  <advance width="1076.0"/>
  <unicode hex="0037"/>
  <outline>
    <contour>
      <point x="129.0" y="1288.0" type="line" smooth="yes"/>
      <point x="86.0" y="1288.0"/>
      <point x="50.0" y="1305.0"/>
      <point x="50.0" y="1326.0" type="curve" smooth="yes"/>
      <point x="50.0" y="1348.0"/>
      <point x="86.0" y="1365.0"/>
      <point x="129.0" y="1365.0" type="curve" smooth="yes"/>
      <point x="948.0" y="1365.0" type="line" smooth="yes"/>
      <point x="991.0" y="1365.0"/>
      <point x="1026.0" y="1348.0"/>
      <point x="1026.0" y="1326.0" type="curve" smooth="yes"/>
      <point x="1026.0" y="1320.0"/>
      <point x="1023.0" y="1315.0"/>
      <point x="1018.0" y="1309.0" type="curve" smooth="yes"/>
      <point x="868.0" y="1124.0"/>
      <point x="756.0" y="941.0"/>
      <point x="678.0" y="734.0" type="curve" smooth="yes"/>
      <point x="599.0" y="526.0"/>
      <point x="554.0" y="294.0"/>
      <point x="540.0" y="14.0" type="curve" smooth="yes"/>
      <point x="539.0" y="-8.0"/>
      <point x="504.0" y="-24.0"/>
      <point x="461.0" y="-24.0" type="curve" smooth="yes"/>
      <point x="418.0" y="-23.0"/>
      <point x="385.0" y="-6.0"/>
      <point x="386.0" y="15.0" type="curve" smooth="yes"/>
      <point x="400.0" y="301.0"/>
      <point x="446.0" y="536.0"/>
      <point x="526.0" y="748.0" type="curve" smooth="yes"/>
      <point x="599.0" y="942.0"/>
      <point x="701.0" y="1115.0"/>
      <point x="835.0" y="1288.0" type="curve"/>
    </contour>
  </outline>
</glyph>
<glyph name="eight" format="2">
  <advance width="1159.0"/>
  <unicode hex="0038"/>
  <outline>
    <contour>
      <point x="1059.0" y="361.0" type="curve" smooth="yes"/>
      <point x="1059.0" y="181.0"/>
      <point x="940.0" y="63.0"/>
      <point x="788.0" y="10.0" type="curve" smooth="yes"/>
      <point x="723.0" y="-13.0"/>
      <point x="652.0" y="-24.0"/>
      <point x="580.0" y="-24.0" type="curve" smooth="yes"/>
      <point x="507.0" y="-24.0"/>
      <point x="436.0" y="-13.0"/>
      <point x="371.0" y="10.0" type="curve" smooth="yes"/>
      <point x="219.0" y="63.0"/>
      <point x="100.0" y="181.0"/>
      <point x="100.0" y="361.0" type="curve" smooth="yes"/>
      <point x="100.0" y="539.0"/>
      <point x="216.0" y="656.0"/>
      <point x="366.0" y="710.0" type="curve"/>
      <point x="237.0" y="762.0"/>
      <point x="139.0" y="867.0"/>
      <point x="139.0" y="1024.0" type="curve" smooth="yes"/>
      <point x="139.0" y="1189.0"/>
      <point x="247.0" y="1296.0"/>
      <point x="386.0" y="1345.0" type="curve" smooth="yes"/>
      <point x="447.0" y="1366.0"/>
      <point x="513.0" y="1377.0"/>
      <point x="580.0" y="1377.0" type="curve" smooth="yes"/>
      <point x="646.0" y="1377.0"/>
      <point x="712.0" y="1366.0"/>
      <point x="773.0" y="1345.0" type="curve" smooth="yes"/>
      <point x="912.0" y="1296.0"/>
      <point x="1020.0" y="1189.0"/>
      <point x="1020.0" y="1024.0" type="curve" smooth="yes"/>
      <point x="1020.0" y="867.0"/>
      <point x="922.0" y="762.0"/>
      <point x="793.0" y="710.0" type="curve"/>
      <point x="943.0" y="656.0"/>
      <point x="1059.0" y="539.0"/>
    </contour>
    <contour>
      <point x="684.0" y="765.0" type="curve" smooth="yes"/>
      <point x="786.0" y="801.0"/>
      <point x="865.0" y="886.0"/>
      <point x="865.0" y="1024.0" type="curve" smooth="yes"/>
      <point x="865.0" y="1161.0"/>
      <point x="786.0" y="1246.0"/>
      <point x="684.0" y="1282.0" type="curve" smooth="yes"/>
      <point x="650.0" y="1294.0"/>
      <point x="615.0" y="1300.0"/>
      <point x="580.0" y="1300.0" type="curve" smooth="yes"/>
      <point x="544.0" y="1300.0"/>
      <point x="509.0" y="1294.0"/>
      <point x="475.0" y="1282.0" type="curve" smooth="yes"/>
      <point x="373.0" y="1246.0"/>
      <point x="294.0" y="1161.0"/>
      <point x="294.0" y="1024.0" type="curve" smooth="yes"/>
      <point x="294.0" y="886.0"/>
      <point x="373.0" y="801.0"/>
      <point x="475.0" y="765.0" type="curve" smooth="yes"/>
      <point x="509.0" y="753.0"/>
      <point x="544.0" y="747.0"/>
      <point x="580.0" y="747.0" type="curve" smooth="yes"/>
      <point x="615.0" y="747.0"/>
      <point x="650.0" y="753.0"/>
    </contour>
    <contour>
      <point x="699.0" y="73.0" type="curve" smooth="yes"/>
      <point x="814.0" y="113.0"/>
      <point x="904.0" y="209.0"/>
      <point x="904.0" y="361.0" type="curve" smooth="yes"/>
      <point x="904.0" y="513.0"/>
      <point x="814.0" y="609.0"/>
      <point x="699.0" y="649.0" type="curve" smooth="yes"/>
      <point x="661.0" y="662.0"/>
      <point x="620.0" y="669.0"/>
      <point x="580.0" y="669.0" type="curve" smooth="yes"/>
      <point x="539.0" y="669.0"/>
      <point x="498.0" y="662.0"/>
      <point x="460.0" y="649.0" type="curve" smooth="yes"/>
      <point x="345.0" y="609.0"/>
      <point x="255.0" y="513.0"/>
      <point x="255.0" y="361.0" type="curve" smooth="yes"/>
      <point x="255.0" y="209.0"/>
      <point x="345.0" y="113.0"/>
      <point x="460.0" y="73.0" type="curve" smooth="yes"/>
      <point x="498.0" y="60.0"/>
      <point x="539.0" y="53.0"/>
      <point x="580.0" y="53.0" type="curve" smooth="yes"/>
      <point x="620.0" y="53.0"/>
      <point x="661.0" y="60.0"/>
    </contour>
  </outline>
</glyph>
<glyph name="nine" format="2">
  <advance width="1158.3840952141134"/>
  <unicode hex="0039"/>
  <outline>
    <contour>
      <point x="100.0" y="934.0" type="curve" smooth="yes"/>
      <point x="100.0" y="1141.0"/>
      <point x="211.0" y="1275.0"/>
      <point x="353.0" y="1336.0" type="curve" smooth="yes"/>
      <point x="417.0" y="1363.0"/>
      <point x="488.0" y="1377.0"/>
      <point x="560.0" y="1377.0" type="curve" smooth="yes"/>
      <point x="632.0" y="1377.0"/>
      <point x="702.0" y="1364.0"/>
      <point x="766.0" y="1337.0" type="curve" smooth="yes"/>
      <point x="841.0" y="1304.0"/>
      <point x="907.0" y="1252.0"/>
      <point x="954.0" y="1179.0" type="curve" smooth="yes"/>
      <point x="1017.0" y="1082.0"/>
      <point x="1041.0" y="960.0"/>
      <point x="1052.0" y="836.0" type="curve" smooth="yes"/>
      <point x="1063.0" y="718.0"/>
      <point x="1059.0" y="597.0"/>
      <point x="1046.0" y="508.0" type="curve" smooth="yes"/>
      <point x="1018.0" y="314.0"/>
      <point x="943.0" y="125.0"/>
      <point x="766.0" y="32.0" type="curve" smooth="yes"/>
      <point x="696.0" y="-5.0"/>
      <point x="616.0" y="-24.0"/>
      <point x="530.0" y="-24.0" type="curve" smooth="yes"/>
      <point x="430.0" y="-23.0"/>
      <point x="331.0" y="6.0"/>
      <point x="255.0" y="68.0" type="curve" smooth="yes"/>
      <point x="196.0" y="116.0"/>
      <point x="149.0" y="184.0"/>
      <point x="127.0" y="273.0" type="curve" smooth="yes"/>
      <point x="122.0" y="294.0"/>
      <point x="153.0" y="314.0"/>
      <point x="195.0" y="316.0" type="curve" smooth="yes"/>
      <point x="238.0" y="319.0"/>
      <point x="276.0" y="303.0"/>
      <point x="281.0" y="282.0" type="curve" smooth="yes"/>
      <point x="300.0" y="205.0"/>
      <point x="338.0" y="147.0"/>
      <point x="386.0" y="108.0" type="curve" smooth="yes"/>
      <point x="433.0" y="71.0"/>
      <point x="484.0" y="53.0"/>
      <point x="536.0" y="53.0" type="curve" smooth="yes"/>
      <point x="587.0" y="53.0"/>
      <point x="640.0" y="69.0"/>
      <point x="685.0" y="98.0" type="curve" smooth="yes"/>
      <point x="728.0" y="125.0"/>
      <point x="763.0" y="163.0"/>
      <point x="792.0" y="206.0" type="curve" smooth="yes"/>
      <point x="876.0" y="332.0"/>
      <point x="905.0" y="510.0"/>
      <point x="902.0" y="647.0" type="curve"/>
      <point x="870.0" y="603.0"/>
      <point x="829.0" y="569.0"/>
      <point x="782.0" y="544.0" type="curve" smooth="yes"/>
      <point x="717.0" y="509.0"/>
      <point x="641.0" y="492.0"/>
      <point x="565.0" y="491.0" type="curve" smooth="yes"/>
      <point x="492.0" y="491.0"/>
      <point x="418.0" y="505.0"/>
      <point x="353.0" y="533.0" type="curve" smooth="yes"/>
      <point x="211.0" y="594.0"/>
      <point x="100.0" y="728.0"/>
    </contour>
    <contour>
      <point x="454.0" y="1278.0" type="curve" smooth="yes"/>
      <point x="342.0" y="1230.0"/>
      <point x="255.0" y="1116.0"/>
      <point x="255.0" y="934.0" type="curve" smooth="yes"/>
      <point x="255.0" y="753.0"/>
      <point x="342.0" y="639.0"/>
      <point x="454.0" y="591.0" type="curve" smooth="yes"/>
      <point x="488.0" y="577.0"/>
      <point x="523.0" y="569.0"/>
      <point x="559.0" y="569.0" type="curve" smooth="yes"/>
      <point x="595.0" y="569.0"/>
      <point x="631.0" y="576.0"/>
      <point x="666.0" y="591.0" type="curve" smooth="yes"/>
      <point x="778.0" y="639.0"/>
      <point x="865.0" y="753.0"/>
      <point x="865.0" y="934.0" type="curve" smooth="yes"/>
      <point x="865.0" y="1116.0"/>
      <point x="778.0" y="1230.0"/>
      <point x="666.0" y="1278.0" type="curve" smooth="yes"/>
      <point x="632.0" y="1292.0"/>
      <point x="595.0" y="1300.0"/>
      <point x="560.0" y="1300.0" type="curve" smooth="yes"/>
      <point x="525.0" y="1300.0"/>
      <point x="489.0" y="1292.0"/>
    </contour>
  </outline>
</glyph>
<glyph name="colon" format="2">
  <advance height="2048" width="380.0"/>
  <unicode hex="003A"/>
  <outline>
    <contour>
      <point x="190.0" y="330.0" type="curve" smooth="yes"/>
      <point x="240.0" y="330.0"/>
      <point x="280.0" y="290.0"/>
      <point x="280.0" y="240.0" type="curve" smooth="yes"/>
      <point x="280.0" y="190.0"/>
      <point x="240.0" y="150.0"/>
      <point x="190.0" y="150.0" type="curve" smooth="yes"/>
      <point x="140.0" y="150.0"/>
      <point x="100.0" y="190.0"/>
      <point x="100.0" y="240.0" type="curve" smooth="yes"/>
      <point x="100.0" y="290.0"/>
      <point x="140.0" y="330.0"/>
    </contour>
    <contour>
      <point x="190.0" y="1076.0" type="curve" smooth="yes"/>
      <point x="240.0" y="1076.0"/>
      <point x="280.0" y="1036.0"/>
      <point x="280.0" y="986.0" type="curve" smooth="yes"/>
      <point x="280.0" y="936.0"/>
      <point x="240.0" y="896.0"/>
      <point x="190.0" y="896.0" type="curve" smooth="yes"/>
      <point x="140.0" y="896.0"/>
      <point x="100.0" y="936.0"/>
      <point x="100.0" y="986.0" type="curve" smooth="yes"/>
      <point x="100.0" y="1036.0"/>
      <point x="140.0" y="1076.0"/>
    </contour>
  </outline>
</glyph>
<glyph name="semicolon" format="2">
	<unicode hex="003B"/>
	<advance height="2048" width="459"/>
	<outline>
		<contour>
			<point x="172" y="-195" type="curve" smooth="yes"/>
			<point x="147" y="-201"/>
			<point x="117" y="-196"/>
			<point x="105" y="-184" type="curve" smooth="yes"/>
			<point x="93" y="-171"/>
			<point x="103" y="-157"/>
			<point x="128" y="-150" type="curve"/>
			<point x="168" y="-141"/>
			<point x="206" y="-108"/>
			<point x="230" y="-71" type="curve" smooth="yes"/>
			<point x="244" y="-49"/>
			<point x="255" y="-20"/>
			<point x="261" y="9" type="curve"/>
			<point x="258" y="9"/>
			<point x="255" y="9"/>
			<point x="252" y="9" type="curve" smooth="yes"/>
			<point x="202" y="9"/>
			<point x="162" y="49"/>
			<point x="162" y="99" type="curve" smooth="yes"/>
			<point x="162" y="148"/>
			<point x="202" y="188"/>
			<point x="252" y="188" type="curve" smooth="yes"/>
			<point x="279" y="188"/>
			<point x="309" y="177"/>
			<point x="327" y="157" type="curve" smooth="yes"/>
			<point x="360" y="120"/>
			<point x="365" y="64"/>
			<point x="354" y="9" type="curve" smooth="yes"/>
			<point x="343" y="-45"/>
			<point x="317" y="-97"/>
			<point x="286" y="-130" type="curve" smooth="yes"/>
			<point x="257" y="-161"/>
			<point x="219" y="-184"/>
		</contour>
		<contour>
			<point x="251" y="936" type="curve" smooth="yes"/>
			<point x="301" y="936"/>
			<point x="341" y="896"/>
			<point x="341" y="846" type="curve" smooth="yes"/>
			<point x="341" y="797"/>
			<point x="301" y="756"/>
			<point x="251" y="756" type="curve" smooth="yes"/>
			<point x="201" y="756"/>
			<point x="161" y="797"/>
			<point x="161" y="846" type="curve" smooth="yes"/>
			<point x="161" y="896"/>
			<point x="201" y="936"/>
		</contour>
	</outline>
</glyph>
<glyph name="less" format="2">
	<unicode hex="003C"/>
	<advance height="2048" width="1196"/>
	<outline>
		<contour>
			<point x="960" y="1013" type="line" smooth="yes"/>
			<point x="993" y="1030"/>
			<point x="1045" y="1029"/>
			<point x="1075" y="1010" type="curve" smooth="yes"/>
			<point x="1105" y="992"/>
			<point x="1103" y="963"/>
			<point x="1070" y="946" type="curve" smooth="yes"/>
			<point x="301" y="552" type="line"/>
			<point x="1070" y="159" type="line" smooth="yes"/>
			<point x="1103" y="142"/>
			<point x="1105" y="113"/>
			<point x="1075" y="95" type="curve" smooth="yes"/>
			<point x="1045" y="76"/>
			<point x="993" y="75"/>
			<point x="960" y="92" type="curve" smooth="yes"/>
			<point x="126" y="519" type="line" smooth="yes"/>
			<point x="92" y="537"/>
			<point x="91" y="568"/>
			<point x="126" y="586" type="curve" smooth="yes"/>
		</contour>
	</outline>
</glyph>
<glyph name="equal" format="2">
  <advance width="1065.0"/>
  <unicode hex="003D"/>
  <outline>
    <contour>
      <point x="180.0" y="700.7535668965518" type="line" smooth="yes"/>
      <point x="135.99999999999994" y="700.7535668965518"/>
      <point x="100.0" y="718.7535668965518"/>
      <point x="100.0" y="740.7535668965518" type="curve" smooth="yes"/>
      <point x="100.0" y="762.7535668965518"/>
      <point x="135.99999999999994" y="780.7535668965518"/>
      <point x="180.0" y="780.7535668965518" type="curve" smooth="yes"/>
      <point x="885.0" y="780.7535668965518" type="line" smooth="yes"/>
      <point x="929.0" y="780.7535668965518"/>
      <point x="965.0" y="762.7535668965518"/>
      <point x="965.0" y="740.7535668965518" type="curve" smooth="yes"/>
      <point x="965.0" y="718.7535668965518"/>
      <point x="929.0" y="700.7535668965518"/>
      <point x="885.0" y="700.7535668965518" type="curve" smooth="yes"/>
    </contour>
    <contour>
      <point x="180.0" y="380.75356689655183" type="line" smooth="yes"/>
      <point x="135.99999999999994" y="380.75356689655183"/>
      <point x="100.0" y="398.75356689655183"/>
      <point x="100.0" y="420.75356689655183" type="curve" smooth="yes"/>
      <point x="100.0" y="442.75356689655183"/>
      <point x="135.99999999999994" y="460.75356689655183"/>
      <point x="180.0" y="460.75356689655183" type="curve" smooth="yes"/>
      <point x="885.0" y="460.75356689655183" type="line" smooth="yes"/>
      <point x="929.0" y="460.75356689655183"/>
      <point x="965.0" y="442.75356689655183"/>
      <point x="965.0" y="420.75356689655183" type="curve" smooth="yes"/>
      <point x="965.0" y="398.75356689655183"/>
      <point x="929.0" y="380.75356689655183"/>
      <point x="885.0" y="380.75356689655183" type="curve" smooth="yes"/>
    </contour>
  </outline>
</glyph>
<glyph name="question" format="2">
  <advance width="1073.0"/>
  <unicode hex="003F"/>
  <outline>
    <contour>
      <point x="239.0" y="976.1392081736909" type="curve" smooth="yes"/>
      <point x="239.0" y="957.1392081736909"/>
      <point x="208.0" y="941.1392081736909"/>
      <point x="170.0" y="941.1392081736909" type="curve" smooth="yes"/>
      <point x="131.0" y="941.1392081736909"/>
      <point x="100.0" y="957.1392081736909"/>
      <point x="100.0" y="976.1392081736909" type="curve" smooth="yes"/>
      <point x="100.0" y="1067.139208173691"/>
      <point x="126.0" y="1160.139208173691"/>
      <point x="183.0" y="1231.139208173691" type="curve" smooth="yes"/>
      <point x="272.0" y="1343.139208173691"/>
      <point x="410.0" y="1377.139208173691"/>
      <point x="546.0" y="1377.139208173691" type="curve" smooth="yes"/>
      <point x="675.0" y="1377.139208173691"/>
      <point x="807.0" y="1332.139208173691"/>
      <point x="892.0" y="1231.139208173691" type="curve" smooth="yes"/>
      <point x="943.0" y="1170.139208173691"/>
      <point x="973.0" y="1093.139208173691"/>
      <point x="973.0" y="1005.139208173691" type="curve" smooth="yes"/>
      <point x="973.0" y="916.1392081736909"/>
      <point x="946.0" y="841.1392081736909"/>
      <point x="895.0" y="768.1392081736909" type="curve" smooth="yes"/>
      <point x="860.0" y="719.1392081736909"/>
      <point x="818.0" y="676.1392081736909"/>
      <point x="774.0" y="634.1392081736909" type="curve" smooth="yes"/>
      <point x="715.0" y="576.1392081736909"/>
      <point x="672.0" y="535.1392081736909"/>
      <point x="644.0" y="491.1392081736909" type="curve" smooth="yes"/>
      <point x="605.0" y="430.1392081736909"/>
      <point x="594.0" y="364.1392081736909"/>
      <point x="601.0" y="241.13920817369092" type="curve" smooth="yes"/>
      <point x="602.0" y="222.13920817369095"/>
      <point x="571.0" y="206.13920817369095"/>
      <point x="533.0" y="205.13920817369095" type="curve" smooth="yes"/>
      <point x="494.0" y="204.13920817369095"/>
      <point x="462.0" y="220.13920817369095"/>
      <point x="461.0" y="239.13920817369092" type="curve" smooth="yes"/>
      <point x="454.0" y="373.1392081736909"/>
      <point x="468.0" y="447.1392081736909"/>
      <point x="513.0" y="515.1392081736909" type="curve" smooth="yes"/>
      <point x="544.0" y="562.1392081736909"/>
      <point x="588.0" y="606.1392081736909"/>
      <point x="650.0" y="666.1392081736909" type="curve" smooth="yes"/>
      <point x="691.0" y="706.1392081736909"/>
      <point x="730.0" y="745.1392081736909"/>
      <point x="763.0" y="792.1392081736909" type="curve" smooth="yes"/>
      <point x="809.0" y="856.1392081736909"/>
      <point x="833.0" y="926.1392081736909"/>
      <point x="834.0" y="1005.139208173691" type="curve" smooth="yes"/>
      <point x="834.0" y="1083.139208173691"/>
      <point x="807.0" y="1152.139208173691"/>
      <point x="763.0" y="1204.139208173691" type="curve" smooth="yes"/>
      <point x="709.0" y="1268.139208173691"/>
      <point x="630.0" y="1307.139208173691"/>
      <point x="546.0" y="1307.139208173691" type="curve" smooth="yes"/>
      <point x="455.0" y="1307.139208173691"/>
      <point x="371.0" y="1279.139208173691"/>
      <point x="313.0" y="1206.139208173691" type="curve" smooth="yes"/>
      <point x="261.0" y="1142.139208173691"/>
      <point x="239.0" y="1057.139208173691"/>
    </contour>
    <contour>
      <point x="530.0" y="132.13920817369095" type="curve" smooth="yes"/>
      <point x="573.0" y="132.13920817369095"/>
      <point x="608.0" y="97.13920817369095"/>
      <point x="608.0" y="54.139208173690946" type="curve" smooth="yes"/>
      <point x="608.0" y="11.139208173690946"/>
      <point x="573.0" y="-23.860791826309054"/>
      <point x="530.0" y="-23.860791826309054" type="curve" smooth="yes"/>
      <point x="487.0" y="-23.860791826309054"/>
      <point x="452.0" y="11.139208173690946"/>
      <point x="452.0" y="54.139208173690946" type="curve" smooth="yes"/>
      <point x="452.0" y="97.13920817369095"/>
      <point x="487.0" y="132.13920817369095"/>
    </contour>
  </outline>
</glyph>
<glyph name="at" format="2">
  <advance height="2048" width="1947.0"/>
  <unicode hex="0040"/>
  <outline>
    <contour>
      <point x="520.0" y="495.0" type="curve" smooth="yes"/>
      <point x="547.0" y="748.0"/>
      <point x="717.0" y="941.0"/>
      <point x="990.0" y="910.0" type="curve" smooth="yes"/>
      <point x="1113.0" y="896.0"/>
      <point x="1197.0" y="840.0"/>
      <point x="1250.0" y="760.0" type="curve"/>
      <point x="1257.0" y="803.0"/>
      <point x="1262.0" y="841.0"/>
      <point x="1265.0" y="870.0" type="curve" smooth="yes"/>
      <point x="1267.0" y="895.0"/>
      <point x="1305.0" y="914.0"/>
      <point x="1350.0" y="913.0" type="curve" smooth="yes"/>
      <point x="1395.0" y="912.0"/>
      <point x="1429.0" y="890.0"/>
      <point x="1427.0" y="865.0" type="curve" smooth="yes"/>
      <point x="1422.0" y="810.0"/>
      <point x="1406.0" y="716.0"/>
      <point x="1389.0" y="614.0" type="curve" smooth="yes"/>
      <point x="1370.0" y="498.0"/>
      <point x="1349.0" y="373.0"/>
      <point x="1342.0" y="288.0" type="curve" smooth="yes"/>
      <point x="1337.0" y="238.0"/>
      <point x="1346.0" y="74.0"/>
      <point x="1417.0" y="68.0" type="curve" smooth="yes"/>
      <point x="1482.0" y="62.0"/>
      <point x="1546.0" y="126.0"/>
      <point x="1580.0" y="174.0" type="curve" smooth="yes"/>
      <point x="1654.0" y="276.0"/>
      <point x="1684.0" y="404.0"/>
      <point x="1685.0" y="528.0" type="curve" smooth="yes"/>
      <point x="1686.0" y="787.0"/>
      <point x="1600.0" y="978.0"/>
      <point x="1468.0" y="1104.0" type="curve" smooth="yes"/>
      <point x="1343.0" y="1224.0"/>
      <point x="1174.0" y="1285.0"/>
      <point x="1002.0" y="1286.0" type="curve" smooth="yes"/>
      <point x="817.0" y="1287.0"/>
      <point x="628.0" y="1218.0"/>
      <point x="486.0" y="1074.0" type="curve" smooth="yes"/>
      <point x="358.0" y="943.0"/>
      <point x="271.0" y="752.0"/>
      <point x="263.0" y="495.0" type="curve" smooth="yes"/>
      <point x="259.0" y="372.0"/>
      <point x="275.0" y="263.0"/>
      <point x="305.0" y="168.0" type="curve" smooth="yes"/>
      <point x="357.0" y="9.0"/>
      <point x="450.0" y="-111.0"/>
      <point x="566.0" y="-192.0" type="curve" smooth="yes"/>
      <point x="674.0" y="-267.0"/>
      <point x="801.0" y="-307.0"/>
      <point x="927.0" y="-311.0" type="curve" smooth="yes"/>
      <point x="1006.0" y="-313.0"/>
      <point x="1085.0" y="-302.0"/>
      <point x="1161.0" y="-278.0" type="curve" smooth="yes"/>
      <point x="1200.0" y="-265.0"/>
      <point x="1250.0" y="-273.0"/>
      <point x="1272.0" y="-294.0" type="curve" smooth="yes"/>
      <point x="1294.0" y="-316.0"/>
      <point x="1281.0" y="-344.0"/>
      <point x="1242.0" y="-356.0" type="curve" smooth="yes"/>
      <point x="1138.0" y="-390.0"/>
      <point x="1028.0" y="-405.0"/>
      <point x="919.0" y="-402.0" type="curve" smooth="yes"/>
      <point x="746.0" y="-397.0"/>
      <point x="578.0" y="-346.0"/>
      <point x="439.0" y="-249.0" type="curve" smooth="yes"/>
      <point x="308.0" y="-157.0"/>
      <point x="202.0" y="-24.0"/>
      <point x="146.0" y="152.0" type="curve" smooth="yes"/>
      <point x="113.0" y="253.0"/>
      <point x="97.0" y="368.0"/>
      <point x="101.0" y="497.0" type="curve" smooth="yes"/>
      <point x="109.0" y="769.0"/>
      <point x="203.0" y="975.0"/>
      <point x="344.0" y="1118.0" type="curve" smooth="yes"/>
      <point x="517.0" y="1294.0"/>
      <point x="760.0" y="1378.0"/>
      <point x="1002.0" y="1377.0" type="curve" smooth="yes"/>
      <point x="1224.0" y="1376.0"/>
      <point x="1447.0" y="1305.0"/>
      <point x="1609.0" y="1150.0" type="curve" smooth="yes"/>
      <point x="1753.0" y="1011.0"/>
      <point x="1848.0" y="805.0"/>
      <point x="1847.0" y="528.0" type="curve" smooth="yes"/>
      <point x="1846.0" y="392.0"/>
      <point x="1812.0" y="252.0"/>
      <point x="1731.0" y="140.0" type="curve" smooth="yes"/>
      <point x="1663.0" y="45.0"/>
      <point x="1561.0" y="-21.0"/>
      <point x="1426.0" y="-23.0" type="curve" smooth="yes"/>
      <point x="1299.0" y="-25.0"/>
      <point x="1239.0" y="25.0"/>
      <point x="1214.0" y="102.0" type="curve"/>
      <point x="1152.0" y="24.0"/>
      <point x="1063.0" y="-24.0"/>
      <point x="943.0" y="-24.0" type="curve" smooth="yes"/>
      <point x="642.0" y="-26.0"/>
      <point x="492.0" y="221.0"/>
    </contour>
    <contour>
      <point x="941.0" y="67.0" type="curve" smooth="yes"/>
      <point x="1098.0" y="70.0"/>
      <point x="1179.0" y="265.0"/>
      <point x="1193.0" y="399.0" type="curve" smooth="yes"/>
      <point x="1210.0" y="562.0"/>
      <point x="1151.0" y="799.0"/>
      <point x="958.0" y="821.0" type="curve" smooth="yes"/>
      <point x="787.0" y="840.0"/>
      <point x="698.0" y="632.0"/>
      <point x="683.0" y="490.0" type="curve" smooth="yes"/>
      <point x="665.0" y="322.0"/>
      <point x="734.0" y="64.0"/>
    </contour>
  </outline>
</glyph>
<glyph name="A" format="2">
  <advance width="1401.4338374490542"/>
  <unicode hex="0041"/>
  <outline>
    <contour>
      <point x="662.3562781113059" y="1182.0" type="line"/>
      <point x="393.35627811130587" y="533.0" type="line"/>
      <point x="938.3562781113059" y="533.0" type="line"/>
    </contour>
    <contour>
      <point x="356.35627811130587" y="443.0" type="line"/>
      <point x="173.35627811130587" y="1.0" type="line" smooth="yes"/>
      <point x="166.32343166966558" y="-15.98643785354301"/>
      <point x="133.35627811130587" y="-27.0"/>
      <point x="99.35627811130585" y="-23.0" type="curve" smooth="yes"/>
      <point x="65.35627811130585" y="-20.0"/>
      <point x="44.31250033752234" y="-2.9819078690720744"/>
      <point x="51.356278111305855" y="14.0" type="curve" smooth="yes"/>
      <point x="601.3562781113059" y="1340.0" type="line"/>
      <point x="607.3562781113059" y="1368.0"/>
      <point x="652.3562781113059" y="1382.0"/>
      <point x="698.3562781113059" y="1382.0" type="curve" smooth="yes"/>
      <point x="740.3562781113059" y="1382.0"/>
      <point x="782.3193776518642" y="1369.9843573766404"/>
      <point x="793.3562781113059" y="1344.0" type="curve" smooth="yes"/>
      <point x="1349.3562781113058" y="35.0" type="line" smooth="yes"/>
      <point x="1360.3931785683678" y="9.015642629075273"/>
      <point x="1326.3562781113058" y="-17.0"/>
      <point x="1273.3562781113058" y="-23.0" type="curve" smooth="yes"/>
      <point x="1221.3562781113058" y="-28.0"/>
      <point x="1169.4037844083157" y="-10.979849973207934"/>
      <point x="1158.3562781113058" y="15.0" type="curve" smooth="yes"/>
      <point x="976.3562781113059" y="443.0" type="line"/>
    </contour>
  </outline>
</glyph>
<glyph name="B" format="2">
  <advance width="1279.0"/>
  <unicode hex="0042"/>
  <outline>
    <contour>
      <point x="190.0" y="1380.4608554380852" type="curve" smooth="yes"/>
      <point x="735.0" y="1380.4608554380852" type="line"/>
      <point x="735.0" y="1380.4608554380852" type="line"/>
      <point x="926.0" y="1380.4608554380852"/>
      <point x="1043.0" y="1281.4608554380852"/>
      <point x="1090.0" y="1153.4608554380852" type="curve" smooth="yes"/>
      <point x="1106.0" y="1108.4608554380852"/>
      <point x="1114.0" y="1060.4608554380852"/>
      <point x="1114.0" y="1013.4608554380852" type="curve" smooth="yes"/>
      <point x="1114.0" y="965.4608554380852"/>
      <point x="1106.0" y="917.4608554380852"/>
      <point x="1090.0" y="872.4608554380852" type="curve" smooth="yes"/>
      <point x="1065.0" y="806.4608554380852"/>
      <point x="1021.9999999999999" y="746.4608554380852"/>
      <point x="957.9999999999999" y="705.4608554380852" type="curve"/>
      <point x="1057.0" y="666.4608554380852"/>
      <point x="1122.0" y="593.4608554380852"/>
      <point x="1154.0" y="507.4608554380852" type="curve" smooth="yes"/>
      <point x="1171.0" y="462.4608554380852"/>
      <point x="1179.0" y="414.4608554380852"/>
      <point x="1179.0" y="367.4608554380852" type="curve" smooth="yes"/>
      <point x="1179.0" y="319.4608554380852"/>
      <point x="1171.0" y="271.4608554380852"/>
      <point x="1154.0" y="226.46085543808522" type="curve" smooth="yes"/>
      <point x="1106.0" y="98.46085543808522"/>
      <point x="985.9999999999999" y="-0.5391445619147817"/>
      <point x="790.0" y="-0.5391445619147817" type="curve" smooth="yes"/>
      <point x="190.0" y="-0.5391445619147817" type="line" smooth="yes"/>
      <point x="140.0" y="-0.5391445619147817"/>
      <point x="100.0" y="19.46085543808522"/>
      <point x="100.0" y="44.46085543808522" type="curve" smooth="yes"/>
      <point x="100.0" y="474.4608554380852"/>
      <point x="100.0" y="905.4608554380852"/>
      <point x="100.0" y="1336.4608554380852" type="curve" smooth="yes"/>
      <point x="100.0" y="1372.4608554380852"/>
      <point x="172.0" y="1380.4608554380852"/>
    </contour>
    <contour>
      <point x="280.0" y="735.4608554380852" type="line"/>
      <point x="742.0" y="735.4608554380852" type="line" smooth="yes"/>
      <point x="825.0541991713844" y="735.4608554380852"/>
      <point x="883.0" y="804.4608554380852"/>
      <point x="913.0" y="888.4608554380852" type="curve" smooth="yes"/>
      <point x="927.0" y="927.4608554380852"/>
      <point x="934.0" y="969.4608554380852"/>
      <point x="934.0" y="1013.4608554380852" type="curve" smooth="yes"/>
      <point x="934.0" y="1056.4608554380852"/>
      <point x="927.0" y="1098.4608554380852"/>
      <point x="913.0" y="1137.4608554380852" type="curve" smooth="yes"/>
      <point x="882.0" y="1223.4608554380852"/>
      <point x="821.0" y="1291.4608554380852"/>
      <point x="735.0" y="1291.4608554380852" type="curve"/>
      <point x="735.0" y="1291.4608554380852" type="line"/>
      <point x="280.0" y="1291.4608554380852" type="line"/>
    </contour>
    <contour>
      <point x="790.0" y="645.4608554380852" type="curve" smooth="yes"/>
      <point x="280.0" y="645.4608554380852" type="line"/>
      <point x="280.0" y="88.46085543808522" type="line"/>
      <point x="790.0" y="88.46085543808522" type="line" smooth="yes"/>
      <point x="881.0" y="88.46085543808522"/>
      <point x="945.0" y="156.46085543808522"/>
      <point x="976.9999999999999" y="243.46085543808522" type="curve" smooth="yes"/>
      <point x="991.9999999999999" y="281.4608554380852"/>
      <point x="998.9999999999999" y="324.4608554380852"/>
      <point x="998.9999999999999" y="367.4608554380852" type="curve" smooth="yes"/>
      <point x="998.9999999999999" y="409.4608554380852"/>
      <point x="991.9999999999999" y="452.4608554380852"/>
      <point x="976.9999999999999" y="490.4608554380852" type="curve" smooth="yes"/>
      <point x="945.0" y="577.4608554380852"/>
      <point x="881.0" y="645.4608554380852"/>
    </contour>
  </outline>
</glyph>
<glyph name="C" format="2">
  <advance width="1430.3095343330558"/>
  <unicode hex="0043"/>
  <outline>
    <contour>
      <point x="1328.0133949932501" y="405.6026165900215" type="curve" smooth="yes"/>
      <point x="1331.0133949932501" y="430.6026165900215"/>
      <point x="1293.0133949932501" y="451.6026165900215"/>
      <point x="1244.0133949932501" y="452.6026165900215" type="curve" smooth="yes"/>
      <point x="1194.0133949932501" y="454.6026165900215"/>
      <point x="1152.0133949932501" y="435.6026165900215"/>
      <point x="1149.0133949932501" y="410.6026165900215" type="curve" smooth="yes"/>
      <point x="1135.0133949932501" y="300.6026165900215"/>
      <point x="1080.0133949932501" y="214.6026165900215"/>
      <point x="1004.01339499325" y="154.6026165900215" type="curve" smooth="yes"/>
      <point x="929.01339499325" y="95.60261659002151"/>
      <point x="837.01339499325" y="64.60261659002151"/>
      <point x="751.01339499325" y="65.60261659002151" type="curve" smooth="yes"/>
      <point x="617.01339499325" y="67.60261659002151"/>
      <point x="508.01339499325" y="125.60261659002151"/>
      <point x="428.01339499325" y="220.6026165900215" type="curve" smooth="yes"/>
      <point x="329.01339499325" y="337.6026165900215"/>
      <point x="280.01339499325" y="510.6026165900215"/>
      <point x="280.01339499325" y="683.6026165900215" type="curve" smooth="yes"/>
      <point x="280.01339499325" y="849.6026165900216"/>
      <point x="326.01339499325" y="1014.6026165900216"/>
      <point x="416.01339499325" y="1129.6026165900216" type="curve" smooth="yes"/>
      <point x="500.01339499325" y="1235.6026165900216"/>
      <point x="618.01339499325" y="1289.6026165900216"/>
      <point x="738.01339499325" y="1290.6026165900216" type="curve" smooth="yes"/>
      <point x="829.01339499325" y="1290.6026165900216"/>
      <point x="921.01339499325" y="1260.6026165900216"/>
      <point x="1000.01339499325" y="1197.6026165900216" type="curve" smooth="yes"/>
      <point x="1077.0133949932501" y="1137.6026165900216"/>
      <point x="1134.0133949932501" y="1051.6026165900216"/>
      <point x="1151.0133949932501" y="944.6026165900216" type="curve" smooth="yes"/>
      <point x="1155.0133949932501" y="920.6026165900216"/>
      <point x="1198.0133949932501" y="901.6026165900216"/>
      <point x="1248.0133949932501" y="903.6026165900216" type="curve" smooth="yes"/>
      <point x="1297.0133949932501" y="905.6026165900216"/>
      <point x="1334.0133949932501" y="927.6026165900216"/>
      <point x="1330.0133949932501" y="951.6026165900216" type="curve" smooth="yes"/>
      <point x="1310.0133949932501" y="1074.6026165900216"/>
      <point x="1243.0133949932501" y="1174.6026165900216"/>
      <point x="1152.0133949932501" y="1245.6026165900216" type="curve" smooth="yes"/>
      <point x="1038.0133949932501" y="1335.6026165900216"/>
      <point x="890.01339499325" y="1381.6026165900216"/>
      <point x="742.01339499325" y="1381.6026165900216" type="curve" smooth="yes"/>
      <point x="553.01339499325" y="1382.6026165900216"/>
      <point x="366.01339499325" y="1310.6026165900216"/>
      <point x="249.01339499325" y="1161.6026165900216" type="curve" smooth="yes"/>
      <point x="151.01339499325" y="1037.6026165900216"/>
      <point x="102.01339499324999" y="864.6026165900216"/>
      <point x="100.01339499324999" y="690.6026165900215" type="curve" smooth="yes"/>
      <point x="99.01339499324999" y="502.6026165900215"/>
      <point x="154.01339499325" y="313.6026165900215"/>
      <point x="262.01339499325" y="185.6026165900215" type="curve" smooth="yes"/>
      <point x="371.01339499325" y="58.60261659002151"/>
      <point x="533.01339499325" y="-20.39738340997846"/>
      <point x="746.01339499325" y="-23.39738340997846" type="curve" smooth="yes"/>
      <point x="895.01339499325" y="-26.39738340997846"/>
      <point x="1045.0133949932501" y="19.60261659002154"/>
      <point x="1156.0133949932501" y="107.60261659002151" type="curve" smooth="yes"/>
      <point x="1247.0133949932501" y="178.6026165900215"/>
      <point x="1312.0133949932501" y="279.6026165900215"/>
    </contour>
  </outline>
</glyph>
<glyph name="D" format="2">
  <advance width="1354.0"/>
  <unicode hex="0044"/>
  <outline>
    <contour>
      <point x="190.0" y="0.0" type="curve" smooth="yes"/>
      <point x="643.0" y="0.0" type="line" smooth="yes"/>
      <point x="946.0" y="0.0"/>
      <point x="1135.0" y="186.0"/>
      <point x="1212.0" y="423.0" type="curve" smooth="yes"/>
      <point x="1240.0" y="508.0"/>
      <point x="1254.0" y="601.0"/>
      <point x="1254.0" y="694.0" type="curve" smooth="yes"/>
      <point x="1254.0" y="787.0"/>
      <point x="1241.0" y="880.0"/>
      <point x="1213.0" y="965.0" type="curve" smooth="yes"/>
      <point x="1136.0" y="1200.0"/>
      <point x="948.0" y="1382.0"/>
      <point x="643.0" y="1382.0" type="curve" smooth="yes"/>
      <point x="190.0" y="1382.0" type="line" smooth="yes"/>
      <point x="140.0" y="1382.0"/>
      <point x="100.0" y="1362.0"/>
      <point x="100.0" y="1337.0" type="curve" smooth="yes"/>
      <point x="100.0" y="45.0" type="line" smooth="yes"/>
      <point x="100.0" y="20.0"/>
      <point x="140.0" y="0.0"/>
    </contour>
    <contour>
      <point x="643.0" y="90.0" type="curve" smooth="yes"/>
      <point x="280.0" y="90.0" type="line"/>
      <point x="280.0" y="1292.0" type="line"/>
      <point x="643.0" y="1292.0" type="line" smooth="yes"/>
      <point x="841.0" y="1292.0"/>
      <point x="973.0" y="1143.0"/>
      <point x="1035.0" y="951.0" type="curve" smooth="yes"/>
      <point x="1062.0" y="870.0"/>
      <point x="1075.0" y="782.0"/>
      <point x="1075.0" y="694.0" type="curve" smooth="yes"/>
      <point x="1075.0" y="606.0"/>
      <point x="1062.0" y="518.0"/>
      <point x="1035.0" y="437.0" type="curve" smooth="yes"/>
      <point x="971.0" y="243.0"/>
      <point x="839.0" y="90.0"/>
    </contour>
  </outline>
</glyph>
<glyph name="E" format="2">
  <advance height="2048" width="1269.0"/>
  <unicode hex="0045"/>
  <outline>
    <contour>
      <point x="130.0" y="14.0" type="curve" smooth="yes"/>
      <point x="112.0" y="24.0"/>
      <point x="100.0" y="35.0"/>
      <point x="100.0" y="49.0" type="curve" smooth="yes"/>
      <point x="100.0" y="1308.0" type="line" smooth="yes"/>
      <point x="100.0" y="1322.0"/>
      <point x="113.0" y="1334.0"/>
      <point x="131.0" y="1343.0" type="curve" smooth="yes"/>
      <point x="146.0" y="1351.0"/>
      <point x="166.0" y="1357.0"/>
      <point x="189.0" y="1357.0" type="curve" smooth="yes"/>
      <point x="1087.0" y="1357.0" type="line" smooth="yes"/>
      <point x="1132.0" y="1357.0"/>
      <point x="1169.0" y="1337.0"/>
      <point x="1169.0" y="1311.0" type="curve" smooth="yes"/>
      <point x="1169.0" y="1286.0"/>
      <point x="1132.0" y="1266.0"/>
      <point x="1087.0" y="1266.0" type="curve" smooth="yes"/>
      <point x="263.0" y="1266.0" type="line"/>
      <point x="263.0" y="725.0" type="line"/>
      <point x="960.0" y="725.0" type="line" smooth="yes"/>
      <point x="1005.0" y="725.0"/>
      <point x="1041.0" y="704.0"/>
      <point x="1041.0" y="679.0" type="curve" smooth="yes"/>
      <point x="1041.0" y="654.0"/>
      <point x="1005.0" y="634.0"/>
      <point x="960.0" y="634.0" type="curve" smooth="yes"/>
      <point x="263.0" y="634.0" type="line"/>
      <point x="263.0" y="91.0" type="line"/>
      <point x="1087.0" y="91.0" type="line" smooth="yes"/>
      <point x="1132.0" y="91.0"/>
      <point x="1169.0" y="71.0"/>
      <point x="1169.0" y="46.0" type="curve" smooth="yes"/>
      <point x="1169.0" y="20.0"/>
      <point x="1132.0" y="0.0"/>
      <point x="1087.0" y="0.0" type="curve" smooth="yes"/>
      <point x="189.0" y="0.0" type="line" smooth="yes"/>
      <point x="166.0" y="0.0"/>
      <point x="145.0" y="6.0"/>
    </contour>
  </outline>
</glyph>
<glyph name="E" format="2">
  <advance width="1207.0"/>
  <unicode hex="0045"/>
  <outline>
    <contour>
      <point x="177.0" y="1377.6682269784376" type="line" smooth="yes"/>
      <point x="135.00000000000006" y="1377.6682269784376"/>
      <point x="100.0" y="1359.6682269784376"/>
      <point x="100.0" y="1336.6682269784376" type="curve" smooth="yes"/>
      <point x="100.0" y="41.66822697843759" type="line" smooth="yes"/>
      <point x="100.0" y="18.668226978437588"/>
      <point x="135.00000000000006" y="0.6682269784375876"/>
      <point x="177.0" y="0.6682269784375876" type="curve" smooth="yes"/>
      <point x="1029.0" y="0.6682269784375876" type="line" smooth="yes"/>
      <point x="1071.0" y="0.6682269784375876"/>
      <point x="1107.0" y="17.668226978437588"/>
      <point x="1107.0" y="39.66822697843759" type="curve" smooth="yes"/>
      <point x="1107.0" y="60.66822697843759"/>
      <point x="1071.0" y="77.66822697843759"/>
      <point x="1029.0" y="77.66822697843759" type="curve" smooth="yes"/>
      <point x="255.0" y="77.66822697843759" type="line"/>
      <point x="255.0" y="649.6682269784376" type="line"/>
      <point x="908.0" y="649.6682269784376" type="line" smooth="yes"/>
      <point x="951.0" y="649.6682269784376"/>
      <point x="987.0" y="666.6682269784376"/>
      <point x="987.0" y="688.6682269784376" type="curve" smooth="yes"/>
      <point x="987.0" y="709.6682269784376"/>
      <point x="951.0" y="726.6682269784376"/>
      <point x="908.0" y="726.6682269784376" type="curve" smooth="yes"/>
      <point x="255.0" y="726.6682269784376" type="line"/>
      <point x="255.0" y="1300.6682269784376" type="line"/>
      <point x="1029.0" y="1300.6682269784376" type="line" smooth="yes"/>
      <point x="1071.0" y="1300.6682269784376"/>
      <point x="1107.0" y="1317.6682269784376"/>
      <point x="1107.0" y="1338.6682269784376" type="curve" smooth="yes"/>
      <point x="1107.0" y="1360.6682269784376"/>
      <point x="1071.0" y="1377.6682269784376"/>
      <point x="1029.0" y="1377.6682269784376" type="curve" smooth="yes"/>
    </contour>
  </outline>
</glyph>
<glyph name="F" format="2">
  <advance height="2048" width="1153.0"/>
  <unicode hex="0046"/>
  <outline>
    <contour>
      <point x="263.0" y="21.0" type="line" smooth="yes"/>
      <point x="263.0" y="-4.0"/>
      <point x="226.0" y="-24.0"/>
      <point x="181.0" y="-24.0" type="curve" smooth="yes"/>
      <point x="136.0" y="-24.0"/>
      <point x="100.0" y="-4.0"/>
      <point x="100.0" y="21.0" type="curve" smooth="yes"/>
      <point x="100.0" y="1312.0" type="line" smooth="yes"/>
      <point x="100.0" y="1337.0"/>
      <point x="136.0" y="1357.0"/>
      <point x="181.0" y="1357.0" type="curve" smooth="yes"/>
      <point x="1022.0" y="1357.0" type="line" smooth="yes"/>
      <point x="1067.0" y="1357.0"/>
      <point x="1103.0" y="1337.0"/>
      <point x="1103.0" y="1312.0" type="curve" smooth="yes"/>
      <point x="1103.0" y="1286.0"/>
      <point x="1067.0" y="1266.0"/>
      <point x="1022.0" y="1266.0" type="curve" smooth="yes"/>
      <point x="263.0" y="1266.0" type="line"/>
      <point x="263.0" y="717.0" type="line"/>
      <point x="903.0" y="717.0" type="line" smooth="yes"/>
      <point x="948.0" y="717.0"/>
      <point x="985.0" y="697.0"/>
      <point x="985.0" y="672.0" type="curve" smooth="yes"/>
      <point x="985.0" y="647.0"/>
      <point x="948.0" y="626.0"/>
      <point x="903.0" y="626.0" type="curve" smooth="yes"/>
      <point x="263.0" y="626.0" type="line"/>
    </contour>
  </outline>
</glyph>
<glyph name="F" format="2">
  <advance width="1139.0"/>
  <unicode hex="0046"/>
  <outline>
    <contour>
      <point x="255.0" y="17.0" type="line" smooth="yes"/>
      <point x="255.0" y="-6.0"/>
      <point x="220.0" y="-24.0"/>
      <point x="177.0" y="-24.0" type="curve" smooth="yes"/>
      <point x="135.0" y="-24.0"/>
      <point x="100.0" y="-6.0"/>
      <point x="100.0" y="17.0" type="curve" smooth="yes"/>
      <point x="100.0" y="1324.0" type="line" smooth="yes"/>
      <point x="100.0" y="1347.0"/>
      <point x="135.0" y="1365.0"/>
      <point x="177.0" y="1365.0" type="curve" smooth="yes"/>
      <point x="1011.0" y="1365.0" type="line" smooth="yes"/>
      <point x="1053.0" y="1365.0"/>
      <point x="1089.0" y="1348.0"/>
      <point x="1089.0" y="1326.0" type="curve" smooth="yes"/>
      <point x="1089.0" y="1305.0"/>
      <point x="1053.0" y="1288.0"/>
      <point x="1011.0" y="1288.0" type="curve" smooth="yes"/>
      <point x="255.0" y="1288.0" type="line"/>
      <point x="255.0" y="714.0" type="line"/>
      <point x="890.0" y="714.0" type="line" smooth="yes"/>
      <point x="933.0" y="714.0"/>
      <point x="969.0" y="697.0"/>
      <point x="969.0" y="676.0" type="curve" smooth="yes"/>
      <point x="969.0" y="654.0"/>
      <point x="933.0" y="637.0"/>
      <point x="890.0" y="637.0" type="curve" smooth="yes"/>
      <point x="255.0" y="637.0" type="line"/>
    </contour>
  </outline>
</glyph>
<glyph name="G" format="2">
  <advance width="1505.0138865083104"/>
  <unicode hex="0047"/>
  <outline>
    <contour>
      <point x="1403.0138865083104" y="951.0" type="curve" smooth="yes"/>
      <point x="1405.0138865083104" y="930.0"/>
      <point x="1373.0138865083104" y="912.0"/>
      <point x="1331.0138865083104" y="910.0" type="curve" smooth="yes"/>
      <point x="1288.0138865083104" y="909.0"/>
      <point x="1251.0138865083104" y="925.0"/>
      <point x="1248.0138865083104" y="946.0" type="curve" smooth="yes"/>
      <point x="1233.0138865083104" y="1058.0"/>
      <point x="1172.0138865083104" y="1145.0"/>
      <point x="1088.0138865083104" y="1206.0" type="curve" smooth="yes"/>
      <point x="1002.0138865083105" y="1269.0"/>
      <point x="893.0138865083105" y="1301.0"/>
      <point x="790.0138865083105" y="1300.0" type="curve" smooth="yes"/>
      <point x="634.0138865083105" y="1298.0"/>
      <point x="508.0138865083105" y="1237.0"/>
      <point x="417.0138865083105" y="1139.0" type="curve" smooth="yes"/>
      <point x="309.0138865083105" y="1022.0"/>
      <point x="255.01388650831052" y="849.0"/>
      <point x="255.01388650831052" y="676.0" type="curve" smooth="yes"/>
      <point x="254.01388650831052" y="507.0"/>
      <point x="304.0138865083105" y="339.0"/>
      <point x="404.0138865083105" y="221.0" type="curve" smooth="yes"/>
      <point x="505.0138865083105" y="103.0"/>
      <point x="642.0138865083105" y="52.0"/>
      <point x="787.0138865083105" y="53.0" type="curve" smooth="yes"/>
      <point x="890.0138865083105" y="54.0"/>
      <point x="997.0138865083105" y="88.0"/>
      <point x="1084.0138865083104" y="151.0" type="curve" smooth="yes"/>
      <point x="1168.0138865083104" y="212.0"/>
      <point x="1231.0138865083104" y="299.0"/>
      <point x="1251.0138865083104" y="408.0" type="curve"/>
      <point x="1251.0138865083104" y="599.0" type="line"/>
      <point x="800.0138865083105" y="599.0" type="line" smooth="yes"/>
      <point x="757.0138865083105" y="599.0"/>
      <point x="722.0138865083105" y="616.0"/>
      <point x="722.0138865083105" y="637.0" type="curve" smooth="yes"/>
      <point x="722.0138865083105" y="658.0"/>
      <point x="757.0138865083105" y="676.0"/>
      <point x="800.0138865083105" y="676.0" type="curve" smooth="yes"/>
      <point x="1328.0138865083104" y="676.0" type="line" smooth="yes"/>
      <point x="1371.0138865083104" y="676.0"/>
      <point x="1405.0138865083104" y="658.0"/>
      <point x="1405.0138865083104" y="637.0" type="curve" smooth="yes"/>
      <point x="1405.0138865083104" y="408.0" type="line"/>
      <point x="1399.0138865083104" y="294.0"/>
      <point x="1300.0138865083104" y="172.0"/>
      <point x="1211.0138865083104" y="107.0" type="curve" smooth="yes"/>
      <point x="1095.0138865083104" y="24.0"/>
      <point x="942.0138865083105" y="-23.0"/>
      <point x="789.0138865083105" y="-24.0" type="curve" smooth="yes"/>
      <point x="591.0138865083105" y="-26.0"/>
      <point x="397.0138865083105" y="33.0"/>
      <point x="262.0138865083105" y="191.0" type="curve" smooth="yes"/>
      <point x="152.01388650831052" y="319.0"/>
      <point x="99.01388650831052" y="497.0"/>
      <point x="100.01388650831052" y="675.0" type="curve" smooth="yes"/>
      <point x="101.01388650831052" y="860.0"/>
      <point x="160.01388650831052" y="1045.0"/>
      <point x="277.0138865083105" y="1171.0" type="curve" smooth="yes"/>
      <point x="392.0138865083105" y="1296.0"/>
      <point x="564.0138865083105" y="1374.0"/>
      <point x="786.0138865083105" y="1377.0" type="curve" smooth="yes"/>
      <point x="941.0138865083105" y="1379.0"/>
      <point x="1099.0138865083104" y="1335.0"/>
      <point x="1216.0138865083104" y="1249.0" type="curve" smooth="yes"/>
      <point x="1314.0138865083104" y="1178.0"/>
      <point x="1385.0138865083104" y="1077.0"/>
    </contour>
  </outline>
</glyph>
<glyph name="H" format="2">
  <advance width="1311.0"/>
  <unicode hex="0048"/>
  <outline>
    <contour>
      <point x="255.0" y="1338.0" type="line" smooth="yes"/>
      <point x="255.0" y="1359.0"/>
      <point x="220.0" y="1377.0"/>
      <point x="177.0" y="1377.0" type="curve" smooth="yes"/>
      <point x="135.0" y="1377.0"/>
      <point x="100.0" y="1359.0"/>
      <point x="100.0" y="1338.0" type="curve" smooth="yes"/>
      <point x="100.0" y="15.0" type="line" smooth="yes"/>
      <point x="100.0" y="-6.0"/>
      <point x="135.0" y="-24.0"/>
      <point x="177.0" y="-24.0" type="curve" smooth="yes"/>
      <point x="220.0" y="-24.0"/>
      <point x="255.0" y="-6.0"/>
      <point x="255.0" y="15.0" type="curve" smooth="yes"/>
      <point x="255.0" y="638.0" type="line"/>
      <point x="1056.0" y="638.0" type="line"/>
      <point x="1056.0" y="15.0" type="line" smooth="yes"/>
      <point x="1056.0" y="-6.0"/>
      <point x="1091.0" y="-24.0"/>
      <point x="1134.0" y="-24.0" type="curve" smooth="yes"/>
      <point x="1176.0" y="-24.0"/>
      <point x="1211.0" y="-6.0"/>
      <point x="1211.0" y="15.0" type="curve" smooth="yes"/>
      <point x="1211.0" y="1338.0" type="line" smooth="yes"/>
      <point x="1211.0" y="1359.0"/>
      <point x="1176.0" y="1377.0"/>
      <point x="1134.0" y="1377.0" type="curve" smooth="yes"/>
      <point x="1091.0" y="1377.0"/>
      <point x="1056.0" y="1359.0"/>
      <point x="1056.0" y="1338.0" type="curve" smooth="yes"/>
      <point x="1056.0" y="715.0" type="line"/>
      <point x="255.0" y="715.0" type="line"/>
    </contour>
  </outline>
</glyph>
<glyph name="I" format="2">
  <advance width="355.0"/>
  <unicode hex="0049"/>
  <outline>
    <contour>
      <point x="255.0" y="1334.0" type="line" smooth="yes"/>
      <point x="255.0" y="1358.0"/>
      <point x="220.0" y="1377.0"/>
      <point x="178.0" y="1377.0" type="curve" smooth="yes"/>
      <point x="135.0" y="1377.0"/>
      <point x="100.0" y="1358.0"/>
      <point x="100.0" y="1334.0" type="curve" smooth="yes"/>
      <point x="100.0" y="18.0" type="line" smooth="yes"/>
      <point x="100.0" y="-5.0"/>
      <point x="135.0" y="-24.0"/>
      <point x="178.0" y="-24.0" type="curve" smooth="yes"/>
      <point x="220.0" y="-24.0"/>
      <point x="255.0" y="-5.0"/>
      <point x="255.0" y="18.0" type="curve" smooth="yes"/>
    </contour>
  </outline>
</glyph>
<glyph name="J" format="2">
  <advance height="2048" width="861.0"/>
  <unicode hex="004A"/>
  <outline>
    <contour>
      <point x="50.0" y="331.0" type="curve" smooth="yes"/>
      <point x="50.0" y="357.0"/>
      <point x="87.0" y="377.0"/>
      <point x="132.0" y="377.0" type="curve" smooth="yes"/>
      <point x="177.0" y="377.0"/>
      <point x="213.0" y="357.0"/>
      <point x="213.0" y="331.0" type="curve" smooth="yes"/>
      <point x="213.0" y="190.0"/>
      <point x="302.0" y="67.0"/>
      <point x="449.0" y="67.0" type="curve" smooth="yes"/>
      <point x="598.0" y="67.0"/>
      <point x="688.0" y="195.0"/>
      <point x="688.0" y="337.0" type="curve" smooth="yes"/>
      <point x="688.0" y="1336.0" type="line" smooth="yes"/>
      <point x="688.0" y="1361.0"/>
      <point x="724.0" y="1381.0"/>
      <point x="769.0" y="1381.0" type="curve" smooth="yes"/>
      <point x="814.0" y="1381.0"/>
      <point x="851.0" y="1361.0"/>
      <point x="851.0" y="1336.0" type="curve" smooth="yes"/>
      <point x="851.0" y="337.0" type="line" smooth="yes"/>
      <point x="851.0" y="105.0"/>
      <point x="662.0" y="-24.0"/>
      <point x="449.0" y="-24.0" type="curve" smooth="yes"/>
      <point x="238.0" y="-24.0"/>
      <point x="50.0" y="103.0"/>
    </contour>
  </outline>
</glyph>
<glyph name="J" format="2">
  <advance width="1005.0"/>
  <unicode hex="004A"/>
  <outline>
    <contour>
      <point x="50.0" y="336.0" type="curve" smooth="yes"/>
      <point x="50.0" y="357.0"/>
      <point x="85.0" y="375.0"/>
      <point x="128.0" y="375.0" type="curve" smooth="yes"/>
      <point x="170.0" y="375.0"/>
      <point x="205.0" y="357.0"/>
      <point x="205.0" y="336.0" type="curve" smooth="yes"/>
      <point x="205.0" y="255.0"/>
      <point x="241.0" y="182.0"/>
      <point x="298.0" y="130.0" type="curve" smooth="yes"/>
      <point x="348.0" y="85.0"/>
      <point x="412.0" y="57.0"/>
      <point x="477.0" y="57.0" type="curve" smooth="yes"/>
      <point x="542.0" y="57.0"/>
      <point x="606.0" y="86.0"/>
      <point x="656.0" y="132.0" type="curve" smooth="yes"/>
      <point x="714.0" y="185.0"/>
      <point x="750.0" y="260.0"/>
      <point x="750.0" y="341.0" type="curve" smooth="yes"/>
      <point x="750.0" y="1341.0" type="line" smooth="yes"/>
      <point x="750.0" y="1363.0"/>
      <point x="785.0" y="1380.0"/>
      <point x="828.0" y="1380.0" type="curve" smooth="yes"/>
      <point x="870.0" y="1380.0"/>
      <point x="905.0" y="1363.0"/>
      <point x="905.0" y="1341.0" type="curve" smooth="yes"/>
      <point x="905.0" y="341.0" type="line" smooth="yes"/>
      <point x="905.0" y="247.0"/>
      <point x="862.0" y="159.0"/>
      <point x="792.0" y="95.0" type="curve" smooth="yes"/>
      <point x="715.0" y="24.0"/>
      <point x="604.0" y="-21.0"/>
      <point x="477.0" y="-21.0" type="curve" smooth="yes"/>
      <point x="351.0" y="-21.0"/>
      <point x="240.0" y="22.0"/>
      <point x="162.0" y="93.0" type="curve" smooth="yes"/>
      <point x="93.0" y="156.0"/>
      <point x="50.0" y="242.0"/>
    </contour>
  </outline>
</glyph>
<glyph name="K" format="2">
  <advance height="2048" width="1252.0"/>
  <unicode hex="004B"/>
  <outline>
    <contour>
      <point x="100.0" y="1340.0" type="line" smooth="yes"/>
      <point x="100.0" y="1363.0"/>
      <point x="136.0" y="1381.0"/>
      <point x="181.0" y="1381.0" type="curve" smooth="yes"/>
      <point x="226.0" y="1381.0"/>
      <point x="263.0" y="1363.0"/>
      <point x="263.0" y="1340.0" type="curve" smooth="yes"/>
      <point x="263.0" y="612.0" type="line"/>
      <point x="1069.0" y="1363.0" type="line" smooth="yes"/>
      <point x="1087.0" y="1380.0"/>
      <point x="1129.0" y="1386.0"/>
      <point x="1163.0" y="1377.0" type="curve" smooth="yes"/>
      <point x="1197.0" y="1368.0"/>
      <point x="1210.0" y="1347.0"/>
      <point x="1192.0" y="1330.0" type="curve" smooth="yes"/>
      <point x="632.0" y="808.0" type="line"/>
      <point x="1196.0" y="43.0" type="line" smooth="yes"/>
      <point x="1215.0" y="17.0"/>
      <point x="1188.0" y="-12.0"/>
      <point x="1137.0" y="-21.0" type="curve" smooth="yes"/>
      <point x="1085.0" y="-31.0"/>
      <point x="1028.0" y="-17.0"/>
      <point x="1009.0" y="9.0" type="curve" smooth="yes"/>
      <point x="505.0" y="690.0" type="line"/>
      <point x="263.0" y="464.0" type="line"/>
      <point x="263.0" y="17.0" type="line" smooth="yes"/>
      <point x="263.0" y="-6.0"/>
      <point x="226.0" y="-24.0"/>
      <point x="181.0" y="-24.0" type="curve" smooth="yes"/>
      <point x="136.0" y="-24.0"/>
      <point x="100.0" y="-6.0"/>
      <point x="100.0" y="17.0" type="curve" smooth="yes"/>
    </contour>
  </outline>
</glyph>
<glyph name="K" format="2">
  <advance width="1231.8680475167755"/>
  <unicode hex="004B"/>
  <outline>
    <contour>
      <point x="100.0" y="1351.5236270753512" type="line" smooth="yes"/>
      <point x="100.0" y="1372.5236270753512"/>
      <point x="135.0" y="1390.5236270753512"/>
      <point x="177.0" y="1390.5236270753512" type="curve" smooth="yes"/>
      <point x="220.0" y="1390.5236270753512"/>
      <point x="255.0" y="1372.5236270753512"/>
      <point x="255.0" y="1351.5236270753512" type="curve" smooth="yes"/>
      <point x="255.0" y="605.5236270753512" type="line"/>
      <point x="1061.9999999999998" y="1370.5236270753512" type="line" smooth="yes"/>
      <point x="1077.3952695544524" y="1385.1176558351822"/>
      <point x="1112.9999999999998" y="1391.5236270753512"/>
      <point x="1143.0" y="1383.5236270753512" type="curve" smooth="yes"/>
      <point x="1172.0" y="1375.5236270753512"/>
      <point x="1183.3990488973293" y="1357.1136679690214"/>
      <point x="1168.0" y="1342.5236270753512" type="curve" smooth="yes"/>
      <point x="616.0" y="819.5236270753512" type="line"/>
      <point x="1176.0" y="46.523627075351214" type="line" smooth="yes"/>
      <point x="1194.0730395210296" y="21.576377879236134"/>
      <point x="1169.0" y="-5.476372924648786"/>
      <point x="1119.9999999999998" y="-14.476372924648786" type="curve" smooth="yes"/>
      <point x="1069.9999999999998" y="-23.476372924648786"/>
      <point x="1016.0891162462133" y="-10.41196743145565"/>
      <point x="997.9999999999998" y="14.523627075351214" type="curve" smooth="yes"/>
      <point x="496.00000000000006" y="706.5236270753512" type="line"/>
      <point x="255.0" y="477.5236270753512" type="line"/>
      <point x="255.0" y="20.523627075351214" type="line" smooth="yes"/>
      <point x="255.0" y="-0.47637292464878556"/>
      <point x="220.0" y="-18.476372924648786"/>
      <point x="177.0" y="-18.476372924648786" type="curve" smooth="yes"/>
      <point x="135.0" y="-18.476372924648786"/>
      <point x="100.0" y="-0.47637292464878556"/>
      <point x="100.0" y="20.523627075351214" type="curve" smooth="yes"/>
    </contour>
  </outline>
</glyph>
<glyph name="L" format="2">
  <advance width="1067.0"/>
  <unicode hex="004C"/>
  <outline>
    <contour>
      <point x="100.0" y="1352.0" type="line" smooth="yes"/>
      <point x="100.0" y="1372.0"/>
      <point x="135.0" y="1389.0"/>
      <point x="178.0" y="1389.0" type="curve" smooth="yes"/>
      <point x="220.0" y="1389.0"/>
      <point x="255.0" y="1372.0"/>
      <point x="255.0" y="1352.0" type="curve" smooth="yes"/>
      <point x="255.0" y="77.0" type="line"/>
      <point x="938.0" y="77.0" type="line" smooth="yes"/>
      <point x="981.0" y="77.0"/>
      <point x="1017.0" y="60.0"/>
      <point x="1017.0" y="39.0" type="curve" smooth="yes"/>
      <point x="1017.0" y="17.0"/>
      <point x="981.0" y="0.0"/>
      <point x="938.0" y="0.0" type="curve" smooth="yes"/>
      <point x="178.0" y="0.0" type="line" smooth="yes"/>
      <point x="135.0" y="0.0"/>
      <point x="100.0" y="17.0"/>
      <point x="100.0" y="37.0" type="curve" smooth="yes"/>
    </contour>
  </outline>
</glyph>
<glyph name="M" format="2">
  <advance height="2048" width="1549.0"/>
  <unicode hex="004D"/>
  <outline>
    <contour>
      <point x="284.0" y="1347.0" type="curve" smooth="yes"/>
      <point x="805.0" y="163.0" type="line"/>
      <point x="1282.0" y="1347.0" type="line" smooth="yes"/>
      <point x="1289.0" y="1366.0"/>
      <point x="1328.0" y="1380.0"/>
      <point x="1366.0" y="1381.0" type="curve" smooth="yes"/>
      <point x="1408.0" y="1381.0"/>
      <point x="1449.0" y="1366.0"/>
      <point x="1449.0" y="1335.0" type="curve" smooth="yes"/>
      <point x="1449.0" y="20.0" type="line" smooth="yes"/>
      <point x="1449.0" y="-4.0"/>
      <point x="1413.0" y="-24.0"/>
      <point x="1368.0" y="-24.0" type="curve" smooth="yes"/>
      <point x="1323.0" y="-24.0"/>
      <point x="1286.0" y="-4.0"/>
      <point x="1286.0" y="20.0" type="curve" smooth="yes"/>
      <point x="1286.0" y="1057.0" type="line"/>
      <point x="866.0" y="10.0" type="line" smooth="yes"/>
      <point x="857.0" y="-14.0"/>
      <point x="816.0" y="-24.0"/>
      <point x="778.0" y="-24.0" type="curve" smooth="yes"/>
      <point x="738.0" y="-24.0"/>
      <point x="698.0" y="-12.0"/>
      <point x="688.0" y="10.0" type="curve" smooth="yes"/>
      <point x="218.0" y="1073.0" type="line"/>
      <point x="218.0" y="4.0" type="line" smooth="yes"/>
      <point x="218.0" y="-14.0"/>
      <point x="191.0" y="-24.0"/>
      <point x="159.0" y="-24.0" type="curve" smooth="yes"/>
      <point x="126.0" y="-24.0"/>
      <point x="100.0" y="-14.0"/>
      <point x="100.0" y="4.0" type="curve" smooth="yes"/>
      <point x="100.0" y="1335.0" type="line" smooth="yes"/>
      <point x="100.0" y="1361.0"/>
      <point x="145.0" y="1379.0"/>
      <point x="191.0" y="1381.0" type="curve" smooth="yes"/>
      <point x="231.0" y="1383.0"/>
      <point x="272.0" y="1373.0"/>
    </contour>
  </outline>
</glyph>
<glyph name="M" format="2">
  <advance width="1529.0"/>
  <unicode hex="004D"/>
  <outline>
    <contour>
      <point x="294.0" y="1344.0" type="curve" smooth="yes"/>
      <point x="791.0" y="191.0" type="line"/>
      <point x="1251.0" y="1342.0" type="line" smooth="yes"/>
      <point x="1261.3379969977855" y="1367.8674664011096"/>
      <point x="1300.0" y="1381.0"/>
      <point x="1339.0" y="1380.0" type="curve" smooth="yes"/>
      <point x="1384.0" y="1380.0"/>
      <point x="1429.0" y="1363.0"/>
      <point x="1429.0" y="1332.0" type="curve" smooth="yes"/>
      <point x="1429.0" y="25.0" type="line" smooth="yes"/>
      <point x="1429.0" y="-2.0"/>
      <point x="1388.0" y="-24.0"/>
      <point x="1339.0" y="-24.0" type="curve" smooth="yes"/>
      <point x="1289.0" y="-24.0"/>
      <point x="1249.0" y="-2.0"/>
      <point x="1249.0" y="25.0" type="curve" smooth="yes"/>
      <point x="1249.0" y="993.0" type="line"/>
      <point x="860.0" y="19.0" type="line"/>
      <point x="853.0" y="-10.0"/>
      <point x="806.0" y="-24.0"/>
      <point x="760.0" y="-24.0" type="curve" smooth="yes"/>
      <point x="719.0" y="-23.0"/>
      <point x="678.6734433622511" y="-9.71998394951629"/>
      <point x="668.0" y="15.0" type="curve" smooth="yes"/>
      <point x="225.0" y="1041.0" type="line"/>
      <point x="225.0" y="10.0" type="line" smooth="yes"/>
      <point x="225.0" y="-9.0"/>
      <point x="197.0" y="-24.0"/>
      <point x="163.0" y="-24.0" type="curve" smooth="yes"/>
      <point x="128.0" y="-24.0"/>
      <point x="100.0" y="-9.0"/>
      <point x="100.0" y="10.0" type="curve" smooth="yes"/>
      <point x="100.0" y="1333.0" type="line" smooth="yes"/>
      <point x="100.0" y="1365.0"/>
      <point x="153.0" y="1383.0"/>
      <point x="204.0" y="1382.0" type="curve" smooth="yes"/>
      <point x="244.0" y="1381.0"/>
      <point x="283.1883965075108" y="1369.0820499535273"/>
    </contour>
  </outline>
</glyph>
<glyph name="N" format="2">
  <advance width="1336.0"/>
  <unicode hex="004E"/>
  <outline>
    <contour>
      <point x="1037.0" y="9.0" type="curve" smooth="yes"/>
      <point x="225.0" y="1147.0" type="line"/>
      <point x="225.0" y="9.0" type="line" smooth="yes"/>
      <point x="225.0" y="-10.0"/>
      <point x="197.0" y="-25.0"/>
      <point x="162.0" y="-25.0" type="curve" smooth="yes"/>
      <point x="128.0" y="-25.0"/>
      <point x="100.0" y="-10.0"/>
      <point x="100.0" y="9.0" type="curve" smooth="yes"/>
      <point x="100.0" y="1329.0" type="line" smooth="yes"/>
      <point x="100.0" y="1364.0"/>
      <point x="154.0" y="1382.0"/>
      <point x="206.0" y="1381.0" type="curve" smooth="yes"/>
      <point x="245.0" y="1380.0"/>
      <point x="283.19965770853946" y="1369.1438294676097"/>
      <point x="299.0" y="1347.0" type="curve" smooth="yes"/>
      <point x="1111.0" y="209.0" type="line"/>
      <point x="1111.0" y="1347.0" type="line" smooth="yes"/>
      <point x="1111.0" y="1366.0"/>
      <point x="1139.0" y="1381.0"/>
      <point x="1174.0" y="1381.0" type="curve" smooth="yes"/>
      <point x="1208.0" y="1381.0"/>
      <point x="1236.0" y="1366.0"/>
      <point x="1236.0" y="1347.0" type="curve" smooth="yes"/>
      <point x="1236.0" y="19.0" type="line" smooth="yes"/>
      <point x="1236.0" y="-6.0"/>
      <point x="1188.0" y="-23.0"/>
      <point x="1138.0" y="-24.0" type="curve" smooth="yes"/>
      <point x="1097.0" y="-25.0"/>
      <point x="1054.0827855639552" y="-14.941145285506309"/>
    </contour>
  </outline>
</glyph>
<glyph name="O" format="2">
  <advance width="1577.0"/>
  <unicode hex="004F"/>
  <outline>
    <contour>
      <point x="789.0" y="1377.0" type="curve" smooth="yes"/>
      <point x="1127.0" y="1377.0"/>
      <point x="1339.0" y="1192.0"/>
      <point x="1428.0" y="954.0" type="curve" smooth="yes"/>
      <point x="1461.0" y="866.0"/>
      <point x="1477.0" y="771.0"/>
      <point x="1477.0" y="677.0" type="curve" smooth="yes"/>
      <point x="1477.0" y="582.0"/>
      <point x="1461.0" y="487.0"/>
      <point x="1428.0" y="399.0" type="curve" smooth="yes"/>
      <point x="1339.0" y="161.0"/>
      <point x="1127.0" y="-24.0"/>
      <point x="789.0" y="-24.0" type="curve" smooth="yes"/>
      <point x="450.0" y="-24.0"/>
      <point x="238.0" y="161.0"/>
      <point x="149.0" y="399.0" type="curve" smooth="yes"/>
      <point x="116.0" y="487.0"/>
      <point x="100.0" y="582.0"/>
      <point x="100.0" y="677.0" type="curve" smooth="yes"/>
      <point x="100.0" y="771.0"/>
      <point x="116.0" y="866.0"/>
      <point x="149.0" y="954.0" type="curve" smooth="yes"/>
      <point x="238.0" y="1192.0"/>
      <point x="450.0" y="1377.0"/>
    </contour>
    <contour>
      <point x="1276.0" y="940.0" type="curve" smooth="yes"/>
      <point x="1200.0" y="1142.0"/>
      <point x="1037.0" y="1300.0"/>
      <point x="789.0" y="1300.0" type="curve" smooth="yes"/>
      <point x="540.0" y="1300.0"/>
      <point x="377.0" y="1142.0"/>
      <point x="301.0" y="940.0" type="curve" smooth="yes"/>
      <point x="270.0" y="858.0"/>
      <point x="255.0" y="767.0"/>
      <point x="255.0" y="677.0" type="curve" smooth="yes"/>
      <point x="255.0" y="586.0"/>
      <point x="270.0" y="495.0"/>
      <point x="301.0" y="413.0" type="curve" smooth="yes"/>
      <point x="377.0" y="211.0"/>
      <point x="540.0" y="53.0"/>
      <point x="789.0" y="53.0" type="curve" smooth="yes"/>
      <point x="1037.0" y="53.0"/>
      <point x="1200.0" y="211.0"/>
      <point x="1276.0" y="413.0" type="curve" smooth="yes"/>
      <point x="1307.0" y="495.0"/>
      <point x="1322.0" y="586.0"/>
      <point x="1322.0" y="677.0" type="curve" smooth="yes"/>
      <point x="1322.0" y="767.0"/>
      <point x="1307.0" y="858.0"/>
    </contour>
  </outline>
</glyph>
<glyph name="P" format="2">
  <advance width="1237.0"/>
  <unicode hex="0050"/>
  <outline>
    <contour>
      <point x="177.0" y="1365.0" type="curve" smooth="yes"/>
      <point x="789.0" y="1365.0" type="line" smooth="yes"/>
      <point x="909.0" y="1365.0"/>
      <point x="1014.0" y="1320.0"/>
      <point x="1085.0" y="1247.0" type="curve" smooth="yes"/>
      <point x="1148.0" y="1182.0"/>
      <point x="1187.0" y="1093.0"/>
      <point x="1187.0" y="997.0" type="curve" smooth="yes"/>
      <point x="1187.0" y="901.0"/>
      <point x="1148.0" y="813.0"/>
      <point x="1085.0" y="748.0" type="curve" smooth="yes"/>
      <point x="1014.0" y="675.0"/>
      <point x="909.0" y="630.0"/>
      <point x="789.0" y="630.0" type="curve" smooth="yes"/>
      <point x="255.0" y="630.0" type="line"/>
      <point x="255.0" y="15.0" type="line" smooth="yes"/>
      <point x="255.0" y="-7.0"/>
      <point x="220.0" y="-24.0"/>
      <point x="177.0" y="-24.0" type="curve" smooth="yes"/>
      <point x="135.0" y="-24.0"/>
      <point x="100.0" y="-7.0"/>
      <point x="100.0" y="15.0" type="curve" smooth="yes"/>
      <point x="100.0" y="1326.0" type="line" smooth="yes"/>
      <point x="100.0" y="1348.0"/>
      <point x="135.0" y="1365.0"/>
    </contour>
    <contour>
      <point x="255.0" y="707.0" type="line"/>
      <point x="789.0" y="707.0" type="line" smooth="yes"/>
      <point x="845.0" y="707.0"/>
      <point x="901.0" y="736.0"/>
      <point x="946.0" y="782.0" type="curve" smooth="yes"/>
      <point x="999.0" y="837.0"/>
      <point x="1032.0" y="913.0"/>
      <point x="1032.0" y="997.0" type="curve" smooth="yes"/>
      <point x="1032.0" y="1082.0"/>
      <point x="999.0" y="1158.0"/>
      <point x="946.0" y="1212.0" type="curve" smooth="yes"/>
      <point x="901.0" y="1258.0"/>
      <point x="845.0" y="1287.0"/>
      <point x="789.0" y="1287.0" type="curve" smooth="yes"/>
      <point x="255.0" y="1287.0" type="line"/>
    </contour>
  </outline>
</glyph>
<glyph name="Q" format="2">
  <advance height="2048" width="1579.0"/>
  <unicode hex="0051"/>
  <outline>
    <contour>
      <point x="773.0" y="1381.0" type="curve" smooth="yes"/>
      <point x="1188.0" y="1381.0"/>
      <point x="1446.0" y="1074.0"/>
      <point x="1446.0" y="679.0" type="curve" smooth="yes"/>
      <point x="1446.0" y="504.0"/>
      <point x="1391.0" y="326.0"/>
      <point x="1277.0" y="192.0" type="curve"/>
      <point x="1317.0" y="137.0"/>
      <point x="1367.0" y="88.0"/>
      <point x="1443.0" y="59.0" type="curve" smooth="yes"/>
      <point x="1480.0" y="45.0"/>
      <point x="1490.0" y="17.0"/>
      <point x="1465.0" y="-4.0" type="curve" smooth="yes"/>
      <point x="1440.0" y="-25.0"/>
      <point x="1389.0" y="-30.0"/>
      <point x="1352.0" y="-16.0" type="curve" smooth="yes"/>
      <point x="1274.0" y="13.0"/>
      <point x="1219.0" y="53.0"/>
      <point x="1175.0" y="98.0" type="curve"/>
      <point x="1072.0" y="22.0"/>
      <point x="938.0" y="-24.0"/>
      <point x="773.0" y="-24.0" type="curve" smooth="yes"/>
      <point x="358.0" y="-24.0"/>
      <point x="100.0" y="283.0"/>
      <point x="100.0" y="679.0" type="curve" smooth="yes"/>
      <point x="100.0" y="1074.0"/>
      <point x="358.0" y="1381.0"/>
    </contour>
    <contour>
      <point x="757.0" y="489.0" type="curve" smooth="yes"/>
      <point x="713.0" y="494.0"/>
      <point x="684.0" y="518.0"/>
      <point x="693.0" y="543.0" type="curve" smooth="yes"/>
      <point x="702.0" y="567.0"/>
      <point x="744.0" y="584.0"/>
      <point x="788.0" y="579.0" type="curve" smooth="yes"/>
      <point x="1032.0" y="552.0"/>
      <point x="1120.0" y="442.0"/>
      <point x="1194.0" y="323.0" type="curve"/>
      <point x="1255.0" y="431.0"/>
      <point x="1283.0" y="555.0"/>
      <point x="1283.0" y="679.0" type="curve" smooth="yes"/>
      <point x="1283.0" y="980.0"/>
      <point x="1109.0" y="1290.0"/>
      <point x="773.0" y="1290.0" type="curve" smooth="yes"/>
      <point x="437.0" y="1290.0"/>
      <point x="263.0" y="980.0"/>
      <point x="263.0" y="679.0" type="curve" smooth="yes"/>
      <point x="263.0" y="377.0"/>
      <point x="437.0" y="67.0"/>
      <point x="773.0" y="67.0" type="curve" smooth="yes"/>
      <point x="908.0" y="67.0"/>
      <point x="1017.0" y="117.0"/>
      <point x="1099.0" y="197.0" type="curve"/>
      <point x="1087.0" y="216.0"/>
      <point x="1075.0" y="236.0"/>
      <point x="1064.0" y="255.0" type="curve" smooth="yes"/>
      <point x="999.0" y="363.0"/>
      <point x="935.0" y="470.0"/>
    </contour>
  </outline>
</glyph>
<glyph name="Q" format="2">
  <advance width="1530.016463278878"/>
  <unicode hex="0051"/>
  <outline>
    <contour>
      <point x="765.0" y="1382.0" type="curve" smooth="yes"/>
      <point x="1094.0" y="1382.0"/>
      <point x="1299.0" y="1195.0"/>
      <point x="1384.0" y="956.0" type="curve" smooth="yes"/>
      <point x="1415.0" y="868.0"/>
      <point x="1430.0" y="774.0"/>
      <point x="1430.0" y="679.0" type="curve" smooth="yes"/>
      <point x="1430.0" y="584.0"/>
      <point x="1415.0" y="490.0"/>
      <point x="1384.0" y="402.0" type="curve" smooth="yes"/>
      <point x="1353.0" y="317.0"/>
      <point x="1308.0" y="238.0"/>
      <point x="1247.0" y="172.0" type="curve"/>
      <point x="1284.0" y="124.0"/>
      <point x="1329.0" y="82.0"/>
      <point x="1395.0" y="56.0" type="curve" smooth="yes"/>
      <point x="1434.0" y="41.0"/>
      <point x="1442.0" y="13.0"/>
      <point x="1411.0" y="-7.0" type="curve" smooth="yes"/>
      <point x="1381.0" y="-26.0"/>
      <point x="1325.0" y="-30.0"/>
      <point x="1285.0" y="-15.0" type="curve" smooth="yes"/>
      <point x="1222.0" y="10.0"/>
      <point x="1174.0" y="42.0"/>
      <point x="1135.0" y="78.0" type="curve"/>
      <point x="1037.0" y="14.0"/>
      <point x="914.0" y="-24.0"/>
      <point x="765.0" y="-24.0" type="curve" smooth="yes"/>
      <point x="436.0" y="-24.0"/>
      <point x="231.0" y="163.0"/>
      <point x="146.0" y="402.0" type="curve" smooth="yes"/>
      <point x="115.0" y="490.0"/>
      <point x="100.0" y="584.0"/>
      <point x="100.0" y="679.0" type="curve" smooth="yes"/>
      <point x="100.0" y="774.0"/>
      <point x="115.0" y="868.0"/>
      <point x="146.0" y="956.0" type="curve" smooth="yes"/>
      <point x="231.0" y="1195.0"/>
      <point x="436.0" y="1382.0"/>
    </contour>
    <contour>
      <point x="713.0" y="490.0" type="curve" smooth="yes"/>
      <point x="665.0" y="495.0"/>
      <point x="635.0" y="519.0"/>
      <point x="645.0" y="543.0" type="curve" smooth="yes"/>
      <point x="656.0" y="567.0"/>
      <point x="704.0" y="583.0"/>
      <point x="753.0" y="577.0" type="curve" smooth="yes"/>
      <point x="1001.0" y="549.0"/>
      <point x="1086.0" y="435.0"/>
      <point x="1159.0" y="312.0" type="curve"/>
      <point x="1177.0" y="345.0"/>
      <point x="1193.0" y="381.0"/>
      <point x="1206.0" y="418.0" type="curve" smooth="yes"/>
      <point x="1235.0" y="500.0"/>
      <point x="1250.0" y="589.0"/>
      <point x="1250.0" y="679.0" type="curve" smooth="yes"/>
      <point x="1250.0" y="769.0"/>
      <point x="1235.0" y="858.0"/>
      <point x="1206.0" y="940.0" type="curve" smooth="yes"/>
      <point x="1136.0" y="1138.0"/>
      <point x="988.0" y="1292.0"/>
      <point x="765.0" y="1292.0" type="curve" smooth="yes"/>
      <point x="542.0" y="1292.0"/>
      <point x="394.0" y="1138.0"/>
      <point x="324.0" y="940.0" type="curve" smooth="yes"/>
      <point x="295.0" y="858.0"/>
      <point x="280.0" y="769.0"/>
      <point x="280.0" y="679.0" type="curve" smooth="yes"/>
      <point x="280.0" y="589.0"/>
      <point x="295.0" y="500.0"/>
      <point x="324.0" y="418.0" type="curve" smooth="yes"/>
      <point x="394.0" y="220.0"/>
      <point x="542.0" y="66.0"/>
      <point x="765.0" y="66.0" type="curve" smooth="yes"/>
      <point x="882.0" y="66.0"/>
      <point x="978.0" y="108.0"/>
      <point x="1053.0" y="177.0" type="curve"/>
      <point x="958.0" y="320.0"/>
      <point x="916.0" y="467.0"/>
    </contour>
  </outline>
</glyph>
<glyph name="R" format="2">
  <advance width="1404.0998523434955"/>
  <unicode hex="0052"/>
  <outline>
    <contour>
      <point x="177.0" y="1365.0" type="curve" smooth="yes"/>
      <point x="789.0" y="1365.0" type="line" smooth="yes"/>
      <point x="909.0" y="1365.0"/>
      <point x="1014.0" y="1320.0"/>
      <point x="1085.0" y="1248.0" type="curve" smooth="yes"/>
      <point x="1148.0" y="1183.0"/>
      <point x="1187.0" y="1096.0"/>
      <point x="1187.0" y="1000.0" type="curve" smooth="yes"/>
      <point x="1187.0" y="905.0"/>
      <point x="1148.0" y="818.0"/>
      <point x="1085.0" y="753.0" type="curve" smooth="yes"/>
      <point x="1032.0" y="699.0"/>
      <point x="960.0" y="661.0"/>
      <point x="878.0" y="644.0" type="curve"/>
      <point x="981.0" y="572.0"/>
      <point x="1028.0" y="458.0"/>
      <point x="1076.0" y="343.0" type="curve" smooth="yes"/>
      <point x="1125.0" y="223.0"/>
      <point x="1176.0" y="101.0"/>
      <point x="1284.0" y="41.0" type="curve" smooth="yes"/>
      <point x="1313.0" y="25.0"/>
      <point x="1310.0" y="1.0"/>
      <point x="1279.0" y="-14.0" type="curve" smooth="yes"/>
      <point x="1247.0" y="-28.0"/>
      <point x="1198.0" y="-27.0"/>
      <point x="1170.0" y="-11.0" type="curve" smooth="yes"/>
      <point x="1033.0" y="65.0"/>
      <point x="978.0" y="197.0"/>
      <point x="924.0" y="327.0" type="curve" smooth="yes"/>
      <point x="882.0" y="431.0"/>
      <point x="798.0" y="636.0"/>
      <point x="659.0" y="636.0" type="curve" smooth="yes"/>
      <point x="255.0" y="636.0" type="line"/>
      <point x="255.0" y="15.0" type="line" smooth="yes"/>
      <point x="255.0" y="-7.0"/>
      <point x="220.0" y="-24.0"/>
      <point x="177.0" y="-24.0" type="curve" smooth="yes"/>
      <point x="135.0" y="-24.0"/>
      <point x="100.0" y="-7.0"/>
      <point x="100.0" y="15.0" type="curve" smooth="yes"/>
      <point x="100.0" y="1326.0" type="line" smooth="yes"/>
      <point x="100.0" y="1348.0"/>
      <point x="135.0" y="1365.0"/>
    </contour>
    <contour>
      <point x="255.0" y="713.0" type="line"/>
      <point x="789.0" y="713.0" type="line" smooth="yes"/>
      <point x="845.0" y="713.0"/>
      <point x="901.0" y="741.0"/>
      <point x="946.0" y="787.0" type="curve" smooth="yes"/>
      <point x="999.0" y="841.0"/>
      <point x="1032.0" y="917.0"/>
      <point x="1032.0" y="1000.0" type="curve" smooth="yes"/>
      <point x="1032.0" y="1084.0"/>
      <point x="999.0" y="1160.0"/>
      <point x="946.0" y="1214.0" type="curve" smooth="yes"/>
      <point x="901.0" y="1259.0"/>
      <point x="845.0" y="1288.0"/>
      <point x="789.0" y="1288.0" type="curve" smooth="yes"/>
      <point x="255.0" y="1288.0" type="line"/>
    </contour>
  </outline>
</glyph>
<glyph name="S" format="2">
  <advance width="1334.0454395450754"/>
  <unicode hex="0053"/>
  <outline>
    <contour>
      <point x="1196.544405945883" y="1039.0" type="curve"/>
      <point x="1200.544405945883" y="1018.0"/>
      <point x="1170.544405945883" y="999.0"/>
      <point x="1127.544405945883" y="996.0" type="curve" smooth="yes"/>
      <point x="1085.544405945883" y="994.0"/>
      <point x="1047.544405945883" y="1009.0"/>
      <point x="1042.544405945883" y="1030.0" type="curve" smooth="yes"/>
      <point x="1020.544405945883" y="1123.0"/>
      <point x="969.544405945883" y="1191.0"/>
      <point x="904.544405945883" y="1235.0" type="curve" smooth="yes"/>
      <point x="837.544405945883" y="1280.0"/>
      <point x="755.544405945883" y="1300.0"/>
      <point x="674.544405945883" y="1299.0" type="curve" smooth="yes"/>
      <point x="585.544405945883" y="1298.0"/>
      <point x="494.544405945883" y="1270.0"/>
      <point x="425.544405945883" y="1222.0" type="curve" smooth="yes"/>
      <point x="357.544405945883" y="1175.0"/>
      <point x="310.544405945883" y="1108.0"/>
      <point x="304.544405945883" y="1026.0" type="curve" smooth="yes"/>
      <point x="298.544405945883" y="952.0"/>
      <point x="326.544405945883" y="906.0"/>
      <point x="386.544405945883" y="864.0" type="curve" smooth="yes"/>
      <point x="454.544405945883" y="817.0"/>
      <point x="560.544405945883" y="781.0"/>
      <point x="716.544405945883" y="764.0" type="curve" smooth="yes"/>
      <point x="882.544405945883" y="746.0"/>
      <point x="1006.544405945883" y="711.0"/>
      <point x="1086.544405945883" y="655.0" type="curve" smooth="yes"/>
      <point x="1180.544405945883" y="589.0"/>
      <point x="1227.544405945883" y="498.0"/>
      <point x="1233.544405945883" y="405.0" type="curve" smooth="yes"/>
      <point x="1239.544405945883" y="300.0"/>
      <point x="1191.544405945883" y="191.0"/>
      <point x="1095.544405945883" y="111.0" type="curve" smooth="yes"/>
      <point x="1008.544405945883" y="38.0"/>
      <point x="884.544405945883" y="-14.0"/>
      <point x="732.544405945883" y="-23.0" type="curve" smooth="yes"/>
      <point x="583.544405945883" y="-32.0"/>
      <point x="428.544405945883" y="-4.0"/>
      <point x="306.544405945883" y="74.0" type="curve" smooth="yes"/>
      <point x="210.544405945883" y="135.0"/>
      <point x="134.544405945883" y="228.0"/>
      <point x="100.544405945883" y="358.0" type="curve" smooth="yes"/>
      <point x="95.544405945883" y="379.0"/>
      <point x="125.544405945883" y="398.0"/>
      <point x="167.544405945883" y="401.0" type="curve" smooth="yes"/>
      <point x="210.544405945883" y="404.0"/>
      <point x="248.544405945883" y="389.0"/>
      <point x="254.544405945883" y="368.0" type="curve" smooth="yes"/>
      <point x="284.544405945883" y="252.0"/>
      <point x="347.544405945883" y="172.0"/>
      <point x="427.544405945883" y="121.0" type="curve" smooth="yes"/>
      <point x="512.544405945883" y="67.0"/>
      <point x="616.544405945883" y="47.0"/>
      <point x="713.544405945883" y="53.0" type="curve" smooth="yes"/>
      <point x="813.544405945883" y="59.0"/>
      <point x="899.544405945883" y="97.0"/>
      <point x="962.544405945883" y="150.0" type="curve" smooth="yes"/>
      <point x="1037.544405945883" y="213.0"/>
      <point x="1080.544405945883" y="297.0"/>
      <point x="1080.544405945883" y="379.0" type="curve" smooth="yes"/>
      <point x="1080.544405945883" y="407.0"/>
      <point x="1075.544405945883" y="431.0"/>
      <point x="1066.544405945883" y="451.0" type="curve" smooth="yes"/>
      <point x="1053.544405945883" y="482.0"/>
      <point x="1031.544405945883" y="506.0"/>
      <point x="997.544405945883" y="530.0" type="curve" smooth="yes"/>
      <point x="935.544405945883" y="573.0"/>
      <point x="840.544405945883" y="606.0"/>
      <point x="701.544405945883" y="621.0" type="curve" smooth="yes"/>
      <point x="519.544405945883" y="641.0"/>
      <point x="390.544405945883" y="687.0"/>
      <point x="304.544405945883" y="746.0" type="curve" smooth="yes"/>
      <point x="206.544405945883" y="814.0"/>
      <point x="154.544405945883" y="905.0"/>
      <point x="150.544405945883" y="997.0" type="curve" smooth="yes"/>
      <point x="145.544405945883" y="1095.0"/>
      <point x="194.544405945883" y="1194.0"/>
      <point x="299.544405945883" y="1266.0" type="curve" smooth="yes"/>
      <point x="397.544405945883" y="1335.0"/>
      <point x="532.544405945883" y="1374.0"/>
      <point x="670.544405945883" y="1376.0" type="curve" smooth="yes"/>
      <point x="800.544405945883" y="1378.0"/>
      <point x="929.544405945883" y="1348.0"/>
      <point x="1029.544405945883" y="1280.0" type="curve" smooth="yes"/>
      <point x="1109.544405945883" y="1226.0"/>
      <point x="1170.544405945883" y="1146.0"/>
    </contour>
  </outline>
</glyph>
<glyph name="T" format="2">
  <advance width="1264.0"/>
  <unicode hex="0054"/>
  <outline>
    <contour>
      <point x="722.0" y="34.0" type="line" smooth="yes"/>
      <point x="722.0" y="9.0"/>
      <point x="682.0" y="-12.0"/>
      <point x="632.0" y="-12.0" type="curve" smooth="yes"/>
      <point x="582.0" y="-12.0"/>
      <point x="542.0" y="9.0"/>
      <point x="542.0" y="34.0" type="curve" smooth="yes"/>
      <point x="542.0" y="1292.0" type="line"/>
      <point x="140.0" y="1292.0" type="line" smooth="yes"/>
      <point x="90.0" y="1292.0"/>
      <point x="50.0" y="1312.0"/>
      <point x="50.0" y="1337.0" type="curve" smooth="yes"/>
      <point x="50.0" y="1362.0"/>
      <point x="90.0" y="1382.0"/>
      <point x="140.0" y="1382.0" type="curve" smooth="yes"/>
      <point x="1124.0" y="1382.0" type="line" smooth="yes"/>
      <point x="1174.0" y="1382.0"/>
      <point x="1214.0" y="1362.0"/>
      <point x="1214.0" y="1337.0" type="curve" smooth="yes"/>
      <point x="1214.0" y="1312.0"/>
      <point x="1174.0" y="1292.0"/>
      <point x="1124.0" y="1292.0" type="curve" smooth="yes"/>
      <point x="722.0" y="1292.0" type="line"/>
    </contour>
  </outline>
</glyph>
<glyph name="U" format="2">
  <advance height="2048" width="1309.0"/>
  <unicode hex="0055"/>
  <outline>
    <contour>
      <point x="1046.0" y="1335.0" type="line" smooth="yes"/>
      <point x="1046.0" y="1361.0"/>
      <point x="1083.0" y="1381.0"/>
      <point x="1128.0" y="1381.0" type="curve" smooth="yes"/>
      <point x="1173.0" y="1381.0"/>
      <point x="1209.0" y="1361.0"/>
      <point x="1209.0" y="1335.0" type="curve" smooth="yes"/>
      <point x="1209.0" y="429.0" type="line" smooth="yes"/>
      <point x="1209.0" y="142.0"/>
      <point x="910.0" y="-24.0"/>
      <point x="652.0" y="-24.0" type="curve" smooth="yes"/>
      <point x="396.0" y="-24.0"/>
      <point x="100.0" y="145.0"/>
      <point x="100.0" y="429.0" type="curve" smooth="yes"/>
      <point x="100.0" y="1335.0" type="line" smooth="yes"/>
      <point x="100.0" y="1361.0"/>
      <point x="136.0" y="1381.0"/>
      <point x="181.0" y="1381.0" type="curve" smooth="yes"/>
      <point x="226.0" y="1381.0"/>
      <point x="263.0" y="1361.0"/>
      <point x="263.0" y="1335.0" type="curve" smooth="yes"/>
      <point x="263.0" y="429.0" type="line" smooth="yes"/>
      <point x="263.0" y="224.0"/>
      <point x="456.0" y="68.0"/>
      <point x="652.0" y="67.0" type="curve" smooth="yes"/>
      <point x="850.0" y="66.0"/>
      <point x="1046.0" y="222.0"/>
      <point x="1046.0" y="429.0" type="curve" smooth="yes"/>
    </contour>
  </outline>
</glyph>
<glyph name="U" format="2">
  <advance width="1335.0"/>
  <unicode hex="0055"/>
  <outline>
    <contour>
      <point x="1080.0" y="1339.0" type="line" smooth="yes"/>
      <point x="1080.0" y="1360.0"/>
      <point x="1115.0" y="1377.0"/>
      <point x="1158.0" y="1377.0" type="curve" smooth="yes"/>
      <point x="1200.0" y="1377.0"/>
      <point x="1235.0" y="1360.0"/>
      <point x="1235.0" y="1339.0" type="curve" smooth="yes"/>
      <point x="1235.0" y="378.0" type="line" smooth="yes"/>
      <point x="1235.0" y="188.0"/>
      <point x="1091.0" y="65.0"/>
      <point x="907.0" y="10.0" type="curve" smooth="yes"/>
      <point x="832.0" y="-13.0"/>
      <point x="750.0" y="-24.0"/>
      <point x="667.0" y="-24.0" type="curve" smooth="yes"/>
      <point x="585.0" y="-24.0"/>
      <point x="503.0" y="-13.0"/>
      <point x="427.0" y="10.0" type="curve" smooth="yes"/>
      <point x="244.0" y="65.0"/>
      <point x="100.0" y="188.0"/>
      <point x="100.0" y="378.0" type="curve" smooth="yes"/>
      <point x="100.0" y="1339.0" type="line" smooth="yes"/>
      <point x="100.0" y="1360.0"/>
      <point x="135.0" y="1377.0"/>
      <point x="177.0" y="1377.0" type="curve" smooth="yes"/>
      <point x="220.0" y="1377.0"/>
      <point x="255.0" y="1360.0"/>
      <point x="255.0" y="1339.0" type="curve" smooth="yes"/>
      <point x="255.0" y="378.0" type="line" smooth="yes"/>
      <point x="255.0" y="219.0"/>
      <point x="365.0" y="119.0"/>
      <point x="507.0" y="76.0" type="curve" smooth="yes"/>
      <point x="558.0" y="61.0"/>
      <point x="613.0" y="53.0"/>
      <point x="667.0" y="53.0" type="curve" smooth="yes"/>
      <point x="722.0" y="53.0"/>
      <point x="777.0" y="61.0"/>
      <point x="828.0" y="76.0" type="curve" smooth="yes"/>
      <point x="970.0" y="119.0"/>
      <point x="1080.0" y="219.0"/>
      <point x="1080.0" y="378.0" type="curve" smooth="yes"/>
    </contour>
  </outline>
</glyph>
<glyph name="V" format="2">
  <advance height="2048" width="1387.0"/>
  <unicode hex="0056"/>
  <outline>
    <contour>
      <point x="52.0" y="1329.0" type="line" smooth="yes"/>
      <point x="42.0" y="1352.0"/>
      <point x="72.0" y="1375.0"/>
      <point x="119.0" y="1380.0" type="curve" smooth="yes"/>
      <point x="165.0" y="1385.0"/>
      <point x="211.0" y="1370.0"/>
      <point x="220.0" y="1347.0" type="curve" smooth="yes"/>
      <point x="717.0" y="162.0" type="line"/>
      <point x="1220.0" y="1357.0" type="line" smooth="yes"/>
      <point x="1227.0" y="1373.0"/>
      <point x="1258.0" y="1384.0"/>
      <point x="1290.0" y="1380.0" type="curve" smooth="yes"/>
      <point x="1322.0" y="1377.0"/>
      <point x="1342.0" y="1362.0"/>
      <point x="1336.0" y="1346.0" type="curve" smooth="yes"/>
      <point x="775.0" y="13.0" type="line" smooth="yes"/>
      <point x="765.0" y="-12.0"/>
      <point x="727.0" y="-24.0"/>
      <point x="689.0" y="-24.0" type="curve" smooth="yes"/>
      <point x="652.0" y="-24.0"/>
      <point x="615.0" y="-12.0"/>
      <point x="606.0" y="10.0" type="curve" smooth="yes"/>
    </contour>
  </outline>
</glyph>
<glyph name="V" format="2">
  <advance width="1373.3210256698305"/>
  <unicode hex="0056"/>
  <outline>
    <contour>
      <point x="51.98454823816891" y="1325.0" type="line" smooth="yes"/>
      <point x="41.26965914340846" y="1351.1187892458645"/>
      <point x="74.98454823816891" y="1377.0"/>
      <point x="127.98454823816891" y="1382.0" type="curve" smooth="yes"/>
      <point x="179.9845482381689" y="1387.0"/>
      <point x="231.39610312690493" y="1369.7659626279665"/>
      <point x="241.9845482381689" y="1344.0" type="curve" smooth="yes"/>
      <point x="714.9845482381689" y="193.0" type="line"/>
      <point x="1189.9845482381688" y="1356.0" type="line" smooth="yes"/>
      <point x="1197.2869854519213" y="1373.8794410095302"/>
      <point x="1232.9845482381688" y="1386.0"/>
      <point x="1268.9845482381688" y="1382.0" type="curve" smooth="yes"/>
      <point x="1305.9845482381688" y="1379.0"/>
      <point x="1329.2850760939061" y="1360.8802207189412"/>
      <point x="1321.9845482381688" y="1343.0" type="curve" smooth="yes"/>
      <point x="780.9845482381689" y="18.0" type="line" smooth="yes"/>
      <point x="769.6128811727683" y="-9.851125437165138"/>
      <point x="724.9845482381689" y="-24.0"/>
      <point x="680.9845482381689" y="-23.0" type="curve" smooth="yes"/>
      <point x="639.9845482381689" y="-22.0"/>
      <point x="599.9845482381689" y="-9.0"/>
      <point x="588.9845482381689" y="16.0" type="curve" smooth="yes"/>
    </contour>
  </outline>
</glyph>
<glyph name="W" format="2">
  <advance height="2048" width="1926.0"/>
  <unicode hex="0057"/>
  <outline>
    <contour>
      <point x="51.0" y="1328.0" type="line" smooth="yes"/>
      <point x="43.0" y="1352.0"/>
      <point x="74.0" y="1377.0"/>
      <point x="121.0" y="1381.0" type="curve" smooth="yes"/>
      <point x="168.0" y="1385.0"/>
      <point x="212.0" y="1366.0"/>
      <point x="220.0" y="1343.0" type="curve" smooth="yes"/>
      <point x="613.0" y="209.0" type="line"/>
      <point x="903.0" y="1345.0" type="line" smooth="yes"/>
      <point x="910.0" y="1372.0"/>
      <point x="969.0" y="1381.0"/>
      <point x="991.0" y="1381.0" type="curve" smooth="yes"/>
      <point x="1030.0" y="1381.0"/>
      <point x="1069.0" y="1368.0"/>
      <point x="1076.0" y="1342.0" type="curve" smooth="yes"/>
      <point x="1369.0" y="210.0" type="line"/>
      <point x="1759.0" y="1356.0" type="line" smooth="yes"/>
      <point x="1765.0" y="1372.0"/>
      <point x="1795.0" y="1383.0"/>
      <point x="1827.0" y="1381.0" type="curve" smooth="yes"/>
      <point x="1859.0" y="1378.0"/>
      <point x="1881.0" y="1363.0"/>
      <point x="1875.0" y="1347.0" type="curve" smooth="yes"/>
      <point x="1422.0" y="13.0" type="line" smooth="yes"/>
      <point x="1414.0" y="-9.0"/>
      <point x="1376.0" y="-23.0"/>
      <point x="1338.0" y="-24.0" type="curve" smooth="yes"/>
      <point x="1296.0" y="-25.0"/>
      <point x="1254.0" y="-14.0"/>
      <point x="1248.0" y="13.0" type="curve" smooth="yes"/>
      <point x="962.0" y="1113.0" type="line"/>
      <point x="682.0" y="15.0" type="line" smooth="yes"/>
      <point x="675.0" y="-10.0"/>
      <point x="634.0" y="-23.0"/>
      <point x="593.0" y="-24.0" type="curve" smooth="yes"/>
      <point x="554.0" y="-24.0"/>
      <point x="516.0" y="-13.0"/>
      <point x="507.0" y="11.0" type="curve" smooth="yes"/>
    </contour>
  </outline>
</glyph>
<glyph name="W" format="2">
  <advance width="1954.1251557013452"/>
  <unicode hex="0057"/>
  <outline>
    <contour>
      <point x="51.32334821279016" y="1329.0" type="line" smooth="yes"/>
      <point x="43.200415574503204" y="1351.9568718553253"/>
      <point x="73.32334821279017" y="1373.0"/>
      <point x="118.32334821279017" y="1377.0" type="curve" smooth="yes"/>
      <point x="163.32334821279017" y="1381.0"/>
      <point x="205.27687595292895" y="1365.6551160714491"/>
      <point x="213.32334821279017" y="1343.0" type="curve" smooth="yes"/>
      <point x="625.3233482127902" y="183.0" type="line"/>
      <point x="926.3233482127902" y="1337.0" type="line" smooth="yes"/>
      <point x="933.6076980642079" y="1364.927374513459"/>
      <point x="971.3233482127902" y="1377.0"/>
      <point x="1009.3233482127902" y="1377.0" type="curve" smooth="yes"/>
      <point x="1046.32334821279" y="1377.0"/>
      <point x="1083.9198903258628" y="1363.8960357636977"/>
      <point x="1091.3233482127903" y="1336.0" type="curve" smooth="yes"/>
      <point x="1397.3233482127903" y="183.0" type="line"/>
      <point x="1805.3233482127903" y="1356.0" type="line" smooth="yes"/>
      <point x="1810.2071584088108" y="1370.0409543132732"/>
      <point x="1835.3233482127903" y="1379.0"/>
      <point x="1863.3233482127903" y="1377.0" type="curve" smooth="yes"/>
      <point x="1890.3233482127903" y="1375.0"/>
      <point x="1908.2010288413371" y="1362.043084833522"/>
      <point x="1903.3233482127903" y="1348.0" type="curve" smooth="yes"/>
      <point x="1440.3233482127903" y="15.0" type="line"/>
      <point x="1429.3233482127903" y="-12.0"/>
      <point x="1393.3233482127903" y="-24.0"/>
      <point x="1357.3233482127903" y="-24.0" type="curve" smooth="yes"/>
      <point x="1319.3233482127903" y="-24.0"/>
      <point x="1282.179518798398" y="-8.038721970339793"/>
      <point x="1276.3233482127903" y="14.0" type="curve" smooth="yes"/>
      <point x="976.3233482127902" y="1143.0" type="line"/>
      <point x="680.3233482127902" y="12.0" type="line" smooth="yes"/>
      <point x="672.7066426122349" y="-17.10302038558234"/>
      <point x="636.3233482127902" y="-24.0"/>
      <point x="598.3233482127902" y="-24.0" type="curve" smooth="yes"/>
      <point x="562.3233482127902" y="-24.0"/>
      <point x="525.3233482127902" y="-9.0"/>
      <point x="517.3233482127902" y="12.0" type="curve" smooth="yes"/>
    </contour>
  </outline>
</glyph>
<glyph name="X" format="2">
  <advance width="1289.9545113531178"/>
  <unicode hex="0058"/>
  <outline>
    <contour>
      <point x="56.97352989044764" y="1312.0" type="line" smooth="yes"/>
      <point x="37.18326959223616" y="1338.159999948831"/>
      <point x="62.97352989044764" y="1368.0"/>
      <point x="115.97352989044762" y="1378.0" type="curve" smooth="yes"/>
      <point x="168.97352989044762" y="1388.0"/>
      <point x="228.17749510359394" y="1374.1556305034142"/>
      <point x="247.97352989044762" y="1348.0" type="curve" smooth="yes"/>
      <point x="661.9735298904476" y="801.0" type="line"/>
      <point x="1099.9735298904477" y="1359.0" type="line" smooth="yes"/>
      <point x="1114.0535091128827" y="1376.9375077765508"/>
      <point x="1155.9735298904477" y="1387.0"/>
      <point x="1193.9735298904477" y="1379.0" type="curve" smooth="yes"/>
      <point x="1230.9735298904477" y="1372.0"/>
      <point x="1249.5624191258942" y="1350.551665989527"/>
      <point x="1234.9735298904477" y="1332.0" type="curve" smooth="yes"/>
      <point x="737.9735298904476" y="700.0" type="line"/>
      <point x="1232.9735298904477" y="45.0" type="line" smooth="yes"/>
      <point x="1252.7507514154893" y="18.83014121440783"/>
      <point x="1226.9735298904477" y="-11.0"/>
      <point x="1173.9735298904477" y="-20.0" type="curve" smooth="yes"/>
      <point x="1120.9735298904477" y="-30.0"/>
      <point x="1061.753993434073" y="-17.167408398668158"/>
      <point x="1041.9735298904475" y="9.0" type="curve" smooth="yes"/>
      <point x="626.9735298904476" y="558.0" type="line"/>
      <point x="189.97352989044762" y="0.0" type="line" smooth="yes"/>
      <point x="175.9134672990559" y="-17.953123400430286"/>
      <point x="133.97352989044762" y="-27.0"/>
      <point x="95.97352989044762" y="-20.0" type="curve" smooth="yes"/>
      <point x="58.97352989044764" y="-13.0"/>
      <point x="40.40279904722091" y="8.434068764299127"/>
      <point x="54.97352989044764" y="27.0" type="curve" smooth="yes"/>
      <point x="550.9735298904477" y="659.0" type="line"/>
    </contour>
  </outline>
</glyph>
<glyph name="Y" format="2">
  <advance width="1294.229119839198"/>
  <unicode hex="0059"/>
  <outline>
    <contour>
      <point x="718.0916238959778" y="15.0" type="line" smooth="yes"/>
      <point x="718.0916238959778" y="-7.0"/>
      <point x="686.0916238959778" y="-24.0"/>
      <point x="647.0916238959778" y="-24.0" type="curve" smooth="yes"/>
      <point x="608.0916238959778" y="-24.0"/>
      <point x="576.0916238959778" y="-7.0"/>
      <point x="576.0916238959778" y="15.0" type="curve" smooth="yes"/>
      <point x="576.0916238959778" y="605.0" type="line"/>
      <point x="575.0916238959778" y="607.0"/>
      <point x="573.0916238959778" y="609.0"/>
      <point x="572.0916238959778" y="610.0" type="curve"/>
      <point x="55.09162389597777" y="1319.0" type="line" smooth="yes"/>
      <point x="39.06398678530724" y="1340.979873716547"/>
      <point x="62.09162389597777" y="1366.0"/>
      <point x="107.09162389597776" y="1374.0" type="curve" smooth="yes"/>
      <point x="153.09162389597776" y="1383.0"/>
      <point x="202.56515062255767" y="1370.62466974336"/>
      <point x="219.09162389597776" y="1348.0" type="curve" smooth="yes"/>
      <point x="677.0916238959778" y="721.0" type="line"/>
      <point x="1138.0916238959778" y="1359.0" type="line" smooth="yes"/>
      <point x="1148.1679761865755" y="1372.9451469878563"/>
      <point x="1179.0916238959778" y="1380.0"/>
      <point x="1208.0916238959778" y="1375.0" type="curve" smooth="yes"/>
      <point x="1236.0916238959778" y="1370.0"/>
      <point x="1251.1775026221537" y="1353.9382585082542"/>
      <point x="1241.0916238959778" y="1340.0" type="curve" smooth="yes"/>
      <point x="720.0916238959778" y="620.0" type="line"/>
      <point x="719.0916238959778" y="619.0"/>
      <point x="719.0916238959778" y="618.0"/>
      <point x="718.0916238959778" y="618.0" type="curve"/>
    </contour>
  </outline>
</glyph>
<glyph name="Z" format="2">
  <advance width="1286.3025523178076"/>
  <unicode hex="005A"/>
  <outline>
    <contour>
      <point x="156.200341030787" y="1299.133886760324" type="line" smooth="yes"/>
      <point x="113.20034103078702" y="1299.133886760324"/>
      <point x="77.20034103078702" y="1316.133886760324"/>
      <point x="77.20034103078702" y="1337.133886760324" type="curve" smooth="yes"/>
      <point x="77.20034103078702" y="1359.133886760324"/>
      <point x="113.20034103078702" y="1376.133886760324"/>
      <point x="156.200341030787" y="1376.133886760324" type="curve" smooth="yes"/>
      <point x="1149.200341030787" y="1376.133886760324" type="line" smooth="yes"/>
      <point x="1170.200341030787" y="1376.133886760324"/>
      <point x="1193.200341030787" y="1372.133886760324"/>
      <point x="1212.200341030787" y="1363.133886760324" type="curve" smooth="yes"/>
      <point x="1235.200341030787" y="1351.133886760324"/>
      <point x="1242.920308561754" y="1333.3574013604662"/>
      <point x="1230.200341030787" y="1317.133886760324" type="curve" smooth="yes"/>
      <point x="257.200341030787" y="76.133886760324" type="line"/>
      <point x="1130.200341030787" y="76.133886760324" type="line" smooth="yes"/>
      <point x="1173.200341030787" y="76.133886760324"/>
      <point x="1208.200341030787" y="59.133886760324"/>
      <point x="1208.200341030787" y="38.133886760324" type="curve" smooth="yes"/>
      <point x="1208.200341030787" y="16.133886760324003"/>
      <point x="1173.200341030787" y="-0.8661132396759967"/>
      <point x="1130.200341030787" y="-0.8661132396759967" type="curve" smooth="yes"/>
      <point x="139.200341030787" y="-0.8661132396759967" type="line" smooth="yes"/>
      <point x="115.20034103078702" y="-0.8661132396759967"/>
      <point x="84.20034103078702" y="4.133886760324003"/>
      <point x="65.20034103078702" y="18.133886760324003" type="curve" smooth="yes"/>
      <point x="49.200341030787015" y="30.133886760324003"/>
      <point x="45.21480712657383" y="44.122532623331836"/>
      <point x="56.200341030787015" y="58.133886760324" type="curve" smooth="yes"/>
      <point x="1029.200341030787" y="1299.133886760324" type="line"/>
    </contour>
  </outline>
</glyph>
<glyph name="bracketleft" format="2">
  <advance height="2048" width="774.0"/>
  <unicode hex="005B"/>
  <outline>
    <contour>
      <point x="592.0" y="-309.0" type="line" smooth="yes"/>
      <point x="638.0" y="-309.0"/>
      <point x="674.0" y="-329.0"/>
      <point x="674.0" y="-355.0" type="curve" smooth="yes"/>
      <point x="674.0" y="-380.0"/>
      <point x="638.0" y="-400.0"/>
      <point x="592.0" y="-400.0" type="curve" smooth="yes"/>
      <point x="182.0" y="-400.0" type="line" smooth="yes"/>
      <point x="136.0" y="-400.0"/>
      <point x="100.0" y="-380.0"/>
      <point x="100.0" y="-355.0" type="curve" smooth="yes"/>
      <point x="100.0" y="1334.0" type="line" smooth="yes"/>
      <point x="100.0" y="1360.0"/>
      <point x="136.0" y="1380.0"/>
      <point x="182.0" y="1380.0" type="curve" smooth="yes"/>
      <point x="592.0" y="1380.0" type="line" smooth="yes"/>
      <point x="638.0" y="1380.0"/>
      <point x="674.0" y="1360.0"/>
      <point x="674.0" y="1334.0" type="curve" smooth="yes"/>
      <point x="674.0" y="1309.0"/>
      <point x="638.0" y="1289.0"/>
      <point x="592.0" y="1289.0" type="curve" smooth="yes"/>
      <point x="263.0" y="1289.0" type="line"/>
      <point x="263.0" y="-309.0" type="line"/>
    </contour>
  </outline>
</glyph>
<glyph name="asciicircum" format="2">
	<unicode hex="005E"/>
	<advance height="2048" width="768"/>
	<outline>
		<contour>
			<point x="213" y="1022" type="line" smooth="yes"/>
			<point x="206" y="1007"/>
			<point x="175" y="997"/>
			<point x="144" y="1001" type="curve" smooth="yes"/>
			<point x="113" y="1005"/>
			<point x="94" y="1020"/>
			<point x="102" y="1035" type="curve" smooth="yes"/>
			<point x="328" y="1501" type="line" smooth="yes"/>
			<point x="334" y="1514"/>
			<point x="358" y="1523"/>
			<point x="384" y="1523" type="curve" smooth="yes"/>
			<point x="401" y="1523"/>
			<point x="432" y="1517"/>
			<point x="440" y="1501" type="curve" smooth="yes"/>
			<point x="666" y="1035" type="line" smooth="yes"/>
			<point x="674" y="1020"/>
			<point x="655" y="1005"/>
			<point x="624" y="1001" type="curve" smooth="yes"/>
			<point x="593" y="997"/>
			<point x="562" y="1007"/>
			<point x="555" y="1022" type="curve" smooth="yes"/>
			<point x="384" y="1373" type="line"/>
		</contour>
	</outline>
</glyph>
<glyph name="underscore" format="2">
  <advance width="1272.0"/>
  <unicode hex="005F"/>
  <outline>
    <contour>
      <point x="180.0" y="80.0" type="line" smooth="yes"/>
      <point x="136.0" y="80.0"/>
      <point x="100.0" y="62.0"/>
      <point x="100.0" y="40.0" type="curve" smooth="yes"/>
      <point x="100.0" y="18.0"/>
      <point x="136.0" y="0.0"/>
      <point x="180.0" y="0.0" type="curve" smooth="yes"/>
      <point x="1092.0" y="0.0" type="line" smooth="yes"/>
      <point x="1136.0" y="0.0"/>
      <point x="1172.0" y="18.0"/>
      <point x="1172.0" y="40.0" type="curve" smooth="yes"/>
      <point x="1172.0" y="62.0"/>
      <point x="1136.0" y="80.0"/>
      <point x="1092.0" y="80.0" type="curve" smooth="yes"/>
    </contour>
  </outline>
</glyph>
<glyph name="grave" format="2">
  <advance width="488.7850784388885"/>
  <unicode hex="0060"/>
  <outline>
    <contour>
      <point x="22.739235235367133" y="1367.658878337795" type="curve" smooth="yes"/>
      <point x="-3.2607647646328672" y="1335.658878337795"/>
      <point x="-10.040178877994734" y="1280.9601769729072"/>
      <point x="18.739235235367133" y="1259.658878337795" type="curve" smooth="yes"/>
      <point x="399.7392352353672" y="977.6588783377949" type="line" smooth="yes"/>
      <point x="426.7467676924017" y="957.6690511649019"/>
      <point x="451.7392352353672" y="972.6588783377949"/>
      <point x="469.7392352353672" y="993.6588783377949" type="curve" smooth="yes"/>
      <point x="488.7392352353672" y="1015.6588783377949"/>
      <point x="499.0718474090987" y="1043.0102259328246"/>
      <point x="473.7392352353672" y="1066.658878337795" type="curve" smooth="yes"/>
      <point x="127.73923523536713" y="1389.658878337795" type="line" smooth="yes"/>
      <point x="100.84137064963947" y="1414.7687345840352"/>
      <point x="48.73923523536713" y="1398.658878337795"/>
    </contour>
  </outline>
</glyph>
<glyph name="a" format="2">
  <advance width="1239.5657320442156"/>
  <unicode hex="0061"/>
  <outline>
    <contour>
      <point x="276.0576923076923" y="715.6080996632869" type="curve" smooth="yes"/>
      <point x="276.0576923076923" y="773.6080996632869"/>
      <point x="317.0576923076923" y="827.6080996632869"/>
      <point x="378.0576923076923" y="866.6080996632869" type="curve" smooth="yes"/>
      <point x="437.0576923076923" y="904.6080996632869"/>
      <point x="513.0576923076924" y="927.6080996632869"/>
      <point x="590.0576923076923" y="927.6080996632869" type="curve" smooth="yes"/>
      <point x="662.0576923076923" y="926.6080996632869"/>
      <point x="738.0576923076923" y="903.6080996632869"/>
      <point x="797.0576923076923" y="864.6080996632869" type="curve" smooth="yes"/>
      <point x="855.0576923076923" y="827.6080996632869"/>
      <point x="894.0576923076923" y="775.6080996632869"/>
      <point x="896.0576923076923" y="715.6080996632869" type="curve" smooth="yes"/>
      <point x="897.0576923076923" y="684.6080996632869"/>
      <point x="898.0576923076923" y="640.6080996632869"/>
      <point x="898.0576923076923" y="591.6080996632869" type="curve"/>
      <point x="824.0576923076923" y="527.6080996632869"/>
      <point x="701.0576923076923" y="526.6080996632869"/>
      <point x="582.0576923076923" y="525.6080996632869" type="curve" smooth="yes"/>
      <point x="464.0576923076923" y="523.6080996632869"/>
      <point x="348.0576923076923" y="522.6080996632869"/>
      <point x="250.05769230769232" y="479.6080996632869" type="curve" smooth="yes"/>
      <point x="199.05769230769232" y="456.6080996632869"/>
      <point x="161.05769230769232" y="422.6080996632869"/>
      <point x="136.05769230769232" y="382.6080996632869" type="curve" smooth="yes"/>
      <point x="111.0576923076923" y="343.6080996632869"/>
      <point x="99.0576923076923" y="297.6080996632869"/>
      <point x="100.0576923076923" y="251.6080996632869" type="curve" smooth="yes"/>
      <point x="101.0576923076923" y="215.6080996632869"/>
      <point x="109.0576923076923" y="179.6080996632869"/>
      <point x="127.0576923076923" y="146.6080996632869" type="curve" smooth="yes"/>
      <point x="143.05769230769232" y="113.60809966328691"/>
      <point x="168.05769230769232" y="83.60809966328691"/>
      <point x="201.05769230769232" y="58.60809966328691" type="curve" smooth="yes"/>
      <point x="234.05769230769232" y="33.60809966328691"/>
      <point x="282.0576923076923" y="13.608099663286907"/>
      <point x="335.0576923076923" y="-1.3919003367130927" type="curve" smooth="yes"/>
      <point x="391.0576923076923" y="-16.391900336713093"/>
      <point x="450.0576923076923" y="-24.391900336713093"/>
      <point x="510.0576923076923" y="-24.391900336713093" type="curve" smooth="yes"/>
      <point x="647.0576923076923" y="-24.391900336713093"/>
      <point x="786.0576923076923" y="15.608099663286907"/>
      <point x="893.0576923076923" y="96.60809966328691" type="curve" smooth="yes"/>
      <point x="900.0576923076923" y="101.60809966328691"/>
      <point x="906.0576923076923" y="106.60809966328691"/>
      <point x="911.0576923076923" y="111.60809966328691" type="curve"/>
      <point x="926.0576923076923" y="65.60809966328691"/>
      <point x="956.0576923076923" y="19.608099663286907"/>
      <point x="1013.0576923076923" y="-12.391900336713093" type="curve" smooth="yes"/>
      <point x="1039.0576923076924" y="-27.391900336713093"/>
      <point x="1085.0576923076924" y="-28.391900336713093"/>
      <point x="1115.0576923076924" y="-15.391900336713093" type="curve" smooth="yes"/>
      <point x="1145.0576923076924" y="-2.3919003367130927"/>
      <point x="1148.0576923076924" y="20.608099663286907"/>
      <point x="1121.0576923076924" y="35.60809966328691" type="curve" smooth="yes"/>
      <point x="1084.0576923076924" y="56.60809966328691"/>
      <point x="1064.0576923076924" y="91.60809966328691"/>
      <point x="1053.0576923076924" y="127.60809966328691" type="curve" smooth="yes"/>
      <point x="1037.0576923076924" y="179.6080996632869"/>
      <point x="1040.0576923076924" y="242.6080996632869"/>
      <point x="1041.0576923076924" y="297.6080996632869" type="curve" smooth="yes"/>
      <point x="1042.0576923076924" y="392.6080996632869"/>
      <point x="1041.0576923076924" y="616.6080996632869"/>
      <point x="1041.0576923076924" y="711.6080996632869" type="curve" smooth="yes"/>
      <point x="1041.0576923076924" y="776.6080996632869"/>
      <point x="1002.0576923076923" y="849.6080996632869"/>
      <point x="912.0576923076923" y="908.6080996632869" type="curve" smooth="yes"/>
      <point x="826.0576923076923" y="964.6080996632869"/>
      <point x="708.0576923076923" y="998.6080996632868"/>
      <point x="591.0576923076923" y="999.6080996632868" type="curve" smooth="yes"/>
      <point x="468.0576923076923" y="1000.6080996632868"/>
      <point x="350.0576923076923" y="965.6080996632869"/>
      <point x="264.0576923076923" y="911.6080996632869" type="curve" smooth="yes"/>
      <point x="185.05769230769232" y="860.6080996632869"/>
      <point x="132.05769230769232" y="790.6080996632869"/>
      <point x="131.05769230769232" y="715.6080996632869" type="curve" smooth="yes"/>
      <point x="131.05769230769232" y="696.6080996632869"/>
      <point x="164.05769230769232" y="679.6080996632869"/>
      <point x="203.05769230769232" y="679.6080996632869" type="curve" smooth="yes"/>
      <point x="243.05769230769232" y="679.6080996632869"/>
      <point x="276.0576923076923" y="695.6080996632869"/>
    </contour>
    <contour>
      <point x="897.0576923076923" y="358.6080996632869" type="curve" smooth="yes"/>
      <point x="897.0576923076923" y="270.6080996632869"/>
      <point x="847.0576923076923" y="192.6080996632869"/>
      <point x="773.0576923076923" y="136.6080996632869" type="curve" smooth="yes"/>
      <point x="703.0576923076923" y="84.60809966328691"/>
      <point x="595.0576923076923" y="47.60809966328691"/>
      <point x="494.0576923076923" y="47.60809966328691" type="curve" smooth="yes"/>
      <point x="430.0576923076923" y="47.60809966328691"/>
      <point x="369.0576923076923" y="62.60809966328691"/>
      <point x="322.0576923076923" y="98.60809966328691" type="curve" smooth="yes"/>
      <point x="298.0576923076923" y="116.60809966328691"/>
      <point x="279.0576923076923" y="139.6080996632869"/>
      <point x="266.0576923076923" y="164.6080996632869" type="curve" smooth="yes"/>
      <point x="252.05769230769232" y="191.6080996632869"/>
      <point x="245.05769230769232" y="222.6080996632869"/>
      <point x="244.05769230769232" y="252.6080996632869" type="curve" smooth="yes"/>
      <point x="243.05769230769232" y="290.6080996632869"/>
      <point x="253.05769230769232" y="328.6080996632869"/>
      <point x="274.0576923076923" y="361.6080996632869" type="curve" smooth="yes"/>
      <point x="291.0576923076923" y="388.6080996632869"/>
      <point x="316.0576923076923" y="411.6080996632869"/>
      <point x="347.0576923076923" y="425.6080996632869" type="curve" smooth="yes"/>
      <point x="405.0576923076923" y="450.6080996632869"/>
      <point x="494.0576923076923" y="451.6080996632869"/>
      <point x="585.0576923076923" y="452.6080996632869" type="curve" smooth="yes"/>
      <point x="693.0576923076923" y="454.6080996632869"/>
      <point x="803.0576923076923" y="455.6080996632869"/>
      <point x="898.0576923076923" y="486.6080996632869" type="curve"/>
      <point x="898.0576923076923" y="441.6080996632869"/>
      <point x="897.0576923076923" y="397.6080996632869"/>
    </contour>
  </outline>
</glyph>
<glyph name="b" format="2">
  <advance width="1247.0"/>
  <unicode hex="0062"/>
  <outline>
    <contour>
      <point x="100.0" y="1341.6175766283525" type="line" smooth="yes"/>
      <point x="100.0" y="1361.6175766283525"/>
      <point x="133.0" y="1377.6175766283525"/>
      <point x="173.0" y="1377.6175766283525" type="curve" smooth="yes"/>
      <point x="213.0" y="1377.6175766283525"/>
      <point x="245.0" y="1361.6175766283525"/>
      <point x="245.0" y="1341.6175766283525" type="curve" smooth="yes"/>
      <point x="245.0" y="836.6175766283526" type="line"/>
      <point x="328.0" y="940.6175766283526"/>
      <point x="456.0" y="1001.6175766283526"/>
      <point x="623.0" y="1001.6175766283526" type="curve" smooth="yes"/>
      <point x="882.0" y="1001.6175766283526"/>
      <point x="1043.0" y="864.6175766283526"/>
      <point x="1110.0" y="690.6175766283526" type="curve" smooth="yes"/>
      <point x="1134.0" y="626.6175766283526"/>
      <point x="1147.0" y="557.6175766283526"/>
      <point x="1147.0" y="488.61757662835254" type="curve" smooth="yes"/>
      <point x="1147.0" y="420.61757662835254"/>
      <point x="1134.0" y="351.61757662835254"/>
      <point x="1110.0" y="287.61757662835254" type="curve" smooth="yes"/>
      <point x="1043.0" y="112.61757662835248"/>
      <point x="882.0" y="-23.382423371647505"/>
      <point x="623.0" y="-23.382423371647505" type="curve" smooth="yes"/>
      <point x="456.0" y="-23.382423371647505"/>
      <point x="328.0" y="37.617576628352495"/>
      <point x="245.0" y="141.61757662835248" type="curve"/>
      <point x="245.0" y="14.617576628352495" type="line" smooth="yes"/>
      <point x="245.0" y="-5.382423371647519"/>
      <point x="213.0" y="-21.382423371647505"/>
      <point x="173.0" y="-21.382423371647505" type="curve" smooth="yes"/>
      <point x="133.0" y="-21.382423371647505"/>
      <point x="100.0" y="-5.382423371647505"/>
      <point x="100.0" y="14.617576628352495" type="curve" smooth="yes"/>
    </contour>
    <contour>
      <point x="245.0" y="489.61757662835254" type="curve" smooth="yes"/>
      <point x="245.0" y="488.61757662835254" type="line" smooth="yes"/>
      <point x="245.0" y="424.61757662835254"/>
      <point x="257.0" y="359.61757662835254"/>
      <point x="279.0" y="300.61757662835254" type="curve" smooth="yes"/>
      <point x="334.0" y="159.61757662835248"/>
      <point x="449.0" y="49.617576628352495"/>
      <point x="623.0" y="49.617576628352495" type="curve" smooth="yes"/>
      <point x="798.0" y="49.617576628352495"/>
      <point x="913.0" y="159.61757662835248"/>
      <point x="968.0" y="300.61757662835254" type="curve" smooth="yes"/>
      <point x="990.0" y="359.61757662835254"/>
      <point x="1002.0" y="424.61757662835254"/>
      <point x="1002.0" y="488.61757662835254" type="curve" smooth="yes"/>
      <point x="1002.0" y="553.6175766283526"/>
      <point x="990.0" y="617.6175766283526"/>
      <point x="968.0" y="676.6175766283526" type="curve" smooth="yes"/>
      <point x="913.0" y="818.6175766283526"/>
      <point x="798.0" y="928.6175766283526"/>
      <point x="623.0" y="928.6175766283526" type="curve" smooth="yes"/>
      <point x="449.0" y="928.6175766283526"/>
      <point x="334.0" y="818.6175766283526"/>
      <point x="279.0" y="676.6175766283526" type="curve" smooth="yes"/>
      <point x="257.0" y="618.6175766283526"/>
      <point x="245.0" y="553.6175766283526"/>
    </contour>
  </outline>
</glyph>
<glyph name="c" format="2">
  <advance width="1205.368688525421"/>
  <unicode hex="0063"/>
  <outline>
    <contour>
      <point x="1104.0" y="685.0" type="curve" smooth="yes"/>
      <point x="1107.0" y="665.0"/>
      <point x="1077.0" y="648.0"/>
      <point x="1037.0" y="647.0" type="curve" smooth="yes"/>
      <point x="997.0" y="645.0"/>
      <point x="963.0" y="660.0"/>
      <point x="960.0" y="680.0" type="curve" smooth="yes"/>
      <point x="949.0" y="759.0"/>
      <point x="904.0" y="820.0"/>
      <point x="844.0" y="862.0" type="curve" smooth="yes"/>
      <point x="782.0" y="906.0"/>
      <point x="704.0" y="928.0"/>
      <point x="631.0" y="927.0" type="curve" smooth="yes"/>
      <point x="520.0" y="926.0"/>
      <point x="430.0" y="884.0"/>
      <point x="364.0" y="816.0" type="curve" smooth="yes"/>
      <point x="287.0" y="735.0"/>
      <point x="246.0" y="612.0"/>
      <point x="244.0" y="489.0" type="curve" smooth="yes"/>
      <point x="243.0" y="369.0"/>
      <point x="279.0" y="249.0"/>
      <point x="354.0" y="164.0" type="curve" smooth="yes"/>
      <point x="425.0" y="84.0"/>
      <point x="526.0" y="46.0"/>
      <point x="627.0" y="47.0" type="curve" smooth="yes"/>
      <point x="702.0" y="48.0"/>
      <point x="777.0" y="71.0"/>
      <point x="840.0" y="115.0" type="curve" smooth="yes"/>
      <point x="902.0" y="158.0"/>
      <point x="948.0" y="219.0"/>
      <point x="962.0" y="295.0" type="curve" smooth="yes"/>
      <point x="966.0" y="315.0"/>
      <point x="1001.0" y="329.0"/>
      <point x="1040.0" y="328.0" type="curve" smooth="yes"/>
      <point x="1080.0" y="326.0"/>
      <point x="1109.0" y="308.0"/>
      <point x="1105.0" y="288.0" type="curve" smooth="yes"/>
      <point x="1089.0" y="199.0"/>
      <point x="1033.0" y="125.0"/>
      <point x="957.0" y="73.0" type="curve" smooth="yes"/>
      <point x="859.0" y="5.0"/>
      <point x="735.0" y="-25.0"/>
      <point x="625.0" y="-25.0" type="curve" smooth="yes"/>
      <point x="444.0" y="-25.0"/>
      <point x="310.0" y="36.0"/>
      <point x="223.0" y="135.0" type="curve" smooth="yes"/>
      <point x="140.0" y="228.0"/>
      <point x="100.0" y="358.0"/>
      <point x="100.0" y="486.0" type="curve" smooth="yes"/>
      <point x="101.0" y="621.0"/>
      <point x="146.0" y="755.0"/>
      <point x="234.0" y="847.0" type="curve" smooth="yes"/>
      <point x="323.0" y="940.0"/>
      <point x="456.0" y="997.0000000000002"/>
      <point x="628.0" y="999.0000000000002" type="curve" smooth="yes"/>
      <point x="748.0" y="1001.0000000000002"/>
      <point x="870.0" y="968.0"/>
      <point x="961.0" y="905.0" type="curve" smooth="yes"/>
      <point x="1036.0" y="852.0"/>
      <point x="1091.0" y="778.0"/>
    </contour>
  </outline>
</glyph>
<glyph name="d" format="2">
  <advance height="2048" width="1184.0"/>
  <unicode hex="0064"/>
  <outline>
    <contour>
      <point x="592.0" y="1001.0" type="curve" smooth="yes"/>
      <point x="287.0" y="1001.0"/>
      <point x="100.0" y="779.0"/>
      <point x="100.0" y="489.0" type="curve" smooth="yes"/>
      <point x="100.0" y="199.0"/>
      <point x="287.0" y="-23.0"/>
      <point x="592.0" y="-23.0" type="curve" smooth="yes"/>
      <point x="737.0" y="-23.0"/>
      <point x="846.0" y="27.0"/>
      <point x="921.0" y="111.0" type="curve"/>
      <point x="921.0" y="21.0" type="line" smooth="yes"/>
      <point x="921.0" y="-4.0"/>
      <point x="957.0" y="-24.0"/>
      <point x="1002.0" y="-24.0" type="curve" smooth="yes"/>
      <point x="1047.0" y="-24.0"/>
      <point x="1084.0" y="-4.0"/>
      <point x="1084.0" y="21.0" type="curve" smooth="yes"/>
      <point x="1084.0" y="1336.0" type="line" smooth="yes"/>
      <point x="1084.0" y="1361.0"/>
      <point x="1047.0" y="1381.0"/>
      <point x="1002.0" y="1381.0" type="curve" smooth="yes"/>
      <point x="957.0" y="1381.0"/>
      <point x="921.0" y="1361.0"/>
      <point x="921.0" y="1336.0" type="curve" smooth="yes"/>
      <point x="921.0" y="867.0" type="line"/>
      <point x="846.0" y="951.0"/>
      <point x="737.0" y="1001.0"/>
    </contour>
    <contour>
      <point x="592.0" y="910.0" type="curve" smooth="yes"/>
      <point x="814.0" y="910.0"/>
      <point x="921.0" y="683.0"/>
      <point x="921.0" y="489.0" type="curve" smooth="yes"/>
      <point x="921.0" y="295.0"/>
      <point x="814.0" y="68.0"/>
      <point x="592.0" y="68.0" type="curve" smooth="yes"/>
      <point x="370.0" y="68.0"/>
      <point x="263.0" y="295.0"/>
      <point x="263.0" y="489.0" type="curve" smooth="yes"/>
      <point x="263.0" y="683.0"/>
      <point x="370.0" y="910.0"/>
    </contour>
  </outline>
</glyph>
<glyph name="d" format="2">
  <advance width="1247.0"/>
  <unicode hex="0064"/>
  <outline>
    <contour>
      <point x="1147.0" y="1341.0" type="line" smooth="yes"/>
      <point x="1147.0" y="1361.0"/>
      <point x="1114.0" y="1377.0"/>
      <point x="1074.0" y="1377.0" type="curve" smooth="yes"/>
      <point x="1034.0" y="1377.0"/>
      <point x="1002.0" y="1361.0"/>
      <point x="1002.0" y="1341.0" type="curve" smooth="yes"/>
      <point x="1002.0" y="836.0" type="line"/>
      <point x="919.0" y="940.0"/>
      <point x="791.0" y="1001.0"/>
      <point x="624.0" y="1001.0" type="curve" smooth="yes"/>
      <point x="365.0" y="1001.0"/>
      <point x="204.0" y="864.0"/>
      <point x="137.0" y="690.0" type="curve" smooth="yes"/>
      <point x="113.0" y="626.0"/>
      <point x="100.0" y="557.0"/>
      <point x="100.0" y="488.0" type="curve" smooth="yes"/>
      <point x="100.0" y="420.0"/>
      <point x="113.0" y="351.0"/>
      <point x="137.0" y="287.0" type="curve" smooth="yes"/>
      <point x="204.0" y="112.0"/>
      <point x="365.0" y="-24.0"/>
      <point x="624.0" y="-24.0" type="curve" smooth="yes"/>
      <point x="791.0" y="-24.0"/>
      <point x="919.0" y="37.0"/>
      <point x="1002.0" y="141.0" type="curve"/>
      <point x="1002.0" y="14.0" type="line" smooth="yes"/>
      <point x="1002.0" y="-6.0"/>
      <point x="1034.0" y="-22.0"/>
      <point x="1074.0" y="-22.0" type="curve" smooth="yes"/>
      <point x="1114.0" y="-22.0"/>
      <point x="1147.0" y="-6.0"/>
      <point x="1147.0" y="14.0" type="curve" smooth="yes"/>
    </contour>
    <contour>
      <point x="1002.0" y="489.0" type="curve" smooth="yes"/>
      <point x="1002.0" y="488.0" type="line" smooth="yes"/>
      <point x="1002.0" y="424.0"/>
      <point x="990.0" y="359.0"/>
      <point x="968.0" y="300.0" type="curve" smooth="yes"/>
      <point x="913.0" y="159.0"/>
      <point x="798.0" y="49.0"/>
      <point x="624.0" y="49.0" type="curve" smooth="yes"/>
      <point x="449.0" y="49.0"/>
      <point x="334.0" y="159.0"/>
      <point x="279.0" y="300.0" type="curve" smooth="yes"/>
      <point x="257.0" y="359.0"/>
      <point x="245.0" y="424.0"/>
      <point x="245.0" y="488.0" type="curve" smooth="yes"/>
      <point x="245.0" y="553.0"/>
      <point x="257.0" y="617.0"/>
      <point x="279.0" y="676.0" type="curve" smooth="yes"/>
      <point x="334.0" y="818.0"/>
      <point x="449.0" y="928.0"/>
      <point x="624.0" y="928.0" type="curve" smooth="yes"/>
      <point x="798.0" y="928.0"/>
      <point x="913.0" y="818.0"/>
      <point x="968.0" y="676.0" type="curve" smooth="yes"/>
      <point x="990.0" y="618.0"/>
      <point x="1002.0" y="553.0"/>
    </contour>
  </outline>
</glyph>
<glyph name="e" format="2">
  <advance width="1240.2186789339673"/>
  <unicode hex="0065"/>
  <outline>
    <contour>
      <point x="963.1377551020408" y="295.0" type="curve" smooth="yes"/>
      <point x="965.1377551020408" y="315.0"/>
      <point x="999.1377551020408" y="330.0"/>
      <point x="1038.137755102041" y="329.0" type="curve" smooth="yes"/>
      <point x="1078.137755102041" y="328.0"/>
      <point x="1109.137755102041" y="311.0"/>
      <point x="1107.137755102041" y="292.0" type="curve" smooth="yes"/>
      <point x="1098.137755102041" y="212.0"/>
      <point x="1043.137755102041" y="133.0"/>
      <point x="959.1377551020408" y="76.0" type="curve" smooth="yes"/>
      <point x="856.1377551020408" y="6.0"/>
      <point x="727.1377551020408" y="-25.0"/>
      <point x="604.1377551020408" y="-24.0" type="curve" smooth="yes"/>
      <point x="428.13775510204084" y="-22.0"/>
      <point x="300.13775510204084" y="42.0"/>
      <point x="217.1377551020408" y="140.0" type="curve" smooth="yes"/>
      <point x="142.1377551020408" y="228.0"/>
      <point x="103.13775510204081" y="346.0"/>
      <point x="100.13775510204081" y="465.0" type="curve" smooth="yes"/>
      <point x="97.13775510204081" y="603.0"/>
      <point x="143.1377551020408" y="745.0"/>
      <point x="238.1377551020408" y="846.0" type="curve" smooth="yes"/>
      <point x="343.13775510204084" y="959.0"/>
      <point x="488.13775510204084" y="1002.0"/>
      <point x="639.1377551020408" y="1000.0" type="curve" smooth="yes"/>
      <point x="817.1377551020408" y="997.0"/>
      <point x="945.1377551020408" y="938.0"/>
      <point x="1027.137755102041" y="849.0" type="curve" smooth="yes"/>
      <point x="1107.137755102041" y="762.0"/>
      <point x="1142.1377551020407" y="648.0"/>
      <point x="1140.1377551020407" y="532.0" type="curve" smooth="yes"/>
      <point x="1140.1377551020407" y="522.0"/>
      <point x="1132.1377551020407" y="513.0"/>
      <point x="1119.137755102041" y="506.0" type="curve"/>
      <point x="1104.137755102041" y="499.0"/>
      <point x="1085.137755102041" y="496.0"/>
      <point x="1068.137755102041" y="496.0" type="curve" smooth="yes"/>
      <point x="244.1377551020408" y="496.0" type="line"/>
      <point x="240.1377551020408" y="376.0"/>
      <point x="275.13775510204084" y="256.0"/>
      <point x="350.13775510204084" y="168.0" type="curve" smooth="yes"/>
      <point x="411.13775510204084" y="96.0"/>
      <point x="497.13775510204084" y="49.0"/>
      <point x="606.1377551020408" y="48.0" type="curve" smooth="yes"/>
      <point x="689.1377551020408" y="47.0"/>
      <point x="773.1377551020408" y="71.0"/>
      <point x="842.1377551020408" y="118.0" type="curve" smooth="yes"/>
      <point x="911.1377551020408" y="165.0"/>
      <point x="956.1377551020408" y="229.0"/>
    </contour>
    <contour>
      <point x="995.1377551020408" y="568.0" type="line"/>
      <point x="990.1377551020408" y="660.0"/>
      <point x="959.1377551020408" y="750.0"/>
      <point x="896.1377551020408" y="818.0" type="curve" smooth="yes"/>
      <point x="836.1377551020408" y="883.0"/>
      <point x="749.1377551020408" y="926.0"/>
      <point x="635.1377551020408" y="928.0" type="curve" smooth="yes"/>
      <point x="530.1377551020408" y="930.0"/>
      <point x="440.13775510204084" y="892.0"/>
      <point x="368.13775510204084" y="816.0" type="curve" smooth="yes"/>
      <point x="306.13775510204084" y="749.0"/>
      <point x="267.13775510204084" y="661.0"/>
      <point x="251.1377551020408" y="568.0" type="curve"/>
    </contour>
  </outline>
</glyph>
<glyph name="f" format="2">
  <advance width="790.2911645642529"/>
  <unicode hex="0066"/>
  <outline>
    <contour>
      <point x="402.0" y="12.0" type="line" smooth="yes"/>
      <point x="402.0" y="-8.0"/>
      <point x="370.0" y="-24.0"/>
      <point x="330.0" y="-24.0" type="curve" smooth="yes"/>
      <point x="290.0" y="-24.0"/>
      <point x="257.0" y="-8.0"/>
      <point x="257.0" y="12.0" type="curve" smooth="yes"/>
      <point x="257.0" y="925.0" type="line"/>
      <point x="122.0" y="925.0" type="line" smooth="yes"/>
      <point x="82.0" y="925.0"/>
      <point x="50.0" y="941.0"/>
      <point x="50.0" y="961.0" type="curve" smooth="yes"/>
      <point x="50.0" y="981.0"/>
      <point x="82.0" y="997.0"/>
      <point x="122.0" y="997.0" type="curve" smooth="yes"/>
      <point x="257.0" y="997.0" type="line"/>
      <point x="257.0" y="1114.0" type="line" smooth="yes"/>
      <point x="257.0" y="1138.0"/>
      <point x="259.0" y="1161.0"/>
      <point x="264.0" y="1182.0" type="curve" smooth="yes"/>
      <point x="277.0" y="1247.0"/>
      <point x="310.0" y="1293.0"/>
      <point x="357.0" y="1324.0" type="curve" smooth="yes"/>
      <point x="412.0" y="1360.0"/>
      <point x="483.0" y="1377.0"/>
      <point x="563.0" y="1377.0" type="curve" smooth="yes"/>
      <point x="605.0" y="1377.0"/>
      <point x="650.0" y="1372.0"/>
      <point x="695.0" y="1362.0" type="curve" smooth="yes"/>
      <point x="732.0" y="1355.0"/>
      <point x="750.0" y="1334.0"/>
      <point x="735.0" y="1315.0" type="curve" smooth="yes"/>
      <point x="720.0" y="1297.0"/>
      <point x="678.0" y="1288.0"/>
      <point x="641.0" y="1296.0" type="curve" smooth="yes"/>
      <point x="613.0" y="1301.0"/>
      <point x="586.0" y="1304.0"/>
      <point x="563.0" y="1304.0" type="curve" smooth="yes"/>
      <point x="528.0" y="1304.0"/>
      <point x="497.0" y="1297.0"/>
      <point x="473.0" y="1281.0" type="curve" smooth="yes"/>
      <point x="441.0" y="1260.0"/>
      <point x="418.0" y="1226.0"/>
      <point x="408.0" y="1175.0" type="curve" smooth="yes"/>
      <point x="404.0" y="1157.0"/>
      <point x="402.0" y="1137.0"/>
      <point x="402.0" y="1114.0" type="curve" smooth="yes"/>
      <point x="402.0" y="997.0" type="line"/>
      <point x="599.0" y="997.0" type="line" smooth="yes"/>
      <point x="639.0" y="997.0"/>
      <point x="672.0" y="981.0"/>
      <point x="672.0" y="961.0" type="curve" smooth="yes"/>
      <point x="672.0" y="941.0"/>
      <point x="639.0" y="925.0"/>
      <point x="599.0" y="925.0" type="curve" smooth="yes"/>
      <point x="402.0" y="925.0" type="line"/>
    </contour>
  </outline>
</glyph>
<glyph name="g" format="2">
  <advance height="2048" width="1184.0"/>
  <unicode hex="0067"/>
  <outline>
    <contour>
      <point x="592.0" y="910.0" type="curve" smooth="yes"/>
      <point x="370.0" y="910.0"/>
      <point x="263.0" y="683.0"/>
      <point x="263.0" y="489.0" type="curve" smooth="yes"/>
      <point x="263.0" y="295.0"/>
      <point x="370.0" y="68.0"/>
      <point x="592.0" y="68.0" type="curve" smooth="yes"/>
      <point x="814.0" y="68.0"/>
      <point x="921.0" y="295.0"/>
      <point x="921.0" y="489.0" type="curve" smooth="yes"/>
      <point x="921.0" y="683.0"/>
      <point x="814.0" y="910.0"/>
    </contour>
    <contour>
      <point x="107.0" y="-224.0" type="curve" smooth="yes"/>
      <point x="91.0" y="-201.0"/>
      <point x="112.0" y="-174.0"/>
      <point x="154.0" y="-166.0" type="curve" smooth="yes"/>
      <point x="196.0" y="-157.0"/>
      <point x="243.0" y="-168.0"/>
      <point x="259.0" y="-192.0" type="curve" smooth="yes"/>
      <point x="323.0" y="-286.0"/>
      <point x="478.0" y="-316.0"/>
      <point x="584.0" y="-313.0" type="curve" smooth="yes"/>
      <point x="794.0" y="-306.0"/>
      <point x="920.0" y="-182.0"/>
      <point x="920.0" y="30.0" type="curve" smooth="yes"/>
      <point x="920.0" y="113.0" type="line"/>
      <point x="845.0" y="28.0"/>
      <point x="736.0" y="-23.0"/>
      <point x="592.0" y="-23.0" type="curve" smooth="yes"/>
      <point x="287.0" y="-23.0"/>
      <point x="100.0" y="199.0"/>
      <point x="100.0" y="489.0" type="curve" smooth="yes"/>
      <point x="100.0" y="779.0"/>
      <point x="287.0" y="1001.0"/>
      <point x="592.0" y="1001.0" type="curve" smooth="yes"/>
      <point x="737.0" y="1001.0"/>
      <point x="846.0" y="952.0"/>
      <point x="921.0" y="869.0" type="curve"/>
      <point x="921.0" y="955.0" type="line" smooth="yes"/>
      <point x="921.0" y="981.0"/>
      <point x="957.0" y="1001.0"/>
      <point x="1002.0" y="1001.0" type="curve" smooth="yes"/>
      <point x="1047.0" y="1001.0"/>
      <point x="1084.0" y="981.0"/>
      <point x="1084.0" y="955.0" type="curve"/>
      <point x="1082.0" y="30.0" type="line"/>
      <point x="1082.0" y="-262.0"/>
      <point x="864.0" y="-394.0"/>
      <point x="594.0" y="-404.0" type="curve" smooth="yes"/>
      <point x="436.0" y="-409.0"/>
      <point x="202.0" y="-364.0"/>
    </contour>
  </outline>
</glyph>
<glyph name="g" format="2">
  <advance width="1244.0"/>
  <unicode hex="0067"/>
  <outline>
    <contour>
      <point x="111.0" y="-221.0" type="curve" smooth="yes"/>
      <point x="98.0" y="-202.0"/>
      <point x="117.0" y="-182.0"/>
      <point x="155.0" y="-175.0" type="curve" smooth="yes"/>
      <point x="192.0" y="-168.0"/>
      <point x="234.0" y="-178.0"/>
      <point x="247.0" y="-197.0" type="curve" smooth="yes"/>
      <point x="277.0" y="-238.0"/>
      <point x="329.0" y="-271.0"/>
      <point x="391.0" y="-293.0" type="curve" smooth="yes"/>
      <point x="456.0" y="-316.0"/>
      <point x="532.0" y="-327.0"/>
      <point x="608.0" y="-324.0" type="curve" smooth="yes"/>
      <point x="706.0" y="-321.0"/>
      <point x="804.0" y="-294.0"/>
      <point x="874.0" y="-232.0" type="curve" smooth="yes"/>
      <point x="938.0" y="-175.0"/>
      <point x="980.0" y="-90.0"/>
      <point x="980.0" y="32.0" type="curve" smooth="yes"/>
      <point x="980.0" y="69.0"/>
      <point x="980.0" y="105.0"/>
      <point x="980.0" y="142.0" type="curve"/>
      <point x="890.0" y="38.0"/>
      <point x="755.0" y="-23.0"/>
      <point x="591.0" y="-23.0" type="curve" smooth="yes"/>
      <point x="340.0" y="-23.0"/>
      <point x="183.0" y="113.0"/>
      <point x="118.0" y="288.0" type="curve" smooth="yes"/>
      <point x="94.0" y="352.0"/>
      <point x="82.0" y="422.0"/>
      <point x="82.0" y="490.0" type="curve" smooth="yes"/>
      <point x="82.0" y="559.0"/>
      <point x="94.0" y="628.0000000000001"/>
      <point x="118.0" y="692.0000000000001" type="curve" smooth="yes"/>
      <point x="183.0" y="867.0"/>
      <point x="340.0" y="1004.0"/>
      <point x="591.0" y="1004.0" type="curve" smooth="yes"/>
      <point x="755.0" y="1004.0"/>
      <point x="891.0" y="942.0"/>
      <point x="981.0" y="838.0" type="curve"/>
      <point x="981.0" y="877.0"/>
      <point x="981.0" y="920.0"/>
      <point x="981.0" y="968.0" type="curve" smooth="yes"/>
      <point x="981.0" y="988.0"/>
      <point x="1014.0" y="1004.0"/>
      <point x="1054.0" y="1004.0" type="curve" smooth="yes"/>
      <point x="1094.0" y="1004.0"/>
      <point x="1126.0" y="988.0"/>
      <point x="1126.0" y="968.0" type="curve" smooth="yes"/>
      <point x="1126.0" y="937.0"/>
      <point x="1126.0" y="856.0"/>
      <point x="1126.0" y="500.0" type="curve" smooth="yes"/>
      <point x="1125.0" y="344.0"/>
      <point x="1125.0" y="188.0"/>
      <point x="1124.0" y="32.0" type="curve" smooth="yes"/>
      <point x="1124.0" y="-103.0"/>
      <point x="1076.0" y="-200.0"/>
      <point x="1001.0" y="-267.0" type="curve" smooth="yes"/>
      <point x="903.0" y="-354.0"/>
      <point x="761.0" y="-392.0"/>
      <point x="617.0" y="-397.0" type="curve" smooth="yes"/>
      <point x="509.0" y="-400.0"/>
      <point x="400.0" y="-384.0"/>
      <point x="309.0" y="-352.0" type="curve" smooth="yes"/>
      <point x="223.0" y="-322.0"/>
      <point x="152.0" y="-278.0"/>
    </contour>
    <contour>
      <point x="256.0" y="302.0" type="curve" smooth="yes"/>
      <point x="309.0" y="160.0"/>
      <point x="422.0" y="49.0"/>
      <point x="591.0" y="49.0" type="curve" smooth="yes"/>
      <point x="761.0" y="49.0"/>
      <point x="874.0" y="160.0"/>
      <point x="927.0" y="302.0" type="curve" smooth="yes"/>
      <point x="949.0" y="361.0"/>
      <point x="960.0" y="426.0"/>
      <point x="960.0" y="490.0" type="curve" smooth="yes"/>
      <point x="960.0" y="555.0"/>
      <point x="949.0" y="620.0000000000001"/>
      <point x="927.0" y="679.0000000000001" type="curve" smooth="yes"/>
      <point x="874.0" y="821.0000000000001"/>
      <point x="761.0" y="932.0"/>
      <point x="591.0" y="932.0" type="curve" smooth="yes"/>
      <point x="422.0" y="932.0"/>
      <point x="309.0" y="821.0000000000001"/>
      <point x="256.0" y="679.0000000000001" type="curve" smooth="yes"/>
      <point x="234.0" y="620.0000000000001"/>
      <point x="223.0" y="555.0"/>
      <point x="223.0" y="490.0" type="curve" smooth="yes"/>
      <point x="223.0" y="426.0"/>
      <point x="234.0" y="361.0"/>
    </contour>
  </outline>
</glyph>
<glyph name="h" format="2">
  <advance height="2048" width="1120.0"/>
  <unicode hex="0068"/>
  <outline>
    <contour>
      <point x="263.0" y="890.0" type="line"/>
      <point x="343.0" y="969.0"/>
      <point x="450.0" y="1000.0"/>
      <point x="560.0" y="1000.0" type="curve" smooth="yes"/>
      <point x="824.0" y="1000.0"/>
      <point x="1020.0" y="826.0"/>
      <point x="1020.0" y="552.0" type="curve" smooth="yes"/>
      <point x="1020.0" y="21.0" type="line" smooth="yes"/>
      <point x="1020.0" y="-4.0"/>
      <point x="983.0" y="-24.0"/>
      <point x="938.0" y="-24.0" type="curve" smooth="yes"/>
      <point x="893.0" y="-24.0"/>
      <point x="857.0" y="-4.0"/>
      <point x="857.0" y="21.0" type="curve" smooth="yes"/>
      <point x="857.0" y="552.0" type="line" smooth="yes"/>
      <point x="857.0" y="730.0"/>
      <point x="755.0" y="909.0"/>
      <point x="560.0" y="909.0" type="curve" smooth="yes"/>
      <point x="373.0" y="909.0"/>
      <point x="263.0" y="740.0"/>
      <point x="263.0" y="564.0" type="curve" smooth="yes"/>
      <point x="263.0" y="21.0" type="line" smooth="yes"/>
      <point x="263.0" y="-4.0"/>
      <point x="227.0" y="-24.0"/>
      <point x="182.0" y="-24.0" type="curve" smooth="yes"/>
      <point x="137.0" y="-24.0"/>
      <point x="100.0" y="-4.0"/>
      <point x="100.0" y="21.0" type="curve" smooth="yes"/>
      <point x="100.0" y="1336.0" type="line" smooth="yes"/>
      <point x="100.0" y="1361.0"/>
      <point x="137.0" y="1381.0"/>
      <point x="182.0" y="1381.0" type="curve" smooth="yes"/>
      <point x="227.0" y="1381.0"/>
      <point x="263.0" y="1361.0"/>
      <point x="263.0" y="1336.0" type="curve" smooth="yes"/>
    </contour>
  </outline>
</glyph>
<glyph name="h" format="2">
  <advance width="1109.0"/>
  <unicode hex="0068"/>
  <outline>
    <contour>
      <point x="245.0" y="863.0" type="line"/>
      <point x="324.0" y="955.0"/>
      <point x="446.0" y="999.0"/>
      <point x="570.0" y="1000.0" type="curve" smooth="yes"/>
      <point x="684.0" y="1000.0"/>
      <point x="800.0" y="963.0"/>
      <point x="882.0" y="890.0" type="curve" smooth="yes"/>
      <point x="970.0" y="812.0"/>
      <point x="1009.0" y="700.0"/>
      <point x="1009.0" y="584.0" type="curve" smooth="yes"/>
      <point x="1009.0" y="12.0" type="line" smooth="yes"/>
      <point x="1009.0" y="-8.0"/>
      <point x="977.0" y="-24.0"/>
      <point x="937.0" y="-24.0" type="curve" smooth="yes"/>
      <point x="897.0" y="-24.0"/>
      <point x="864.0" y="-8.0"/>
      <point x="864.0" y="12.0" type="curve" smooth="yes"/>
      <point x="864.0" y="584.0" type="line" smooth="yes"/>
      <point x="864.0" y="686.0"/>
      <point x="834.0" y="785.0"/>
      <point x="756.0" y="854.0" type="curve" smooth="yes"/>
      <point x="701.0" y="903.0"/>
      <point x="633.0" y="927.0"/>
      <point x="567.0" y="927.0" type="curve" smooth="yes"/>
      <point x="482.0" y="926.0"/>
      <point x="401.0" y="888.0"/>
      <point x="343.0" y="826.0" type="curve" smooth="yes"/>
      <point x="284.0" y="762.0"/>
      <point x="245.0" y="670.0"/>
      <point x="245.0" y="548.0" type="curve" smooth="yes"/>
      <point x="245.0" y="11.0" type="line" smooth="yes"/>
      <point x="245.0" y="-9.0"/>
      <point x="212.0" y="-25.0"/>
      <point x="172.0" y="-25.0" type="curve" smooth="yes"/>
      <point x="132.0" y="-25.0"/>
      <point x="100.0" y="-9.0"/>
      <point x="100.0" y="11.0" type="curve" smooth="yes"/>
      <point x="100.0" y="1340.0" type="line" smooth="yes"/>
      <point x="100.0" y="1360.0"/>
      <point x="132.0" y="1376.0"/>
      <point x="172.0" y="1376.0" type="curve" smooth="yes"/>
      <point x="212.0" y="1376.0"/>
      <point x="245.0" y="1360.0"/>
      <point x="245.0" y="1340.0" type="curve" smooth="yes"/>
    </contour>
  </outline>
</glyph>
<glyph name="i" format="2">
  <advance width="345.0"/>
  <unicode hex="0069"/>
  <outline>
    <contour>
      <point x="100.0" y="963.5885057471264" type="line" smooth="yes"/>
      <point x="100.0" y="983.5885057471264"/>
      <point x="132.0" y="999.5885057471264"/>
      <point x="173.0" y="999.5885057471264" type="curve" smooth="yes"/>
      <point x="213.0" y="999.5885057471264"/>
      <point x="245.0" y="983.5885057471264"/>
      <point x="245.0" y="963.5885057471264" type="curve" smooth="yes"/>
      <point x="245.0" y="11.588505747126419" type="line" smooth="yes"/>
      <point x="245.0" y="-8.411494252873581"/>
      <point x="213.0" y="-24.41149425287358"/>
      <point x="173.0" y="-24.41149425287358" type="curve" smooth="yes"/>
      <point x="132.0" y="-24.41149425287358"/>
      <point x="100.0" y="-8.411494252873581"/>
      <point x="100.0" y="11.588505747126419" type="curve" smooth="yes"/>
    </contour>
    <contour>
      <point x="173.0" y="1318.5885057471264" type="curve" smooth="yes"/>
      <point x="193.0" y="1318.5885057471264"/>
      <point x="211.0" y="1310.5885057471264"/>
      <point x="224.0" y="1296.5885057471264" type="curve" smooth="yes"/>
      <point x="237.0" y="1283.5885057471264"/>
      <point x="245.0" y="1265.5885057471264"/>
      <point x="245.0" y="1245.5885057471264" type="curve" smooth="yes"/>
      <point x="245.0" y="1225.5885057471264"/>
      <point x="237.0" y="1207.5885057471264"/>
      <point x="224.0" y="1194.5885057471264" type="curve" smooth="yes"/>
      <point x="211.0" y="1181.5885057471264"/>
      <point x="193.0" y="1172.5885057471264"/>
      <point x="173.0" y="1172.5885057471264" type="curve" smooth="yes"/>
      <point x="152.0" y="1172.5885057471264"/>
      <point x="134.0" y="1181.5885057471264"/>
      <point x="121.0" y="1194.5885057471264" type="curve" smooth="yes"/>
      <point x="108.0" y="1207.5885057471264"/>
      <point x="100.0" y="1225.5885057471264"/>
      <point x="100.0" y="1245.5885057471264" type="curve" smooth="yes"/>
      <point x="100.0" y="1265.5885057471264"/>
      <point x="108.0" y="1283.5885057471264"/>
      <point x="121.0" y="1296.5885057471264" type="curve" smooth="yes"/>
      <point x="134.0" y="1310.5885057471264"/>
      <point x="152.0" y="1318.5885057471264"/>
    </contour>
  </outline>
</glyph>
